{
.appVersion = "1075";
copyright = "Copyright © 2018 by Cadson Demak Co.,Ltd.. All rights reserved.";
customParameters = (
{
name = vendorID;
value = CDK;
},
{
name = description;
value = "Copyright (c) 2018, Cadson Demak (info@cadsondemak.com)";
},
{
name = license;

glyphs = (
{
glyphname = A;
layers = (
{
anchors = (
{
name = bottom;
position = "{294, 0}";
},
{
name = ogonek;
position = "{528, 11}";
},
{
name = top;
position = "{304, 700}";
}
);
layerId = "324B27C4-C4D5-407D-B181-631A50D9203C";
paths = (
{
closed = 1;
nodes = (
"95 -8 OFFCURVE",
"113 8 OFFCURVE",
"125 43 CURVE SMOOTH",
"178 195 LINE",
"431 195 LINE",
"502 -6 LINE",
"549 -6 OFFCURVE",
"576 21 OFFCURVE",
"553 85 CURVE SMOOTH",
"335 700 LINE",
"326 704 OFFCURVE",
"318 706 OFFCURVE",
"310 706 CURVE SMOOTH",
"285 706 OFFCURVE",
"266 686 OFFCURVE",
"251 644 CURVE SMOOTH",
"26 0 LINE",
"36 -5 OFFCURVE",
"52 -8 OFFCURVE",
"65 -8 CURVE SMOOTH"
);
},
{
closed = 1;
nodes = (
"304 581 LINE",
"406 269 LINE",
"202 269 LINE"
);
}
);
width = 587;
}
);
leftKerningGroup = A;
note = A;
rightKerningGroup = A;
unicode = 0041;
},
{
glyphname = AE;
lastChange = "2018-03-12 19:44:16 +0000";
layers = (
{
anchors = (
{
name = bottom;
position = "{420, 0}";
},
{
name = top;
position = "{494, 700}";
}
);
layerId = "324B27C4-C4D5-407D-B181-631A50D9203C";
paths = (
{
closed = 1;
nodes = (
"95 -8 OFFCURVE",
"113 8 OFFCURVE",
"125 43 CURVE SMOOTH",
"178 195 LINE",
"406 195 LINE",
"406 177 LINE SMOOTH",
"406 98 OFFCURVE",
"398 62 OFFCURVE",
"364 21 CURVE",
"372 0 LINE",
"753 0 LINE SMOOTH",
"786 0 OFFCURVE",
"810 17 OFFCURVE",
"810 50 CURVE SMOOTH",
"810 57 OFFCURVE",
"809 67 OFFCURVE",
"806 76 CURVE",
"479 76 LINE",
"493 108 OFFCURVE",
"494 143 OFFCURVE",
"494 177 CURVE SMOOTH",
"494 320 LINE",
"705 320 LINE SMOOTH",
"738 320 OFFCURVE",
"762 337 OFFCURVE",
"762 370 CURVE SMOOTH",
"762 377 OFFCURVE",
"761 387 OFFCURVE",
"758 396 CURVE",
"494 396 LINE",
"494 624 LINE",
"737 624 LINE SMOOTH",
"770 624 OFFCURVE",
"794 641 OFFCURVE",
"794 674 CURVE SMOOTH",
"794 681 OFFCURVE",
"793 691 OFFCURVE",
"790 700 CURVE",
"330 700 LINE SMOOTH",
"292 700 OFFCURVE",
"263 677 OFFCURVE",
"248 635 CURVE SMOOTH",
"26 0 LINE",
"36 -5 OFFCURVE",
"52 -8 OFFCURVE",
"65 -8 CURVE SMOOTH"
);
},
{
closed = 1;
nodes = (
"316 619 LINE",
"406 619 LINE",
"406 269 LINE",
"202 269 LINE"
);
}
);
width = 840;
}
);
leftMetricsKey = A;
note = AE;
rightMetricsKey = E;
unicode = 00C6;
},
{
glyphname = B;
layers = (
{
anchors = (
{
name = bottom;
position = "{290, 0}";
},
{
name = top;
position = "{290, 700}";
}
);
layerId = "324B27C4-C4D5-407D-B181-631A50D9203C";
paths = (
{
closed = 1;
nodes = (
"444 -12 OFFCURVE",
"538 67 OFFCURVE",
"538 192 CURVE SMOOTH",
"538 288 OFFCURVE",
"483 344 OFFCURVE",
"399 364 CURVE",
"471 395 OFFCURVE",
"504 441 OFFCURVE",
"504 515 CURVE SMOOTH",
"504 636 OFFCURVE",
"415 714 OFFCURVE",
"249 714 CURVE SMOOTH",
"189 714 OFFCURVE",
"122 704 OFFCURVE",
"52 704 CURVE",
"44 683 LINE",
"78 642 OFFCURVE",
"86 602 OFFCURVE",
"86 514 CURVE SMOOTH",
"86 188 LINE SMOOTH",
"86 100 OFFCURVE",
"78 60 OFFCURVE",
"44 19 CURVE",
"52 -2 LINE",
"121 -2 OFFCURVE",
"200 -12 OFFCURVE",
"264 -12 CURVE SMOOTH"
);
},
{
closed = 1;
nodes = (
"171 67 OFFCURVE",
"174 129 OFFCURVE",
"174 188 CURVE SMOOTH",
"174 324 LINE",
"311 324 LINE SMOOTH",
"399 324 OFFCURVE",
"448 278 OFFCURVE",
"448 198 CURVE SMOOTH",
"448 110 OFFCURVE",
"390 62 OFFCURVE",
"274 62 CURVE SMOOTH",
"227 62 OFFCURVE",
"168 70 OFFCURVE",
"121 70 CURVE",
"132 25 LINE"
);
},
{
closed = 1;
nodes = (
"174 514 LINE SMOOTH",
"174 573 OFFCURVE",
"171 635 OFFCURVE",
"132 677 CURVE",
"121 632 LINE",
"171 632 OFFCURVE",
"220 640 OFFCURVE",
"265 640 CURVE SMOOTH",
"372 640 OFFCURVE",
"414 594 OFFCURVE",
"414 514 CURVE SMOOTH",
"414 437 OFFCURVE",
"375 396 OFFCURVE",
"306 396 CURVE SMOOTH",
"174 396 LINE"
);
}
);
width = 580;
}
);
leftKerningGroup = E;
leftMetricsKey = E;
note = B;
rightKerningGroup = B;
unicode = 0042;
},
{
glyphname = C;
layers = (
{
anchors = (
{
name = bottom;
position = "{364, 0}";
},
{
name = top;
position = "{366, 700}";
}
);
layerId = "324B27C4-C4D5-407D-B181-631A50D9203C";
paths = (
{
closed = 1;
nodes = (
"495 -12 OFFCURVE",
"599 48 OFFCURVE",
"599 119 CURVE SMOOTH",
"599 136 OFFCURVE",
"593 160 OFFCURVE",
"562 169 CURVE",
"524 110 OFFCURVE",
"455 62 OFFCURVE",
"365 62 CURVE SMOOTH",
"219 62 OFFCURVE",
"138 189 OFFCURVE",
"138 350 CURVE SMOOTH",
"138 511 OFFCURVE",
"219 640 OFFCURVE",
"365 640 CURVE SMOOTH",
"449 640 OFFCURVE",
"522 597 OFFCURVE",
"562 533 CURVE",
"593 542 OFFCURVE",
"599 566 OFFCURVE",
"599 583 CURVE SMOOTH",
"599 655 OFFCURVE",
"495 714 OFFCURVE",
"367 714 CURVE SMOOTH",
"161 714 OFFCURVE",
"46 561 OFFCURVE",
"46 350 CURVE SMOOTH",
"46 139 OFFCURVE",
"161 -12 OFFCURVE",
"366 -12 CURVE SMOOTH"
);
}
);
width = 645;
}
);
leftKerningGroup = O;
leftMetricsKey = O;
note = C;
rightKerningGroup = C;
unicode = 0043;
},
{
glyphname = D;
layers = (
{
anchors = (
{
name = bottom;
position = "{290, 0}";
},
{
name = center;
position = "{320, 350}";
},
{
name = top;
position = "{290, 700}";
}
);
layerId = "324B27C4-C4D5-407D-B181-631A50D9203C";
paths = (
{
closed = 1;
nodes = (
"469 -12 OFFCURVE",
"594 129 OFFCURVE",
"594 351 CURVE SMOOTH",
"594 573 OFFCURVE",
"469 714 OFFCURVE",
"253 714 CURVE SMOOTH",
"196 714 OFFCURVE",
"118 704 OFFCURVE",
"52 704 CURVE",
"44 683 LINE",
"78 642 OFFCURVE",
"86 602 OFFCURVE",
"86 514 CURVE SMOOTH",
"86 188 LINE SMOOTH",
"86 100 OFFCURVE",
"78 60 OFFCURVE",
"44 19 CURVE",
"52 -2 LINE",
"118 -2 OFFCURVE",
"196 -12 OFFCURVE",
"253 -12 CURVE SMOOTH"
);
},
{
closed = 1;
nodes = (
"171 67 OFFCURVE",
"174 129 OFFCURVE",
"174 188 CURVE SMOOTH",
"174 514 LINE SMOOTH",
"174 573 OFFCURVE",
"171 635 OFFCURVE",
"132 677 CURVE",
"121 632 LINE",
"170 632 OFFCURVE",
"211 640 OFFCURVE",
"255 640 CURVE SMOOTH",
"415 640 OFFCURVE",
"502 537 OFFCURVE",
"502 351 CURVE SMOOTH",
"502 165 OFFCURVE",
"415 62 OFFCURVE",
"255 62 CURVE SMOOTH",
"211 62 OFFCURVE",
"170 70 OFFCURVE",
"121 70 CURVE",
"132 25 LINE"
);
}
);
width = 640;
}
);
leftKerningGroup = E;
leftMetricsKey = E;
note = D;
rightKerningGroup = O;
rightMetricsKey = O;
unicode = 0044;
},
{
glyphname = Eth;
layers = (
{
components = (
{
name = D;
transform = "{1, 0, 0, 1, 30, 0}";
}
);
layerId = "324B27C4-C4D5-407D-B181-631A50D9203C";
paths = (
{
closed = 1;
nodes = (
"380 320 LINE",
"380 380 LINE",
"30 380 LINE",
"30 320 LINE"
);
}
);
width = 670;
}
);
note = Eth;
rightMetricsKey = D;
unicode = 00D0;
},
{
glyphname = E;
layers = (
{
anchors = (
{
name = bottom;
position = "{276, 0}";
},
{
name = ogonek;
position = "{434, 10}";
},
{
name = top;
position = "{276, 700}";
},
{
name = topleft;
position = "{20, 700}";
}
);
layerId = "324B27C4-C4D5-407D-B181-631A50D9203C";
paths = (
{
closed = 1;
nodes = (
"433 0 LINE SMOOTH",
"466 0 OFFCURVE",
"490 17 OFFCURVE",
"490 50 CURVE SMOOTH",
"490 57 OFFCURVE",
"489 67 OFFCURVE",
"486 76 CURVE",
"121 76 LINE",
"132 34 LINE",
"171 76 OFFCURVE",
"174 127 OFFCURVE",
"174 177 CURVE SMOOTH",
"174 320 LINE",
"385 320 LINE SMOOTH",
"418 320 OFFCURVE",
"442 337 OFFCURVE",
"442 370 CURVE SMOOTH",
"442 377 OFFCURVE",
"441 387 OFFCURVE",
"438 396 CURVE",
"174 396 LINE",
"174 523 LINE SMOOTH",
"174 573 OFFCURVE",
"171 624 OFFCURVE",
"132 666 CURVE",
"121 624 LINE",
"417 624 LINE SMOOTH",
"450 624 OFFCURVE",
"474 641 OFFCURVE",
"474 674 CURVE SMOOTH",
"474 681 OFFCURVE",
"473 691 OFFCURVE",
"470 700 CURVE",
"52 700 LINE",
"44 679 LINE",
"78 638 OFFCURVE",
"86 602 OFFCURVE",
"86 523 CURVE SMOOTH",
"86 177 LINE SMOOTH",
"86 98 OFFCURVE",
"78 62 OFFCURVE",
"44 21 CURVE",
"52 0 LINE"
);
}
);
width = 520;
}
);
leftKerningGroup = E;
note = E;
rightKerningGroup = E;
unicode = 0045;
},
{
glyphname = F;
layers = (
{
anchors = (
{
name = bottom;
position = "{126, 0}";
},
{
name = top;
position = "{259, 700}";
}
);
layerId = "324B27C4-C4D5-407D-B181-631A50D9203C";
paths = (
{
closed = 1;
nodes = (
"151 -6 OFFCURVE",
"172 20 OFFCURVE",
"172 59 CURVE SMOOTH",
"172 310 LINE",
"367 310 LINE SMOOTH",
"400 310 OFFCURVE",
"424 327 OFFCURVE",
"424 360 CURVE SMOOTH",
"424 367 OFFCURVE",
"423 377 OFFCURVE",
"420 386 CURVE",
"172 386 LINE",
"172 523 LINE SMOOTH",
"172 573 OFFCURVE",
"169 624 OFFCURVE",
"130 666 CURVE",
"119 624 LINE",
"415 624 LINE SMOOTH",
"448 624 OFFCURVE",
"472 641 OFFCURVE",
"472 674 CURVE SMOOTH",
"472 681 OFFCURVE",
"471 691 OFFCURVE",
"468 700 CURVE",
"50 700 LINE",
"42 679 LINE",
"76 638 OFFCURVE",
"84 602 OFFCURVE",
"84 523 CURVE SMOOTH",
"84 -2 LINE",
"95 -5 OFFCURVE",
"105 -6 OFFCURVE",
"113 -6 CURVE SMOOTH"
);
}
);
width = 498;
}
);
leftKerningGroup = F;
note = F;
rightKerningGroup = F;
unicode = 0046;
},
{
glyphname = G;
layers = (
{
anchors = (
{
name = bottom;
position = "{354, 0}";
},
{
name = top;
position = "{364, 700}";
}
);
layerId = "324B27C4-C4D5-407D-B181-631A50D9203C";
paths = (
{
closed = 1;
nodes = (
"531 -12 OFFCURVE",
"641 99 OFFCURVE",
"641 276 CURVE SMOOTH",
"641 300 OFFCURVE",
"639 329 OFFCURVE",
"631 356 CURVE",
"425 356 LINE SMOOTH",
"392 356 OFFCURVE",
"368 339 OFFCURVE",
"368 306 CURVE SMOOTH",
"368 299 OFFCURVE",
"369 289 OFFCURVE",
"372 280 CURVE",
"557 280 LINE",
"557 147 OFFCURVE",
"475 62 OFFCURVE",
"356 62 CURVE SMOOTH",
"220 62 OFFCURVE",
"138 173 OFFCURVE",
"138 349 CURVE SMOOTH",
"138 529 OFFCURVE",
"223 640 OFFCURVE",
"362 640 CURVE SMOOTH",
"448 640 OFFCURVE",
"524 597 OFFCURVE",
"572 527 CURVE",
"603 536 OFFCURVE",
"609 560 OFFCURVE",
"609 577 CURVE SMOOTH",
"609 651 OFFCURVE",
"495 714 OFFCURVE",
"364 714 CURVE SMOOTH",
"168 714 OFFCURVE",
"46 573 OFFCURVE",
"46 350 CURVE SMOOTH",
"46 129 OFFCURVE",
"166 -12 OFFCURVE",
"359 -12 CURVE SMOOTH"
);
}
);
width = 687;
}
);
leftKerningGroup = O;
leftMetricsKey = O;
note = G;
rightKerningGroup = G;
unicode = 0047;
},
{
glyphname = H;
layers = (
{
anchors = (
{
name = bottom;
position = "{334, 0}";
},
{
name = center;
position = "{334, 350}";
},
{
name = top;
position = "{334, 700}";
},
{
name = topleft;
position = "{20, 700}";
}
);
layerId = "324B27C4-C4D5-407D-B181-631A50D9203C";
paths = (
{
closed = 1;
nodes = (
"567 -6 OFFCURVE",
"588 20 OFFCURVE",
"588 59 CURVE SMOOTH",
"588 702 LINE",
"577 705 OFFCURVE",
"566 706 OFFCURVE",
"558 706 CURVE SMOOTH",
"520 706 OFFCURVE",
"500 679 OFFCURVE",
"500 641 CURVE SMOOTH",
"500 -2 LINE",
"511 -5 OFFCURVE",
"521 -6 OFFCURVE",
"529 -6 CURVE SMOOTH"
);
},
{
closed = 1;
nodes = (
"147 -6 OFFCURVE",
"168 20 OFFCURVE",
"168 59 CURVE SMOOTH",
"168 702 LINE",
"157 705 OFFCURVE",
"146 706 OFFCURVE",
"138 706 CURVE SMOOTH",
"100 706 OFFCURVE",
"80 679 OFFCURVE",
"80 641 CURVE SMOOTH",
"80 -2 LINE",
"91 -5 OFFCURVE",
"101 -6 OFFCURVE",
"109 -6 CURVE SMOOTH"
);
},
{
closed = 1;
nodes = (
"517 310 LINE",
"517 386 LINE",
"152 386 LINE",
"152 310 LINE"
);
}
);
width = 668;
}
);
leftKerningGroup = H;
leftMetricsKey = "=|";
note = H;
rightKerningGroup = H;
unicode = 0048;
},
{
glyphname = Hbar;
layers = (
{
components = (
{
name = H;
}
);
layerId = "324B27C4-C4D5-407D-B181-631A50D9203C";
paths = (
{
closed = 1;
nodes = (
"652 500 LINE",
"652 576 LINE",
"16 576 LINE",
"16 500 LINE"
);
}
);
width = 668;
}
);
note = Hbar;
unicode = 0126;
},
{
glyphname = I;
layers = (
{
anchors = (
{
name = bottom;
position = "{126, 0}";
},
{
name = ogonek;
position = "{119, 10}";
},
{
name = top;
position = "{126, 700}";
},
{
name = topleft;
position = "{20, 700}";
}
);
layerId = "324B27C4-C4D5-407D-B181-631A50D9203C";
paths = (
{
closed = 1;
nodes = (
"149 -6 OFFCURVE",
"170 20 OFFCURVE",
"170 59 CURVE SMOOTH",
"170 702 LINE",
"159 705 OFFCURVE",
"148 706 OFFCURVE",
"140 706 CURVE SMOOTH",
"102 706 OFFCURVE",
"82 679 OFFCURVE",
"82 641 CURVE SMOOTH",
"82 -2 LINE",
"93 -5 OFFCURVE",
"103 -6 OFFCURVE",
"111 -6 CURVE SMOOTH"
);
}
);
width = 252;
}
);
leftKerningGroup = I;
leftMetricsKey = "=|";
note = I;
rightKerningGroup = I;
unicode = 0049;
},
{
glyphname = J;
layers = (
{
anchors = (
{
name = bottom;
position = "{171, 0}";
},
{
name = top;
position = "{253, 700}";
}
);
layerId = "324B27C4-C4D5-407D-B181-631A50D9203C";
paths = (
{
closed = 1;
nodes = (
"223 -12 OFFCURVE",
"288 36 OFFCURVE",
"288 157 CURVE SMOOTH",
"288 702 LINE",
"277 705 OFFCURVE",
"266 706 OFFCURVE",
"258 706 CURVE SMOOTH",
"220 706 OFFCURVE",
"200 679 OFFCURVE",
"200 641 CURVE SMOOTH",
"200 157 LINE SMOOTH",
"200 83 OFFCURVE",
"174 69 OFFCURVE",
"139 69 CURVE SMOOTH",
"103 69 OFFCURVE",
"73 84 OFFCURVE",
"51 100 CURVE",
"36 93 OFFCURVE",
"28 79 OFFCURVE",
"28 63 CURVE SMOOTH",
"28 28 OFFCURVE",
"66 -12 OFFCURVE",
"141 -12 CURVE SMOOTH"
);
}
);
width = 364;
}
);
leftKerningGroup = J;
note = J;
rightKerningGroup = J;
unicode = 004A;
},
{
glyphname = K;
layers = (
{
anchors = (
{
name = bottom;
position = "{286, 0}";
},
{
name = top;
position = "{286, 700}";
}
);
layerId = "324B27C4-C4D5-407D-B181-631A50D9203C";
paths = (
{
closed = 1;
nodes = (
"535 700 LINE",
"518 706 OFFCURVE",
"497 708 OFFCURVE",
"485 708 CURVE SMOOTH",
"458 708 OFFCURVE",
"422 691 OFFCURVE",
"397 660 CURVE SMOOTH",
"132 337 LINE",
"132 220 LINE"
);
},
{
closed = 1;
nodes = (
"147 -6 OFFCURVE",
"168 21 OFFCURVE",
"168 59 CURVE SMOOTH",
"168 702 LINE",
"157 705 OFFCURVE",
"146 706 OFFCURVE",
"138 706 CURVE SMOOTH",
"100 706 OFFCURVE",
"80 679 OFFCURVE",
"80 641 CURVE SMOOTH",
"80 -2 LINE",
"91 -5 OFFCURVE",
"101 -6 OFFCURVE",
"110 -6 CURVE SMOOTH"
);
},
{
closed = 1;
nodes = (
"515 -8 OFFCURVE",
"532 -6 OFFCURVE",
"551 1 CURVE",
"551 12 LINE",
"536 18 OFFCURVE",
"516 44 OFFCURVE",
"484 92 CURVE SMOOTH",
"342 305 LINE SMOOTH",
"318 340 OFFCURVE",
"293 357 OFFCURVE",
"260 357 CURVE SMOOTH",
"246 357 OFFCURVE",
"229 355 OFFCURVE",
"214 352 CURVE",
"425 32 LINE SMOOTH",
"442 6 OFFCURVE",
"468 -8 OFFCURVE",
"499 -8 CURVE SMOOTH"
);
}
);
width = 559;
}
);
leftKerningGroup = H;
leftMetricsKey = H;
note = K;
rightKerningGroup = K;
unicode = 004B;
},
{
glyphname = L;
layers = (
{
anchors = (
{
name = bottom;
position = "{257, 0}";
},
{
name = center;
position = "{317, 350}";
},
{
name = top;
position = "{137, 700}";
},
{
name = topright;
position = "{474, 700}";
}
);
layerId = "324B27C4-C4D5-407D-B181-631A50D9203C";
paths = (
{
closed = 1;
nodes = (
"415 0 LINE SMOOTH",
"448 0 OFFCURVE",
"472 17 OFFCURVE",
"472 50 CURVE SMOOTH",
"472 57 OFFCURVE",
"471 67 OFFCURVE",
"468 76 CURVE",
"119 76 LINE",
"130 34 LINE",
"169 76 OFFCURVE",
"172 127 OFFCURVE",
"172 177 CURVE SMOOTH",
"172 702 LINE",
"161 705 OFFCURVE",
"150 706 OFFCURVE",
"142 706 CURVE SMOOTH",
"104 706 OFFCURVE",
"84 679 OFFCURVE",
"84 641 CURVE SMOOTH",
"84 177 LINE SMOOTH",
"84 98 OFFCURVE",
"76 62 OFFCURVE",
"42 21 CURVE",
"50 0 LINE"
);
}
);
width = 494;
}
);
leftKerningGroup = F;
leftMetricsKey = F;
note = L;
rightKerningGroup = L;
unicode = 004C;
},
{
glyphname = Lslash;
layers = (
{
components = (
{
name = L;
}
);
layerId = "324B27C4-C4D5-407D-B181-631A50D9203C";
paths = (
{
closed = 1;
nodes = (
"350 440 LINE",
"350 500 LINE",
"0 380 LINE",
"0 320 LINE"
);
}
);
width = 494;
}
);
note = Lslash;
rightMetricsKey = L;
unicode = 0141;
},
{
glyphname = M;
layers = (
{
anchors = (
{
name = bottom;
position = "{391, 0}";
},
{
name = top;
position = "{391, 700}";
}
);
layerId = "324B27C4-C4D5-407D-B181-631A50D9203C";
paths = (
{
closed = 1;
nodes = (
"146 -8 OFFCURVE",
"166 19 OFFCURVE",
"166 57 CURVE SMOOTH",
"166 554 LINE",
"378 70 LINE",
"410 70 LINE",
"594 490 LINE SMOOTH",
"630 572 OFFCURVE",
"638 586 OFFCURVE",
"653 599 CURVE",
"649 634 LINE",
"624 592 OFFCURVE",
"622 550 OFFCURVE",
"622 500 CURVE SMOOTH",
"622 -3 LINE",
"632 -7 OFFCURVE",
"643 -8 OFFCURVE",
"651 -8 CURVE SMOOTH",
"689 -8 OFFCURVE",
"708 19 OFFCURVE",
"708 57 CURVE SMOOTH",
"708 534 LINE SMOOTH",
"708 614 OFFCURVE",
"715 648 OFFCURVE",
"740 686 CURVE",
"734 704 LINE",
"711 704 OFFCURVE",
"686 710 OFFCURVE",
"662 710 CURVE SMOOTH",
"619 710 OFFCURVE",
"594 691 OFFCURVE",
"567 629 CURVE SMOOTH",
"394 234 LINE",
"189 701 LINE",
"176 707 OFFCURVE",
"161 708 OFFCURVE",
"152 708 CURVE SMOOTH",
"105 708 OFFCURVE",
"80 678 OFFCURVE",
"80 622 CURVE SMOOTH",
"80 -3 LINE",
"90 -7 OFFCURVE",
"101 -8 OFFCURVE",
"109 -8 CURVE SMOOTH"
);
}
);
width = 782;
}
);
leftKerningGroup = H;
leftMetricsKey = H;
note = M;
rightKerningGroup = M;
unicode = 004D;
},
{
glyphname = N;
layers = (
{
anchors = (
{
name = bottom;
position = "{340, 0}";
},
{
name = top;
position = "{340, 700}";
}
);
layerId = "324B27C4-C4D5-407D-B181-631A50D9203C";
paths = (
{
closed = 1;
nodes = (
"146 -8 OFFCURVE",
"166 19 OFFCURVE",
"166 57 CURVE SMOOTH",
"166 570 LINE",
"471 -1 LINE",
"484 -7 OFFCURVE",
"499 -8 OFFCURVE",
"508 -8 CURVE SMOOTH",
"555 -8 OFFCURVE",
"580 22 OFFCURVE",
"580 78 CURVE SMOOTH",
"580 703 LINE",
"570 707 OFFCURVE",
"559 708 OFFCURVE",
"551 708 CURVE SMOOTH",
"514 708 OFFCURVE",
"494 681 OFFCURVE",
"494 643 CURVE SMOOTH",
"494 130 LINE",
"189 701 LINE",
"176 707 OFFCURVE",
"161 708 OFFCURVE",
"152 708 CURVE SMOOTH",
"105 708 OFFCURVE",
"80 678 OFFCURVE",
"80 622 CURVE SMOOTH",
"80 -3 LINE",
"90 -7 OFFCURVE",
"101 -8 OFFCURVE",
"109 -8 CURVE SMOOTH"
);
}
);
width = 660;
}
);
leftKerningGroup = H;
leftMetricsKey = "=|";
note = N;
rightKerningGroup = H;
rightMetricsKey = H;
unicode = 004E;
},
{
glyphname = Eng;
lastChange = "2018-03-12 19:44:16 +0000";
layers = (
{
anchors = (
{
name = bottom;
position = "{340, 0}";
},
{
name = top;
position = "{340, 700}";
}
);
layerId = "324B27C4-C4D5-407D-B181-631A50D9203C";
paths = (
{
closed = 1;
nodes = (
"529 -262 OFFCURVE",
"580 -201 OFFCURVE",
"580 -106 CURVE SMOOTH",
"580 703 LINE",
"570 707 OFFCURVE",
"559 708 OFFCURVE",
"551 708 CURVE SMOOTH",
"514 708 OFFCURVE",
"494 681 OFFCURVE",
"494 643 CURVE SMOOTH",
"494 130 LINE",
"189 701 LINE",
"176 707 OFFCURVE",
"161 708 OFFCURVE",
"152 708 CURVE SMOOTH",
"105 708 OFFCURVE",
"80 678 OFFCURVE",
"80 622 CURVE SMOOTH",
"80 -3 LINE",
"90 -7 OFFCURVE",
"101 -8 OFFCURVE",
"109 -8 CURVE SMOOTH",
"146 -8 OFFCURVE",
"166 19 OFFCURVE",
"166 57 CURVE SMOOTH",
"166 570 LINE",
"471 -1 LINE",
"479 -5 OFFCURVE",
"487 -6 OFFCURVE",
"495 -7 CURVE",
"495 -106 LINE SMOOTH",
"495 -158 OFFCURVE",
"475 -187 OFFCURVE",
"436 -187 CURVE SMOOTH",
"419 -187 OFFCURVE",
"400 -184 OFFCURVE",
"382 -177 CURVE",
"368 -182 OFFCURVE",
"359 -196 OFFCURVE",
"359 -213 CURVE SMOOTH",
"359 -243 OFFCURVE",
"393 -262 OFFCURVE",
"446 -262 CURVE SMOOTH"
);
}
);
width = 660;
}
);
leftMetricsKey = N;
note = Eng;
rightMetricsKey = N;
unicode = 014A;
},
{
glyphname = O;
layers = (
{
anchors = (
{
name = bottom;
position = "{371, 0}";
},
{
name = center;
position = "{371, 350}";
},
{
name = ogonek;
position = "{446, 10}";
},
{
name = top;
position = "{371, 700}";
},
{
name = topleft;
position = "{20, 700}";
},
{
name = topright;
position = "{597, 510}";
}
);
layerId = "324B27C4-C4D5-407D-B181-631A50D9203C";
paths = (
{
closed = 1;
nodes = (
"568 -12 OFFCURVE",
"696 128 OFFCURVE",
"696 351 CURVE SMOOTH",
"696 574 OFFCURVE",
"568 714 OFFCURVE",
"370 714 CURVE SMOOTH",
"171 714 OFFCURVE",
"46 572 OFFCURVE",
"46 351 CURVE SMOOTH",
"46 130 OFFCURVE",
"171 -12 OFFCURVE",
"370 -12 CURVE SMOOTH"
);
},
{
closed = 1;
nodes = (
"227 62 OFFCURVE",
"138 175 OFFCURVE",
"138 351 CURVE SMOOTH",
"138 527 OFFCURVE",
"227 640 OFFCURVE",
"370 640 CURVE SMOOTH",
"512 640 OFFCURVE",
"604 529 OFFCURVE",
"604 351 CURVE SMOOTH",
"604 173 OFFCURVE",
"512 62 OFFCURVE",
"370 62 CURVE SMOOTH"
);
}
);
width = 742;
}
);
leftKerningGroup = O;
note = O;
rightKerningGroup = O;
unicode = 004F;
},
{
glyphname = Oslash;
layers = (
{
components = (
{
name = O;
}
);
layerId = "324B27C4-C4D5-407D-B181-631A50D9203C";
paths = (
{
closed = 1;
nodes = (
"205 -60 LINE",
"621 760 LINE",
"561 760 LINE",
"145 -60 LINE"
);
}
);
width = 742;
}
);
leftMetricsKey = O;
note = Oslash;
rightMetricsKey = O;
unicode = 00D8;
},
{
glyphname = OE;
lastChange = "2018-03-12 19:44:16 +0000";
layers = (
{
anchors = (
{
name = bottom;
position = "{524, 0}";
},
{
name = top;
position = "{524, 700}";
}
);
layerId = "324B27C4-C4D5-407D-B181-631A50D9203C";
paths = (
{
closed = 1;
nodes = (
"476 -12 OFFCURVE",
"556 28 OFFCURVE",
"608 100 CURVE",
"602 68 OFFCURVE",
"591 46 OFFCURVE",
"571 21 CURVE",
"579 0 LINE",
"960 0 LINE SMOOTH",
"993 0 OFFCURVE",
"1017 17 OFFCURVE",
"1017 50 CURVE SMOOTH",
"1017 57 OFFCURVE",
"1016 67 OFFCURVE",
"1013 76 CURVE",
"686 76 LINE",
"700 108 OFFCURVE",
"701 143 OFFCURVE",
"701 177 CURVE SMOOTH",
"701 320 LINE",
"912 320 LINE SMOOTH",
"945 320 OFFCURVE",
"969 337 OFFCURVE",
"969 370 CURVE SMOOTH",
"969 377 OFFCURVE",
"968 387 OFFCURVE",
"965 396 CURVE",
"701 396 LINE",
"701 523 LINE SMOOTH",
"701 557 OFFCURVE",
"700 592 OFFCURVE",
"686 624 CURVE",
"944 624 LINE SMOOTH",
"977 624 OFFCURVE",
"1001 641 OFFCURVE",
"1001 674 CURVE SMOOTH",
"1001 681 OFFCURVE",
"1000 691 OFFCURVE",
"997 700 CURVE",
"579 700 LINE",
"571 679 LINE",
"591 655 OFFCURVE",
"602 633 OFFCURVE",
"608 603 CURVE",
"556 674 OFFCURVE",
"476 714 OFFCURVE",
"370 714 CURVE SMOOTH",
"171 714 OFFCURVE",
"46 572 OFFCURVE",
"46 351 CURVE SMOOTH",
"46 130 OFFCURVE",
"171 -12 OFFCURVE",
"370 -12 CURVE SMOOTH"
);
},
{
closed = 1;
nodes = (
"227 62 OFFCURVE",
"138 175 OFFCURVE",
"138 351 CURVE SMOOTH",
"138 527 OFFCURVE",
"227 640 OFFCURVE",
"370 640 CURVE SMOOTH",
"512 640 OFFCURVE",
"604 529 OFFCURVE",
"604 351 CURVE SMOOTH",
"604 173 OFFCURVE",
"512 62 OFFCURVE",
"370 62 CURVE SMOOTH"
);
}
);
width = 1047;
}
);
leftMetricsKey = O;
note = OE;
rightMetricsKey = E;
unicode = 0152;
},
{
glyphname = P;
layers = (
{
anchors = (
{
name = bottom;
position = "{127, 0}";
},
{
name = top;
position = "{270, 700}";
}
);
layerId = "324B27C4-C4D5-407D-B181-631A50D9203C";
paths = (
{
closed = 1;
nodes = (
"151 -6 OFFCURVE",
"172 20 OFFCURVE",
"172 59 CURVE SMOOTH",
"172 514 LINE SMOOTH",
"172 573 OFFCURVE",
"169 635 OFFCURVE",
"130 677 CURVE",
"119 632 LINE",
"169 632 OFFCURVE",
"210 640 OFFCURVE",
"255 640 CURVE SMOOTH",
"369 640 OFFCURVE",
"422 589 OFFCURVE",
"422 498 CURVE SMOOTH",
"422 403 OFFCURVE",
"363 356 OFFCURVE",
"258 356 CURVE SMOOTH",
"156 356 LINE",
"156 284 LINE",
"260 284 LINE SMOOTH",
"414 284 OFFCURVE",
"512 367 OFFCURVE",
"512 498 CURVE SMOOTH",
"512 630 OFFCURVE",
"411 714 OFFCURVE",
"244 714 CURVE SMOOTH",
"186 714 OFFCURVE",
"120 704 OFFCURVE",
"50 704 CURVE",
"42 683 LINE",
"76 642 OFFCURVE",
"84 602 OFFCURVE",
"84 514 CURVE SMOOTH",
"84 -2 LINE",
"95 -5 OFFCURVE",
"105 -6 OFFCURVE",
"113 -6 CURVE SMOOTH"
);
}
);
width = 540;
}
);
leftKerningGroup = F;
leftMetricsKey = F;
note = P;
rightKerningGroup = P;
unicode = 0050;
},
{
glyphname = Thorn;
layers = (
{
layerId = "324B27C4-C4D5-407D-B181-631A50D9203C";
paths = (
{
closed = 1;
nodes = (
"289 160 LINE SMOOTH",
"425 160 OFFCURVE",
"512 238 OFFCURVE",
"512 360 CURVE SMOOTH",
"512 482 OFFCURVE",
"425 560 OFFCURVE",
"289 560 CURVE SMOOTH",
"152 560 LINE",
"152 486 LINE",
"286 486 LINE SMOOTH",
"373 486 OFFCURVE",
"422 441 OFFCURVE",
"422 360 CURVE SMOOTH",
"422 279 OFFCURVE",
"373 234 OFFCURVE",
"286 234 CURVE SMOOTH",
"152 234 LINE",
"152 160 LINE"
);
},
{
closed = 1;
nodes = (
"147 -6 OFFCURVE",
"168 20 OFFCURVE",
"168 59 CURVE SMOOTH",
"168 716 LINE",
"157 719 OFFCURVE",
"146 720 OFFCURVE",
"138 720 CURVE SMOOTH",
"100 720 OFFCURVE",
"80 693 OFFCURVE",
"80 655 CURVE SMOOTH",
"80 -2 LINE",
"91 -5 OFFCURVE",
"101 -6 OFFCURVE",
"109 -6 CURVE SMOOTH"
);
}
);
width = 540;
}
);
leftMetricsKey = H;
note = Thorn;
rightMetricsKey = P;
unicode = 00DE;
},
{
glyphname = Q;
layers = (
{
anchors = (
{
name = bottom;
position = "{371, -161}";
},
{
name = top;
position = "{371, 700}";
}
);
layerId = "324B27C4-C4D5-407D-B181-631A50D9203C";
paths = (
{
closed = 1;
nodes = (
"568 -12 OFFCURVE",
"696 128 OFFCURVE",
"696 351 CURVE SMOOTH",
"696 574 OFFCURVE",
"568 714 OFFCURVE",
"370 714 CURVE SMOOTH",
"171 714 OFFCURVE",
"46 572 OFFCURVE",
"46 351 CURVE SMOOTH",
"46 130 OFFCURVE",
"171 -12 OFFCURVE",
"370 -12 CURVE SMOOTH"
);
},
{
closed = 1;
nodes = (
"227 62 OFFCURVE",
"138 175 OFFCURVE",
"138 351 CURVE SMOOTH",
"138 527 OFFCURVE",
"227 640 OFFCURVE",
"370 640 CURVE SMOOTH",
"512 640 OFFCURVE",
"604 529 OFFCURVE",
"604 351 CURVE SMOOTH",
"604 173 OFFCURVE",
"512 62 OFFCURVE",
"370 62 CURVE SMOOTH"
);
},
{
closed = 1;
nodes = (
"613 -168 OFFCURVE",
"632 -151 OFFCURVE",
"632 -114 CURVE",
"559 -104 OFFCURVE",
"461 -73 OFFCURVE",
"330 12 CURVE",
"165 56 LINE",
"341 -94 OFFCURVE",
"486 -168 OFFCURVE",
"572 -168 CURVE SMOOTH"
);
}
);
width = 742;
}
);
leftKerningGroup = O;
leftMetricsKey = O;
note = Q;
rightKerningGroup = O;
rightMetricsKey = O;
unicode = 0051;
},
{
glyphname = R;
layers = (
{
anchors = (
{
name = bottom;
position = "{288, 0}";
},
{
name = top;
position = "{258, 700}";
}
);
layerId = "324B27C4-C4D5-407D-B181-631A50D9203C";
paths = (
{
closed = 1;
nodes = (
"151 -6 OFFCURVE",
"172 20 OFFCURVE",
"172 59 CURVE SMOOTH",
"172 514 LINE SMOOTH",
"172 573 OFFCURVE",
"169 635 OFFCURVE",
"130 677 CURVE",
"119 632 LINE",
"167 632 OFFCURVE",
"214 640 OFFCURVE",
"258 640 CURVE SMOOTH",
"370 640 OFFCURVE",
"422 589 OFFCURVE",
"422 507 CURVE SMOOTH",
"422 419 OFFCURVE",
"363 372 OFFCURVE",
"265 372 CURVE SMOOTH",
"156 372 LINE",
"156 300 LINE",
"267 300 LINE SMOOTH",
"414 300 OFFCURVE",
"512 383 OFFCURVE",
"512 506 CURVE SMOOTH",
"512 630 OFFCURVE",
"413 714 OFFCURVE",
"247 714 CURVE SMOOTH",
"190 714 OFFCURVE",
"118 704 OFFCURVE",
"50 704 CURVE",
"42 683 LINE",
"76 642 OFFCURVE",
"84 602 OFFCURVE",
"84 514 CURVE SMOOTH",
"84 -2 LINE",
"95 -5 OFFCURVE",
"105 -6 OFFCURVE",
"113 -6 CURVE SMOOTH"
);
},
{
closed = 1;
nodes = (
"520 -6 OFFCURVE",
"538 -3 OFFCURVE",
"554 3 CURVE",
"554 12 LINE",
"531 29 OFFCURVE",
"520 57 OFFCURVE",
"475 172 CURVE SMOOTH",
"432 282 OFFCURVE",
"407 318 OFFCURVE",
"332 332 CURVE",
"234 321 LINE",
"328 297 OFFCURVE",
"346 261 OFFCURVE",
"391 145 CURVE SMOOTH",
"435 30 OFFCURVE",
"450 -6 OFFCURVE",
"504 -6 CURVE SMOOTH"
);
}
);
width = 576;
}
);
leftKerningGroup = F;
leftMetricsKey = F;
note = R;
rightKerningGroup = R;
unicode = 0052;
},
{
glyphname = S;
layers = (
{
anchors = (
{
name = bottom;
position = "{278, 0}";
},
{
name = top;
position = "{278, 700}";
}
);
layerId = "324B27C4-C4D5-407D-B181-631A50D9203C";
paths = (
{
closed = 1;
nodes = (
"400 -12 OFFCURVE",
"516 35 OFFCURVE",
"516 186 CURVE SMOOTH",
"516 319 OFFCURVE",
"425 353 OFFCURVE",
"292 402 CURVE SMOOTH",
"209 433 OFFCURVE",
"144 458 OFFCURVE",
"144 538 CURVE SMOOTH",
"144 603 OFFCURVE",
"187 640 OFFCURVE",
"273 640 CURVE SMOOTH",
"369 640 OFFCURVE",
"424 594 OFFCURVE",
"463 533 CURVE",
"494 542 OFFCURVE",
"500 566 OFFCURVE",
"500 584 CURVE SMOOTH",
"500 655 OFFCURVE",
"409 714 OFFCURVE",
"278 714 CURVE SMOOTH",
"142 714 OFFCURVE",
"62 651 OFFCURVE",
"62 530 CURVE SMOOTH",
"62 405 OFFCURVE",
"148 363 OFFCURVE",
"266 322 CURVE SMOOTH",
"372 285 OFFCURVE",
"432 262 OFFCURVE",
"432 181 CURVE SMOOTH",
"432 101 OFFCURVE",
"374 62 OFFCURVE",
"280 62 CURVE SMOOTH",
"177 62 OFFCURVE",
"114 109 OFFCURVE",
"75 169 CURVE",
"44 160 OFFCURVE",
"38 136 OFFCURVE",
"38 119 CURVE SMOOTH",
"38 47 OFFCURVE",
"139 -12 OFFCURVE",
"277 -12 CURVE SMOOTH"
);
}
);
width = 556;
}
);
leftKerningGroup = S;
note = S;
rightKerningGroup = S;
unicode = 0053;
},
{
glyphname = Germandbls;
layers = (
{
layerId = "324B27C4-C4D5-407D-B181-631A50D9203C";
paths = (
{
closed = 1;
nodes = (
"551 -10 OFFCURVE",
"619 88 OFFCURVE",
"619 199 CURVE SMOOTH",
"619 311 OFFCURVE",
"549 389 OFFCURVE",
"398 403 CURVE",
"566 541 LINE",
"525 650 OFFCURVE",
"459 714 OFFCURVE",
"320 714 CURVE SMOOTH",
"152 714 OFFCURVE",
"77 621 OFFCURVE",
"77 474 CURVE SMOOTH",
"77 -2 LINE",
"88 -5 OFFCURVE",
"98 -6 OFFCURVE",
"106 -6 CURVE SMOOTH",
"144 -6 OFFCURVE",
"165 20 OFFCURVE",
"165 59 CURVE SMOOTH",
"165 489 LINE SMOOTH",
"165 599 OFFCURVE",
"221 640 OFFCURVE",
"319 640 CURVE SMOOTH",
"405 640 OFFCURVE",
"453 608 OFFCURVE",
"471 549 CURVE",
"289 399 LINE",
"289 332 LINE",
"351 332 LINE SMOOTH",
"464 332 OFFCURVE",
"527 285 OFFCURVE",
"527 203 CURVE SMOOTH",
"527 128 OFFCURVE",
"473 56 OFFCURVE",
"377 56 CURVE SMOOTH",
"319 56 OFFCURVE",
"266 85 OFFCURVE",
"245 131 CURVE",
"227 121 OFFCURVE",
"222 101 OFFCURVE",
"222 84 CURVE SMOOTH",
"222 14 OFFCURVE",
"303 -10 OFFCURVE",
"386 -10 CURVE SMOOTH"
);
}
);
width = 661;
}
);
note = uni1E9E;
rightMetricsKey = B;
unicode = 1E9E;
},
{
glyphname = Schwa;
lastChange = "2018-03-12 19:44:16 +0000";
layers = (
{
layerId = "324B27C4-C4D5-407D-B181-631A50D9203C";
paths = (
{
closed = 1;
nodes = (
"492 -12 OFFCURVE",
"609 132 OFFCURVE",
"609 353 CURVE SMOOTH",
"609 574 OFFCURVE",
"492 711 OFFCURVE",
"306 711 CURVE SMOOTH",
"176 711 OFFCURVE",
"58 648 OFFCURVE",
"58 576 CURVE SMOOTH",
"58 556 OFFCURVE",
"67 531 OFFCURVE",
"97 520 CURVE",
"135 583 OFFCURVE",
"211 632 OFFCURVE",
"304 632 CURVE SMOOTH",
"434 632 OFFCURVE",
"514 523 OFFCURVE",
"514 376 CURVE",
"43 376 LINE",
"36 355 OFFCURVE",
"34 345 OFFCURVE",
"34 318 CURVE SMOOTH",
"34 120 OFFCURVE",
"127 -12 OFFCURVE",
"306 -12 CURVE SMOOTH"
);
},
{
closed = 1;
nodes = (
"186 62 OFFCURVE",
"129 158 OFFCURVE",
"125 299 CURVE",
"512 300 LINE",
"493 160 OFFCURVE",
"428 62 OFFCURVE",
"307 62 CURVE SMOOTH"
);
}
);
width = 645;
}
);
note = uni018F;
unicode = 018F;
},
{
glyphname = T;
layers = (
{
anchors = (
{
name = bottom;
position = "{256, 10}";
},
{
name = center;
position = "{256, 350}";
},
{
name = top;
position = "{256, 700}";
}
);
layerId = "324B27C4-C4D5-407D-B181-631A50D9203C";
paths = (
{
closed = 1;
nodes = (
"279 -6 OFFCURVE",
"300 20 OFFCURVE",
"300 59 CURVE SMOOTH",
"300 640 LINE",
"212 640 LINE",
"212 -2 LINE",
"223 -5 OFFCURVE",
"233 -6 OFFCURVE",
"241 -6 CURVE SMOOTH"
);
},
{
closed = 1;
nodes = (
"433 624 LINE SMOOTH",
"466 624 OFFCURVE",
"490 641 OFFCURVE",
"490 674 CURVE SMOOTH",
"490 681 OFFCURVE",
"489 691 OFFCURVE",
"486 700 CURVE",
"79 700 LINE SMOOTH",
"46 700 OFFCURVE",
"22 683 OFFCURVE",
"22 650 CURVE SMOOTH",
"22 643 OFFCURVE",
"23 633 OFFCURVE",
"26 624 CURVE"
);
}
);
width = 512;
}
);
leftKerningGroup = T;
note = T;
rightKerningGroup = T;
unicode = 0054;
},
{
glyphname = Tbar;
layers = (
{
components = (
{
name = T;
}
);
layerId = "324B27C4-C4D5-407D-B181-631A50D9203C";
paths = (
{
closed = 1;
nodes = (
"444 319 LINE",
"444 369 LINE",
"68 369 LINE",
"68 319 LINE"
);
}
);
width = 566;
}
);
leftKerningGroup = T;
note = Tbar;
rightKerningGroup = T;
unicode = 0166;
},
{
glyphname = U;
layers = (
{
anchors = (
{
name = bottom;
position = "{318, 0}";
},
{
name = ogonek;
position = "{356, 10}";
},
{
name = top;
position = "{318, 700}";
},
{
name = topright;
position = "{562, 510}";
}
);
layerId = "324B27C4-C4D5-407D-B181-631A50D9203C";
paths = (
{
closed = 1;
nodes = (
"467 -12 OFFCURVE",
"562 95 OFFCURVE",
"562 264 CURVE SMOOTH",
"562 706 LINE",
"551 709 OFFCURVE",
"540 710 OFFCURVE",
"532 710 CURVE SMOOTH",
"494 710 OFFCURVE",
"474 683 OFFCURVE",
"474 645 CURVE SMOOTH",
"474 280 LINE SMOOTH",
"474 141 OFFCURVE",
"418 64 OFFCURVE",
"318 64 CURVE SMOOTH",
"218 64 OFFCURVE",
"162 141 OFFCURVE",
"162 280 CURVE SMOOTH",
"162 706 LINE",
"151 709 OFFCURVE",
"140 710 OFFCURVE",
"132 710 CURVE SMOOTH",
"94 710 OFFCURVE",
"74 683 OFFCURVE",
"74 645 CURVE SMOOTH",
"74 264 LINE SMOOTH",
"74 95 OFFCURVE",
"169 -12 OFFCURVE",
"318 -12 CURVE SMOOTH"
);
}
);
width = 636;
}
);
leftKerningGroup = U;
leftMetricsKey = "=|";
note = U;
rightKerningGroup = U;
unicode = 0055;
},
{
glyphname = V;
layers = (
{
anchors = (
{
name = bottom;
position = "{286, 0}";
},
{
name = top;
position = "{286, 700}";
}
);
layerId = "324B27C4-C4D5-407D-B181-631A50D9203C";
paths = (
{
closed = 1;
nodes = (
"303 0 LINE",
"549 698 LINE",
"535 704 OFFCURVE",
"519 706 OFFCURVE",
"509 706 CURVE SMOOTH",
"480 706 OFFCURVE",
"463 691 OFFCURVE",
"451 658 CURVE SMOOTH",
"275 159 LINE",
"81 708 LINE",
"36 708 OFFCURVE",
"11 675 OFFCURVE",
"26 630 CURVE SMOOTH",
"247 0 LINE"
);
}
);
width = 571;
}
);
leftKerningGroup = V;
note = V;
rightKerningGroup = V;
unicode = 0056;
},
{
glyphname = W;
layers = (
{
anchors = (
{
name = bottom;
position = "{418, 0}";
},
{
name = top;
position = "{418, 700}";
}
);
layerId = "324B27C4-C4D5-407D-B181-631A50D9203C";
paths = (
{
closed = 1;
nodes = (
"251 0 LINE",
"410 574 LINE",
"566 0 LINE",
"622 0 LINE",
"812 698 LINE",
"798 704 OFFCURVE",
"782 706 OFFCURVE",
"772 706 CURVE SMOOTH",
"743 706 OFFCURVE",
"728 690 OFFCURVE",
"719 656 CURVE SMOOTH",
"590 184 LINE",
"457 700 LINE",
"446 704 OFFCURVE",
"435 706 OFFCURVE",
"425 706 CURVE SMOOTH",
"392 706 OFFCURVE",
"360 689 OFFCURVE",
"348 644 CURVE SMOOTH",
"227 184 LINE",
"85 708 LINE",
"30 708 OFFCURVE",
"12 676 OFFCURVE",
"32 603 CURVE SMOOTH",
"195 0 LINE"
);
}
);
width = 836;
}
);
leftKerningGroup = V;
note = W;
rightKerningGroup = V;
unicode = 0057;
},
{
glyphname = X;
layers = (
{
anchors = (
{
name = bottom;
position = "{294, 0}";
},
{
name = top;
position = "{294, 700}";
}
);
layerId = "324B27C4-C4D5-407D-B181-631A50D9203C";
paths = (
{
closed = 1;
nodes = (
"115 -6 OFFCURVE",
"132 13 OFFCURVE",
"154 51 CURVE SMOOTH",
"535 699 LINE",
"518 706 OFFCURVE",
"499 708 OFFCURVE",
"489 708 CURVE SMOOTH",
"460 708 OFFCURVE",
"442 691 OFFCURVE",
"419 652 CURVE SMOOTH",
"36 3 LINE",
"47 -2 OFFCURVE",
"66 -6 OFFCURVE",
"81 -6 CURVE SMOOTH"
);
},
{
closed = 1;
nodes = (
"546 -6 OFFCURVE",
"569 31 OFFCURVE",
"534 83 CURVE SMOOTH",
"121 708 LINE",
"68 708 OFFCURVE",
"46 674 OFFCURVE",
"76 629 CURVE SMOOTH",
"494 -6 LINE"
);
}
);
width = 587;
}
);
leftKerningGroup = X;
note = X;
rightKerningGroup = X;
unicode = 0058;
},
{
glyphname = Y;
layers = (
{
anchors = (
{
name = bottom;
position = "{251, 0}";
},
{
name = top;
position = "{256, 700}";
},
{
name = topleft;
position = "{0, 700}";
}
);
layerId = "324B27C4-C4D5-407D-B181-631A50D9203C";
paths = (
{
closed = 1;
nodes = (
"274 -6 OFFCURVE",
"295 20 OFFCURVE",
"295 59 CURVE SMOOTH",
"295 288 LINE",
"505 695 LINE",
"489 705 OFFCURVE",
"474 708 OFFCURVE",
"460 708 CURVE SMOOTH",
"432 708 OFFCURVE",
"411 694 OFFCURVE",
"389 650 CURVE SMOOTH",
"251 371 LINE",
"77 706 LINE",
"15 706 OFFCURVE",
"-3 677 OFFCURVE",
"30 615 CURVE SMOOTH",
"207 288 LINE",
"207 -2 LINE",
"218 -5 OFFCURVE",
"228 -6 OFFCURVE",
"236 -6 CURVE SMOOTH"
);
}
);
width = 519;
}
);
leftKerningGroup = Y;
note = Y;
rightKerningGroup = Y;
unicode = 0059;
},
{
glyphname = Z;
layers = (
{
anchors = (
{
name = bottom;
position = "{262, 0}";
},
{
name = top;
position = "{262, 700}";
}
);
layerId = "324B27C4-C4D5-407D-B181-631A50D9203C";
paths = (
{
closed = 1;
nodes = (
"435 0 LINE SMOOTH",
"468 0 OFFCURVE",
"492 17 OFFCURVE",
"492 50 CURVE SMOOTH",
"492 57 OFFCURVE",
"491 67 OFFCURVE",
"488 76 CURVE",
"136 76 LINE",
"484 668 LINE",
"484 700 LINE",
"91 700 LINE SMOOTH",
"58 700 OFFCURVE",
"34 683 OFFCURVE",
"34 650 CURVE SMOOTH",
"34 643 OFFCURVE",
"35 633 OFFCURVE",
"38 624 CURVE",
"366 624 LINE",
"18 32 LINE",
"18 0 LINE"
);
}
);
width = 514;
}
);
leftKerningGroup = Z;
note = Z;
rightKerningGroup = Z;
unicode = 005A;
},
{
glyphname = a;
layers = (
{
anchors = (
{
name = bottom;
position = "{233, 0}";
},
{
name = ogonek;
position = "{393, 13}";
},
{
name = top;
position = "{233, 510}";
}
);
layerId = "324B27C4-C4D5-407D-B181-631A50D9203C";
paths = (
{
closed = 1;
nodes = (
"275 -12 OFFCURVE",
"315 8 OFFCURVE",
"344 50 CURVE",
"344 -2 LINE",
"355 -5 OFFCURVE",
"364 -6 OFFCURVE",
"371 -6 CURVE SMOOTH",
"407 -6 OFFCURVE",
"426 19 OFFCURVE",
"426 55 CURVE SMOOTH",
"426 330 LINE SMOOTH",
"426 447 OFFCURVE",
"359 521 OFFCURVE",
"229 521 CURVE SMOOTH",
"145 521 OFFCURVE",
"54 490 OFFCURVE",
"54 427 CURVE SMOOTH",
"54 412 OFFCURVE",
"59 391 OFFCURVE",
"87 381 CURVE",
"122 428 OFFCURVE",
"165 455 OFFCURVE",
"225 455 CURVE SMOOTH",
"303 455 OFFCURVE",
"346 410 OFFCURVE",
"346 330 CURVE SMOOTH",
"346 282 LINE",
"319 299 OFFCURVE",
"287 313 OFFCURVE",
"235 313 CURVE SMOOTH",
"119 313 OFFCURVE",
"46 246 OFFCURVE",
"46 145 CURVE SMOOTH",
"46 49 OFFCURVE",
"111 -12 OFFCURVE",
"215 -12 CURVE SMOOTH"
);
},
{
closed = 1;
nodes = (
"164 52 OFFCURVE",
"128 85 OFFCURVE",
"128 146 CURVE SMOOTH",
"128 213 OFFCURVE",
"171 251 OFFCURVE",
"246 251 CURVE SMOOTH",
"311 251 OFFCURVE",
"346 223 OFFCURVE",
"346 177 CURVE SMOOTH",
"346 152 LINE SMOOTH",
"346 90 OFFCURVE",
"297 52 OFFCURVE",
"228 52 CURVE SMOOTH"
);
}
);
width = 486;
}
);
leftKerningGroup = a;
note = a;
rightKerningGroup = n;
rightMetricsKey = n;
unicode = 0061;
},
{
glyphname = "alpha-latin";
layers = (
{
layerId = "324B27C4-C4D5-407D-B181-631A50D9203C";
paths = (
{
closed = 1;
nodes = (
"329 -11 OFFCURVE",
"379 21 OFFCURVE",
"416 77 CURVE",
"417 -6 LINE",
"428 -9 OFFCURVE",
"438 -10 OFFCURVE",
"446 -10 CURVE",
"484 -10 OFFCURVE",
"494 16 OFFCURVE",
"494 55 CURVE SMOOTH",
"494 306 LINE SMOOTH",
"494 438 OFFCURVE",
"397 522 OFFCURVE",
"273 522 CURVE SMOOTH",
"118 522 OFFCURVE",
"36 403 OFFCURVE",
"36 246 CURVE SMOOTH",
"36 79 OFFCURVE",
"130 -11 OFFCURVE",
"259 -11 CURVE SMOOTH"
);
},
{
closed = 1;
nodes = (
"174 59 OFFCURVE",
"120 111 OFFCURVE",
"120 243 CURVE SMOOTH",
"120 371 OFFCURVE",
"171 451 OFFCURVE",
"278 451 CURVE SMOOTH",
"357 451 OFFCURVE",
"414 400 OFFCURVE",
"414 307 CURVE SMOOTH",
"414 255 LINE SMOOTH",
"414 129 OFFCURVE",
"355 59 OFFCURVE",
"261 59 CURVE SMOOTH"
);
}
);
width = 572;
}
);
leftKerningGroup = a;
note = ascript;
rightKerningGroup = a;
unicode = 0251;
},
{
glyphname = ae;
lastChange = "2018-03-12 19:44:16 +0000";
layers = (
{
anchors = (
{
name = bottom;
position = "{389, 0}";
},
{
name = top;
position = "{391, 510}";
}
);
layerId = "324B27C4-C4D5-407D-B181-631A50D9203C";
paths = (
{
closed = 1;
nodes = (
"300 -12 OFFCURVE",
"359 25 OFFCURVE",
"389 89 CURVE",
"423 24 OFFCURVE",
"487 -12 OFFCURVE",
"571 -12 CURVE SMOOTH",
"659 -12 OFFCURVE",
"754 34 OFFCURVE",
"754 89 CURVE SMOOTH",
"754 104 OFFCURVE",
"749 125 OFFCURVE",
"724 134 CURVE",
"693 87 OFFCURVE",
"637 54 OFFCURVE",
"569 54 CURVE SMOOTH",
"478 54 OFFCURVE",
"420 121 OFFCURVE",
"420 227 CURVE",
"765 227 LINE",
"770 243 OFFCURVE",
"772 259 OFFCURVE",
"772 275 CURVE SMOOTH",
"772 426 OFFCURVE",
"703 522 OFFCURVE",
"571 522 CURVE SMOOTH",
"489 522 OFFCURVE",
"425 485 OFFCURVE",
"391 420 CURVE",
"363 484 OFFCURVE",
"309 521 OFFCURVE",
"229 521 CURVE SMOOTH",
"145 521 OFFCURVE",
"54 490 OFFCURVE",
"54 427 CURVE SMOOTH",
"54 412 OFFCURVE",
"59 391 OFFCURVE",
"87 381 CURVE",
"122 428 OFFCURVE",
"165 455 OFFCURVE",
"225 455 CURVE SMOOTH",
"303 455 OFFCURVE",
"346 410 OFFCURVE",
"346 330 CURVE SMOOTH",
"346 282 LINE",
"319 299 OFFCURVE",
"287 313 OFFCURVE",
"235 313 CURVE SMOOTH",
"119 313 OFFCURVE",
"46 246 OFFCURVE",
"46 145 CURVE SMOOTH",
"46 49 OFFCURVE",
"111 -12 OFFCURVE",
"215 -12 CURVE SMOOTH"
);
},
{
closed = 1;
nodes = (
"164 52 OFFCURVE",
"128 85 OFFCURVE",
"128 146 CURVE SMOOTH",
"128 213 OFFCURVE",
"171 251 OFFCURVE",
"246 251 CURVE SMOOTH",
"311 251 OFFCURVE",
"346 223 OFFCURVE",
"346 177 CURVE SMOOTH",
"346 152 LINE SMOOTH",
"346 90 OFFCURVE",
"297 52 OFFCURVE",
"228 52 CURVE SMOOTH"
);
},
{
closed = 1;
nodes = (
"437 397 OFFCURVE",
"489 458 OFFCURVE",
"575 458 CURVE SMOOTH",
"659 458 OFFCURVE",
"695 399 OFFCURVE",
"698 294 CURVE",
"422 294 LINE"
);
}
);
width = 806;
}
);
leftMetricsKey = a;
note = ae;
rightMetricsKey = e;
unicode = 00E6;
},
{
glyphname = b;
layers = (
{
anchors = (
{
name = bottom;
position = "{277, 0}";
},
{
name = top;
position = "{126, 720}";
}
);
layerId = "324B27C4-C4D5-407D-B181-631A50D9203C";
paths = (
{
closed = 1;
nodes = (
"422 -12 OFFCURVE",
"518 97 OFFCURVE",
"518 267 CURVE SMOOTH",
"518 423 OFFCURVE",
"438 522 OFFCURVE",
"317 522 CURVE SMOOTH",
"242 522 OFFCURVE",
"196 484 OFFCURVE",
"162 435 CURVE",
"162 722 LINE",
"152 725 OFFCURVE",
"142 726 OFFCURVE",
"135 726 CURVE SMOOTH",
"99 726 OFFCURVE",
"80 701 OFFCURVE",
"80 665 CURVE SMOOTH",
"80 226 LINE SMOOTH",
"80 147 OFFCURVE",
"70 97 OFFCURVE",
"40 50 CURVE",
"47 28 LINE",
"132 28 OFFCURVE",
"187 -12 OFFCURVE",
"276 -12 CURVE SMOOTH"
);
},
{
closed = 1;
nodes = (
"208 54 OFFCURVE",
"179 84 OFFCURVE",
"113 84 CURVE",
"125 41 LINE",
"162 105 OFFCURVE",
"164 153 OFFCURVE",
"164 237 CURVE SMOOTH",
"164 273 LINE SMOOTH",
"164 393 OFFCURVE",
"220 456 OFFCURVE",
"302 456 CURVE SMOOTH",
"386 456 OFFCURVE",
"434 391 OFFCURVE",
"434 270 CURVE SMOOTH",
"434 133 OFFCURVE",
"373 54 OFFCURVE",
"271 54 CURVE SMOOTH"
);
}
);
width = 554;
}
);
leftKerningGroup = b;
note = b;
rightKerningGroup = o;
rightMetricsKey = o;
unicode = 0062;
},
{
glyphname = c;
layers = (
{
anchors = (
{
name = bottom;
position = "{269, 0}";
},
{
name = top;
position = "{269, 510}";
}
);
layerId = "324B27C4-C4D5-407D-B181-631A50D9203C";
paths = (
{
closed = 1;
nodes = (
"367 -12 OFFCURVE",
"455 36 OFFCURVE",
"455 97 CURVE SMOOTH",
"455 112 OFFCURVE",
"450 132 OFFCURVE",
"424 140 CURVE",
"391 89 OFFCURVE",
"334 60 OFFCURVE",
"269 60 CURVE SMOOTH",
"164 60 OFFCURVE",
"120 136 OFFCURVE",
"120 255 CURVE SMOOTH",
"120 374 OFFCURVE",
"164 450 OFFCURVE",
"269 450 CURVE SMOOTH",
"334 450 OFFCURVE",
"391 421 OFFCURVE",
"424 370 CURVE",
"450 378 OFFCURVE",
"455 398 OFFCURVE",
"455 413 CURVE SMOOTH",
"455 474 OFFCURVE",
"367 522 OFFCURVE",
"269 522 CURVE SMOOTH",
"125 522 OFFCURVE",
"36 418 OFFCURVE",
"36 255 CURVE SMOOTH",
"36 92 OFFCURVE",
"125 -12 OFFCURVE",
"269 -12 CURVE SMOOTH"
);
}
);
width = 491;
}
);
leftKerningGroup = o;
leftMetricsKey = o;
note = c;
rightKerningGroup = c;
unicode = 0063;
},
{
glyphname = d;
layers = (
{
anchors = (
{
name = bottom;
position = "{275, 0}";
},
{
name = center;
position = "{275, 255}";
},
{
name = top;
position = "{438, 720}";
},
{
name = topright;
position = "{466, 510}";
}
);
layerId = "324B27C4-C4D5-407D-B181-631A50D9203C";
paths = (
{
closed = 1;
nodes = (
"309 -13 OFFCURVE",
"357 20 OFFCURVE",
"394 76 CURVE",
"394 -2 LINE",
"405 -5 OFFCURVE",
"414 -6 OFFCURVE",
"421 -6 CURVE SMOOTH",
"457 -6 OFFCURVE",
"476 19 OFFCURVE",
"476 55 CURVE SMOOTH",
"476 722 LINE",
"466 725 OFFCURVE",
"456 726 OFFCURVE",
"449 726 CURVE SMOOTH",
"413 726 OFFCURVE",
"394 701 OFFCURVE",
"394 665 CURVE SMOOTH",
"394 470 LINE",
"362 499 OFFCURVE",
"323 521 OFFCURVE",
"261 521 CURVE SMOOTH",
"123 521 OFFCURVE",
"36 412 OFFCURVE",
"36 245 CURVE SMOOTH",
"36 87 OFFCURVE",
"114 -13 OFFCURVE",
"238 -13 CURVE SMOOTH"
);
},
{
closed = 1;
nodes = (
"166 53 OFFCURVE",
"120 120 OFFCURVE",
"120 243 CURVE SMOOTH",
"120 378 OFFCURVE",
"175 455 OFFCURVE",
"270 455 CURVE SMOOTH",
"352 455 OFFCURVE",
"396 399 OFFCURVE",
"396 306 CURVE SMOOTH",
"396 254 LINE SMOOTH",
"396 128 OFFCURVE",
"334 53 OFFCURVE",
"248 53 CURVE SMOOTH"
);
}
);
width = 550;
}
);
leftKerningGroup = o;
leftMetricsKey = o;
note = d;
rightKerningGroup = u;
rightMetricsKey = u;
unicode = 0064;
},
{
glyphname = eth;
layers = (
{
layerId = "324B27C4-C4D5-407D-B181-631A50D9203C";
paths = (
{
closed = 1;
nodes = (
"395 -13 OFFCURVE",
"478 97 OFFCURVE",
"478 295 CURVE SMOOTH",
"478 384 LINE SMOOTH",
"478 580 OFFCURVE",
"414 711 OFFCURVE",
"248 711 CURVE SMOOTH",
"179 711 OFFCURVE",
"151 689 OFFCURVE",
"151 663 CURVE SMOOTH",
"151 650 OFFCURVE",
"158 640 OFFCURVE",
"169 636 CURVE",
"186 642 OFFCURVE",
"203 645 OFFCURVE",
"226 645 CURVE SMOOTH",
"347 645 OFFCURVE",
"394 564 OFFCURVE",
"394 450 CURVE",
"362 479 OFFCURVE",
"323 501 OFFCURVE",
"261 501 CURVE SMOOTH",
"123 501 OFFCURVE",
"36 392 OFFCURVE",
"36 235 CURVE SMOOTH",
"36 87 OFFCURVE",
"118 -13 OFFCURVE",
"248 -13 CURVE SMOOTH"
);
},
{
closed = 1;
nodes = (
"166 53 OFFCURVE",
"120 120 OFFCURVE",
"120 233 CURVE SMOOTH",
"120 358 OFFCURVE",
"175 435 OFFCURVE",
"270 435 CURVE SMOOTH",
"352 435 OFFCURVE",
"396 399 OFFCURVE",
"396 296 CURVE SMOOTH",
"396 244 LINE SMOOTH",
"396 128 OFFCURVE",
"334 53 OFFCURVE",
"248 53 CURVE SMOOTH"
);
},
{
closed = 1;
nodes = (
"514 615 LINE",
"514 665 LINE",
"282 585 LINE",
"282 535 LINE"
);
}
);
width = 552;
}
);
leftMetricsKey = d;
note = eth;
unicode = 00F0;
},
{
glyphname = dcroat;
layers = (
{
components = (
{
name = d;
}
);
layerId = "324B27C4-C4D5-407D-B181-631A50D9203C";
paths = (
{
closed = 1;
nodes = (
"552 600 LINE",
"552 650 LINE",
"260 650 LINE",
"260 600 LINE"
);
}
);
width = 592;
}
);
note = dslash;
unicode = 0111;
},
{
glyphname = e;
layers = (
{
anchors = (
{
name = bottom;
position = "{267, 0}";
},
{
name = ogonek;
position = "{416, 51}";
},
{
name = top;
position = "{269, 510}";
}
);
layerId = "324B27C4-C4D5-407D-B181-631A50D9203C";
paths = (
{
closed = 1;
nodes = (
"357 -12 OFFCURVE",
"452 34 OFFCURVE",
"452 89 CURVE SMOOTH",
"452 104 OFFCURVE",
"447 125 OFFCURVE",
"422 134 CURVE",
"391 87 OFFCURVE",
"335 54 OFFCURVE",
"267 54 CURVE SMOOTH",
"176 54 OFFCURVE",
"118 121 OFFCURVE",
"118 227 CURVE",
"471 227 LINE",
"476 243 OFFCURVE",
"478 259 OFFCURVE",
"478 275 CURVE SMOOTH",
"478 426 OFFCURVE",
"401 522 OFFCURVE",
"269 522 CURVE SMOOTH",
"131 522 OFFCURVE",
"36 416 OFFCURVE",
"36 252 CURVE SMOOTH",
"36 89 OFFCURVE",
"130 -12 OFFCURVE",
"269 -12 CURVE SMOOTH"
);
},
{
closed = 1;
nodes = (
"135 397 OFFCURVE",
"187 458 OFFCURVE",
"273 458 CURVE SMOOTH",
"357 458 OFFCURVE",
"393 399 OFFCURVE",
"396 294 CURVE",
"120 286 LINE"
);
}
);
width = 512;
}
);
leftKerningGroup = o;
leftMetricsKey = o;
note = e;
rightKerningGroup = e;
unicode = 0065;
},
{
glyphname = f;
layers = (
{
anchors = (
{
name = bottom;
position = "{140, 0}";
},
{
name = top;
position = "{234, 730}";
}
);
layerId = "324B27C4-C4D5-407D-B181-631A50D9203C";
paths = (
{
closed = 1;
nodes = (
"161 -6 OFFCURVE",
"180 19 OFFCURVE",
"180 55 CURVE SMOOTH",
"180 574 LINE SMOOTH",
"180 626 OFFCURVE",
"198 655 OFFCURVE",
"244 655 CURVE SMOOTH",
"259 655 OFFCURVE",
"275 652 OFFCURVE",
"293 645 CURVE",
"307 651 OFFCURVE",
"316 664 OFFCURVE",
"316 680 CURVE SMOOTH",
"316 712 OFFCURVE",
"281 730 OFFCURVE",
"234 730 CURVE SMOOTH",
"147 730 OFFCURVE",
"98 669 OFFCURVE",
"98 574 CURVE SMOOTH",
"98 -2 LINE",
"108 -5 OFFCURVE",
"118 -6 OFFCURVE",
"126 -6 CURVE SMOOTH"
);
},
{
closed = 1;
nodes = (
"261 446 LINE SMOOTH",
"289 446 OFFCURVE",
"308 461 OFFCURVE",
"308 488 CURVE SMOOTH",
"308 495 OFFCURVE",
"307 502 OFFCURVE",
"303 510 CURVE",
"57 510 LINE SMOOTH",
"29 510 OFFCURVE",
"10 495 OFFCURVE",
"10 468 CURVE SMOOTH",
"10 461 OFFCURVE",
"11 454 OFFCURVE",
"15 446 CURVE"
);
}
);
width = 324;
}
);
leftKerningGroup = f;
note = f;
rightKerningGroup = f;
unicode = 0066;
},
{
glyphname = g;
layers = (
{
anchors = (
{
name = bottom;
position = "{253, -160}";
},
{
name = top;
position = "{277, 510}";
}
);
layerId = "324B27C4-C4D5-407D-B181-631A50D9203C";
paths = (
{
closed = 1;
nodes = (
"378 -168 OFFCURVE",
"474 -79 OFFCURVE",
"474 62 CURVE SMOOTH",
"474 284 LINE SMOOTH",
"474 363 OFFCURVE",
"484 413 OFFCURVE",
"514 460 CURVE",
"507 482 LINE",
"422 482 OFFCURVE",
"367 522 OFFCURVE",
"278 522 CURVE SMOOTH",
"132 522 OFFCURVE",
"36 413 OFFCURVE",
"36 263 CURVE SMOOTH",
"36 127 OFFCURVE",
"116 28 OFFCURVE",
"237 28 CURVE SMOOTH",
"312 28 OFFCURVE",
"358 66 OFFCURVE",
"392 115 CURVE",
"392 64 LINE SMOOTH",
"392 -41 OFFCURVE",
"326 -100 OFFCURVE",
"241 -100 CURVE SMOOTH",
"175 -100 OFFCURVE",
"118 -64 OFFCURVE",
"85 -20 CURVE",
"61 -27 OFFCURVE",
"52 -45 OFFCURVE",
"52 -65 CURVE SMOOTH",
"52 -131 OFFCURVE",
"153 -168 OFFCURVE",
"241 -168 CURVE SMOOTH"
);
},
{
closed = 1;
nodes = (
"168 94 OFFCURVE",
"120 153 OFFCURVE",
"120 262 CURVE SMOOTH",
"120 386 OFFCURVE",
"181 456 OFFCURVE",
"283 456 CURVE SMOOTH",
"346 456 OFFCURVE",
"375 426 OFFCURVE",
"441 426 CURVE",
"429 469 LINE",
"392 411 OFFCURVE",
"390 368 OFFCURVE",
"390 292 CURVE SMOOTH",
"390 272 LINE SMOOTH",
"390 155 OFFCURVE",
"337 94 OFFCURVE",
"252 94 CURVE SMOOTH"
);
}
);
width = 554;
}
);
leftKerningGroup = o;
leftMetricsKey = o;
note = g;
rightKerningGroup = g;
rightMetricsKey = q;
unicode = 0067;
},
{
glyphname = h;
layers = (
{
anchors = (
{
name = bottom;
position = "{265, 0}";
},
{
name = center;
position = "{270, 255}";
},
{
name = top;
position = "{228, 720}";
}
);
layerId = "324B27C4-C4D5-407D-B181-631A50D9203C";
paths = (
{
closed = 1;
nodes = (
"137 -6 OFFCURVE",
"156 19 OFFCURVE",
"156 55 CURVE SMOOTH",
"156 236 LINE SMOOTH",
"156 396 OFFCURVE",
"202 454 OFFCURVE",
"280 454 CURVE SMOOTH",
"348 454 OFFCURVE",
"388 410 OFFCURVE",
"388 339 CURVE SMOOTH",
"388 -2 LINE",
"398 -5 OFFCURVE",
"408 -6 OFFCURVE",
"415 -6 CURVE SMOOTH",
"451 -6 OFFCURVE",
"470 19 OFFCURVE",
"470 55 CURVE SMOOTH",
"470 333 LINE SMOOTH",
"470 458 OFFCURVE",
"399 522 OFFCURVE",
"301 522 CURVE SMOOTH",
"227 522 OFFCURVE",
"183 485 OFFCURVE",
"156 437 CURVE",
"156 722 LINE",
"146 725 OFFCURVE",
"136 726 OFFCURVE",
"129 726 CURVE SMOOTH",
"93 726 OFFCURVE",
"74 701 OFFCURVE",
"74 665 CURVE SMOOTH",
"74 -2 LINE",
"84 -5 OFFCURVE",
"94 -6 OFFCURVE",
"101 -6 CURVE SMOOTH"
);
}
);
width = 530;
}
);
leftKerningGroup = n;
leftMetricsKey = n;
note = h;
rightKerningGroup = n;
rightMetricsKey = n;
unicode = 0068;
},
{
glyphname = hbar;
layers = (
{
components = (
{
name = h;
}
);
layerId = "324B27C4-C4D5-407D-B181-631A50D9203C";
paths = (
{
closed = 1;
nodes = (
"300 589 LINE",
"300 649 LINE",
"20 649 LINE",
"20 589 LINE"
);
}
);
width = 530;
}
);
note = hbar;
rightKerningGroup = h;
rightMetricsKey = h;
unicode = 0127;
},
{
glyphname = i;
layers = (
{
anchors = (
{
name = bottom;
position = "{117, 0}";
}
);
layerId = "324B27C4-C4D5-407D-B181-631A50D9203C";
paths = (
{
closed = 1;
nodes = (
"139 -6 OFFCURVE",
"158 19 OFFCURVE",
"158 55 CURVE SMOOTH",
"158 512 LINE",
"148 515 OFFCURVE",
"138 516 OFFCURVE",
"130 516 CURVE SMOOTH",
"95 516 OFFCURVE",
"76 491 OFFCURVE",
"76 455 CURVE SMOOTH",
"76 -2 LINE",
"86 -5 OFFCURVE",
"96 -6 OFFCURVE",
"104 -6 CURVE SMOOTH"
);
},
{
closed = 1;
nodes = (
"152 588 OFFCURVE",
"178 614 OFFCURVE",
"178 649 CURVE SMOOTH",
"178 684 OFFCURVE",
"152 710 OFFCURVE",
"117 710 CURVE SMOOTH",
"82 710 OFFCURVE",
"56 684 OFFCURVE",
"56 649 CURVE SMOOTH",
"56 614 OFFCURVE",
"82 588 OFFCURVE",
"117 588 CURVE SMOOTH"
);
}
);
width = 234;
}
);
leftKerningGroup = i;
leftMetricsKey = "=|";
note = i;
rightKerningGroup = i;
unicode = 0069;
},
{
glyphname = idotless;
layers = (
{
anchors = (
{
name = bottom;
position = "{117, 0}";
},
{
name = ogonek;
position = "{113, 10}";
},
{
name = top;
position = "{117, 510}";
}
);
layerId = "324B27C4-C4D5-407D-B181-631A50D9203C";
paths = (
{
closed = 1;
nodes = (
"139 -6 OFFCURVE",
"158 19 OFFCURVE",
"158 55 CURVE SMOOTH",
"158 512 LINE",
"148 515 OFFCURVE",
"138 516 OFFCURVE",
"130 516 CURVE SMOOTH",
"95 516 OFFCURVE",
"76 491 OFFCURVE",
"76 455 CURVE SMOOTH",
"76 -2 LINE",
"86 -5 OFFCURVE",
"96 -6 OFFCURVE",
"104 -6 CURVE SMOOTH"
);
}
);
width = 234;
}
);
note = dotlessi;
unicode = 0131;
},
{
glyphname = j;
layers = (
{
layerId = "324B27C4-C4D5-407D-B181-631A50D9203C";
paths = (
{
closed = 1;
nodes = (
"109 -166 OFFCURVE",
"158 -105 OFFCURVE",
"158 -10 CURVE SMOOTH",
"158 512 LINE",
"147 515 OFFCURVE",
"138 516 OFFCURVE",
"130 516 CURVE SMOOTH",
"95 516 OFFCURVE",
"76 491 OFFCURVE",
"76 455 CURVE SMOOTH",
"76 -10 LINE SMOOTH",
"76 -62 OFFCURVE",
"57 -91 OFFCURVE",
"15 -91 CURVE SMOOTH",
"1 -91 OFFCURVE",
"-19 -88 OFFCURVE",
"-37 -81 CURVE",
"-51 -86 OFFCURVE",
"-60 -100 OFFCURVE",
"-60 -116 CURVE SMOOTH",
"-60 -147 OFFCURVE",
"-25 -166 OFFCURVE",
"23 -166 CURVE SMOOTH"
);
},
{
closed = 1;
nodes = (
"152 588 OFFCURVE",
"178 614 OFFCURVE",
"178 649 CURVE SMOOTH",
"178 684 OFFCURVE",
"152 710 OFFCURVE",
"117 710 CURVE SMOOTH",
"82 710 OFFCURVE",
"56 684 OFFCURVE",
"56 649 CURVE SMOOTH",
"56 614 OFFCURVE",
"82 588 OFFCURVE",
"117 588 CURVE SMOOTH"
);
}
);
width = 234;
}
);
leftKerningGroup = j;
note = j;
rightKerningGroup = j;
rightMetricsKey = i;
unicode = 006A;
},
{
glyphname = jdotless;
layers = (
{
anchors = (
{
name = bottom;
position = "{29, -166}";
},
{
name = top;
position = "{125, 515}";
}
);
layerId = "324B27C4-C4D5-407D-B181-631A50D9203C";
paths = (
{
closed = 1;
nodes = (
"109 -166 OFFCURVE",
"160 -105 OFFCURVE",
"160 -10 CURVE SMOOTH",
"160 512 LINE",
"149 515 OFFCURVE",
"140 516 OFFCURVE",
"132 516 CURVE SMOOTH",
"97 516 OFFCURVE",
"78 491 OFFCURVE",
"78 455 CURVE SMOOTH",
"78 -10 LINE SMOOTH",
"78 -62 OFFCURVE",
"58 -91 OFFCURVE",
"19 -91 CURVE SMOOTH",
"2 -91 OFFCURVE",
"-17 -88 OFFCURVE",
"-35 -81 CURVE",
"-49 -86 OFFCURVE",
"-58 -100 OFFCURVE",
"-58 -117 CURVE SMOOTH",
"-58 -147 OFFCURVE",
"-24 -166 OFFCURVE",
"29 -166 CURVE SMOOTH"
);
}
);
width = 238;
}
);
leftKerningGroup = j;
note = dotlessj;
unicode = 0237;
},
{
glyphname = k;
layers = (
{
anchors = (
{
name = bottom;
position = "{229, 0}";
},
{
name = top;
position = "{118, 720}";
}
);
layerId = "324B27C4-C4D5-407D-B181-631A50D9203C";
paths = (
{
closed = 1;
nodes = (
"432 507 LINE",
"415 513 OFFCURVE",
"394 515 OFFCURVE",
"382 515 CURVE SMOOTH",
"355 515 OFFCURVE",
"323 498 OFFCURVE",
"298 467 CURVE SMOOTH",
"114 243 LINE",
"114 134 LINE"
);
},
{
closed = 1;
nodes = (
"417 -6 OFFCURVE",
"432 -4 OFFCURVE",
"450 1 CURVE",
"450 11 LINE",
"436 16 OFFCURVE",
"419 34 OFFCURVE",
"389 78 CURVE SMOOTH",
"302 208 LINE SMOOTH",
"281 239 OFFCURVE",
"257 254 OFFCURVE",
"226 254 CURVE SMOOTH",
"215 254 OFFCURVE",
"198 252 OFFCURVE",
"185 249 CURVE",
"333 27 LINE SMOOTH",
"347 6 OFFCURVE",
"374 -6 OFFCURVE",
"402 -6 CURVE SMOOTH"
);
},
{
closed = 1;
nodes = (
"137 -6 OFFCURVE",
"156 19 OFFCURVE",
"156 55 CURVE SMOOTH",
"156 722 LINE",
"146 725 OFFCURVE",
"136 726 OFFCURVE",
"128 726 CURVE SMOOTH",
"93 726 OFFCURVE",
"74 701 OFFCURVE",
"74 665 CURVE SMOOTH",
"74 -2 LINE",
"84 -5 OFFCURVE",
"94 -6 OFFCURVE",
"102 -6 CURVE SMOOTH"
);
}
);
width = 458;
}
);
leftKerningGroup = n;
leftMetricsKey = n;
note = k;
rightKerningGroup = k;
unicode = 006B;
},
{
glyphname = kgreenlandic;
layers = (
{
anchors = (
{
name = bottom;
position = "{241, 0}";
},
{
name = top;
position = "{241, 510}";
}
);
layerId = "324B27C4-C4D5-407D-B181-631A50D9203C";
paths = (
{
closed = 1;
nodes = (
"432 507 LINE",
"415 513 OFFCURVE",
"394 515 OFFCURVE",
"382 515 CURVE SMOOTH",
"355 515 OFFCURVE",
"329 498 OFFCURVE",
"304 467 CURVE SMOOTH",
"114 237 LINE",
"114 134 LINE"
);
},
{
closed = 1;
nodes = (
"137 -6 OFFCURVE",
"156 19 OFFCURVE",
"156 55 CURVE SMOOTH",
"156 512 LINE",
"146 515 OFFCURVE",
"136 516 OFFCURVE",
"128 516 CURVE SMOOTH",
"93 516 OFFCURVE",
"74 491 OFFCURVE",
"74 455 CURVE SMOOTH",
"74 -2 LINE",
"84 -5 OFFCURVE",
"94 -6 OFFCURVE",
"102 -6 CURVE SMOOTH"
);
},
{
closed = 1;
nodes = (
"417 -6 OFFCURVE",
"432 -4 OFFCURVE",
"450 1 CURVE",
"450 11 LINE",
"436 16 OFFCURVE",
"419 34 OFFCURVE",
"389 78 CURVE SMOOTH",
"302 208 LINE SMOOTH",
"281 239 OFFCURVE",
"257 254 OFFCURVE",
"226 254 CURVE SMOOTH",
"215 254 OFFCURVE",
"194 252 OFFCURVE",
"181 249 CURVE",
"329 27 LINE SMOOTH",
"343 6 OFFCURVE",
"374 -6 OFFCURVE",
"402 -6 CURVE SMOOTH"
);
}
);
width = 458;
}
);
note = kgreenlandic;
rightKerningGroup = k;
unicode = 0138;
},
{
glyphname = l;
layers = (
{
anchors = (
{
name = bottom;
position = "{117, 0}";
},
{
name = center;
position = "{257, 296}";
},
{
name = top;
position = "{122, 725}";
}
);
layerId = "324B27C4-C4D5-407D-B181-631A50D9203C";
paths = (
{
closed = 1;
nodes = (
"139 -6 OFFCURVE",
"158 19 OFFCURVE",
"158 55 CURVE SMOOTH",
"158 722 LINE",
"148 725 OFFCURVE",
"138 726 OFFCURVE",
"130 726 CURVE SMOOTH",
"95 726 OFFCURVE",
"76 701 OFFCURVE",
"76 665 CURVE SMOOTH",
"76 -2 LINE",
"86 -5 OFFCURVE",
"96 -6 OFFCURVE",
"104 -6 CURVE SMOOTH"
);
}
);
width = 234;
}
);
leftKerningGroup = l;
leftMetricsKey = "=|";
note = l;
rightKerningGroup = l;
unicode = 006C;
},
{
glyphname = lslash;
layers = (
{
components = (
{
name = l;
}
);
layerId = "324B27C4-C4D5-407D-B181-631A50D9203C";
paths = (
{
closed = 1;
nodes = (
"230 398 LINE",
"230 448 LINE",
"4 368 LINE",
"4 318 LINE"
);
}
);
width = 234;
}
);
note = lslash;
unicode = 0142;
},
{
glyphname = m;
layers = (
{
anchors = (
{
name = bottom;
position = "{406, 0}";
},
{
name = top;
position = "{406, 510}";
}
);
layerId = "324B27C4-C4D5-407D-B181-631A50D9203C";
paths = (
{
closed = 1;
nodes = (
"137 -6 OFFCURVE",
"156 19 OFFCURVE",
"156 55 CURVE SMOOTH",
"156 236 LINE SMOOTH",
"156 396 OFFCURVE",
"199 454 OFFCURVE",
"272 454 CURVE SMOOTH",
"336 454 OFFCURVE",
"372 410 OFFCURVE",
"372 339 CURVE SMOOTH",
"372 -2 LINE",
"382 -5 OFFCURVE",
"392 -6 OFFCURVE",
"400 -6 CURVE SMOOTH",
"435 -6 OFFCURVE",
"454 19 OFFCURVE",
"454 55 CURVE SMOOTH",
"454 333 LINE SMOOTH",
"454 458 OFFCURVE",
"388 522 OFFCURVE",
"295 522 CURVE SMOOTH",
"224 522 OFFCURVE",
"182 485 OFFCURVE",
"156 437 CURVE",
"156 512 LINE",
"146 515 OFFCURVE",
"136 516 OFFCURVE",
"128 516 CURVE SMOOTH",
"93 516 OFFCURVE",
"74 491 OFFCURVE",
"74 455 CURVE SMOOTH",
"74 -2 LINE",
"84 -5 OFFCURVE",
"94 -6 OFFCURVE",
"102 -6 CURVE SMOOTH"
);
},
{
closed = 1;
nodes = (
"733 -6 OFFCURVE",
"752 19 OFFCURVE",
"752 55 CURVE SMOOTH",
"752 333 LINE SMOOTH",
"752 458 OFFCURVE",
"686 522 OFFCURVE",
"588 522 CURVE SMOOTH",
"502 522 OFFCURVE",
"454 473 OFFCURVE",
"428 417 CURVE",
"428 236 LINE",
"454 236 LINE",
"454 396 OFFCURVE",
"497 454 OFFCURVE",
"570 454 CURVE SMOOTH",
"634 454 OFFCURVE",
"670 410 OFFCURVE",
"670 339 CURVE SMOOTH",
"670 -2 LINE",
"680 -5 OFFCURVE",
"690 -6 OFFCURVE",
"698 -6 CURVE SMOOTH"
);
}
);
width = 812;
}
);
leftKerningGroup = n;
leftMetricsKey = n;
note = m;
rightKerningGroup = n;
rightMetricsKey = n;
unicode = 006D;
},
{
glyphname = n;
layers = (
{
anchors = (
{
name = bottom;
position = "{269, 0}";
},
{
name = top;
position = "{265, 510}";
}
);
layerId = "324B27C4-C4D5-407D-B181-631A50D9203C";
paths = (
{
closed = 1;
nodes = (
"137 -6 OFFCURVE",
"156 19 OFFCURVE",
"156 55 CURVE SMOOTH",
"156 236 LINE SMOOTH",
"156 396 OFFCURVE",
"202 454 OFFCURVE",
"280 454 CURVE SMOOTH",
"348 454 OFFCURVE",
"388 410 OFFCURVE",
"388 339 CURVE SMOOTH",
"388 -2 LINE",
"398 -5 OFFCURVE",
"408 -6 OFFCURVE",
"416 -6 CURVE SMOOTH",
"451 -6 OFFCURVE",
"470 19 OFFCURVE",
"470 55 CURVE SMOOTH",
"470 333 LINE SMOOTH",
"470 458 OFFCURVE",
"400 522 OFFCURVE",
"300 522 CURVE SMOOTH",
"228 522 OFFCURVE",
"183 485 OFFCURVE",
"156 437 CURVE",
"156 512 LINE",
"146 515 OFFCURVE",
"136 516 OFFCURVE",
"128 516 CURVE SMOOTH",
"93 516 OFFCURVE",
"74 491 OFFCURVE",
"74 455 CURVE SMOOTH",
"74 -2 LINE",
"84 -5 OFFCURVE",
"94 -6 OFFCURVE",
"102 -6 CURVE SMOOTH"
);
}
);
width = 530;
}
);
leftKerningGroup = n;
note = n;
rightKerningGroup = n;
unicode = 006E;
},
{
glyphname = eng;
layers = (
{
layerId = "324B27C4-C4D5-407D-B181-631A50D9203C";
paths = (
{
closed = 1;
nodes = (
"419 -166 OFFCURVE",
"470 -105 OFFCURVE",
"470 -10 CURVE SMOOTH",
"470 333 LINE SMOOTH",
"470 458 OFFCURVE",
"400 522 OFFCURVE",
"300 522 CURVE SMOOTH",
"228 522 OFFCURVE",
"183 485 OFFCURVE",
"156 437 CURVE",
"156 512 LINE",
"146 515 OFFCURVE",
"136 516 OFFCURVE",
"128 516 CURVE SMOOTH",
"93 516 OFFCURVE",
"74 491 OFFCURVE",
"74 455 CURVE SMOOTH",
"74 -2 LINE",
"84 -5 OFFCURVE",
"94 -6 OFFCURVE",
"102 -6 CURVE SMOOTH",
"137 -6 OFFCURVE",
"156 19 OFFCURVE",
"156 55 CURVE SMOOTH",
"156 236 LINE SMOOTH",
"156 396 OFFCURVE",
"202 454 OFFCURVE",
"280 454 CURVE SMOOTH",
"348 454 OFFCURVE",
"388 410 OFFCURVE",
"388 339 CURVE SMOOTH",
"388 -10 LINE SMOOTH",
"388 -62 OFFCURVE",
"368 -91 OFFCURVE",
"329 -91 CURVE SMOOTH",
"312 -91 OFFCURVE",
"293 -88 OFFCURVE",
"275 -81 CURVE",
"261 -86 OFFCURVE",
"252 -100 OFFCURVE",
"252 -117 CURVE SMOOTH",
"252 -147 OFFCURVE",
"286 -166 OFFCURVE",
"339 -166 CURVE SMOOTH"
);
}
);
width = 530;
}
);
leftKerningGroup = m;
note = eng;
rightKerningGroup = m;
rightMetricsKey = n;
unicode = 014B;
},
{
glyphname = o;
layers = (
{
anchors = (
{
name = bottom;
position = "{264, 0}";
},
{
name = center;
position = "{264, 255}";
},
{
name = ogonek;
position = "{322, 10}";
},
{
name = top;
position = "{264, 510}";
},
{
name = topright;
position = "{442, 297}";
}
);
hints = (
{
place = "{469.674, 0}";
}
);
layerId = "324B27C4-C4D5-407D-B181-631A50D9203C";
paths = (
{
closed = 1;
nodes = (
"403 -12 OFFCURVE",
"492 92 OFFCURVE",
"492 255 CURVE SMOOTH",
"492 418 OFFCURVE",
"403 522 OFFCURVE",
"264 522 CURVE SMOOTH",
"125 522 OFFCURVE",
"36 418 OFFCURVE",
"36 255 CURVE SMOOTH",
"36 92 OFFCURVE",
"125 -12 OFFCURVE",
"264 -12 CURVE SMOOTH"
);
},
{
closed = 1;
nodes = (
"176 60 OFFCURVE",
"120 136 OFFCURVE",
"120 255 CURVE SMOOTH",
"120 374 OFFCURVE",
"176 450 OFFCURVE",
"264 450 CURVE SMOOTH",
"352 450 OFFCURVE",
"408 374 OFFCURVE",
"408 255 CURVE SMOOTH",
"408 136 OFFCURVE",
"352 60 OFFCURVE",
"264 60 CURVE SMOOTH"
);
}
);
width = 528;
}
);
leftKerningGroup = o;
leftMetricsKey = "=|";
note = o;
rightKerningGroup = o;
unicode = 006F;
},
{
glyphname = oslash;
layers = (
{
components = (
{
name = o;
}
);
layerId = "324B27C4-C4D5-407D-B181-631A50D9203C";
paths = (
{
closed = 1;
nodes = (
"139 -60 LINE",
"449 570 LINE",
"403 570 LINE",
"93 -60 LINE"
);
}
);
width = 528;
}
);
leftMetricsKey = o;
note = oslash;
rightMetricsKey = o;
unicode = 00F8;
},
{
glyphname = oe;
lastChange = "2018-03-12 19:44:16 +0000";
layers = (
{
layerId = "324B27C4-C4D5-407D-B181-631A50D9203C";
paths = (
{
closed = 1;
nodes = (
"349 -12 OFFCURVE",
"415 27 OFFCURVE",
"453 93 CURVE",
"491 26 OFFCURVE",
"557 -12 OFFCURVE",
"642 -12 CURVE SMOOTH",
"730 -12 OFFCURVE",
"825 34 OFFCURVE",
"825 89 CURVE SMOOTH",
"825 104 OFFCURVE",
"820 125 OFFCURVE",
"795 134 CURVE",
"764 87 OFFCURVE",
"708 54 OFFCURVE",
"640 54 CURVE SMOOTH",
"549 54 OFFCURVE",
"491 121 OFFCURVE",
"491 227 CURVE",
"836 227 LINE",
"841 243 OFFCURVE",
"843 259 OFFCURVE",
"843 275 CURVE SMOOTH",
"843 426 OFFCURVE",
"774 522 OFFCURVE",
"642 522 CURVE SMOOTH",
"558 522 OFFCURVE",
"493 483 OFFCURVE",
"455 415 CURVE",
"416 483 OFFCURVE",
"349 522 OFFCURVE",
"264 522 CURVE SMOOTH",
"125 522 OFFCURVE",
"36 418 OFFCURVE",
"36 255 CURVE SMOOTH",
"36 92 OFFCURVE",
"125 -12 OFFCURVE",
"264 -12 CURVE SMOOTH"
);
},
{
closed = 1;
nodes = (
"176 60 OFFCURVE",
"120 136 OFFCURVE",
"120 255 CURVE SMOOTH",
"120 374 OFFCURVE",
"176 450 OFFCURVE",
"264 450 CURVE SMOOTH",
"352 450 OFFCURVE",
"408 374 OFFCURVE",
"408 255 CURVE SMOOTH",
"408 136 OFFCURVE",
"352 60 OFFCURVE",
"264 60 CURVE SMOOTH"
);
},
{
closed = 1;
nodes = (
"508 397 OFFCURVE",
"560 458 OFFCURVE",
"646 458 CURVE SMOOTH",
"730 458 OFFCURVE",
"766 399 OFFCURVE",
"769 294 CURVE",
"493 286 LINE"
);
}
);
width = 877;
}
);
leftMetricsKey = o;
note = oe;
rightMetricsKey = e;
unicode = 0153;
},
{
glyphname = p;
layers = (
{
anchors = (
{
name = bottom;
position = "{114, -167}";
},
{
name = top;
position = "{275, 510}";
}
);
layerId = "324B27C4-C4D5-407D-B181-631A50D9203C";
paths = (
{
closed = 1;
nodes = (
"137 -166 OFFCURVE",
"156 -141 OFFCURVE",
"156 -105 CURVE SMOOTH",
"156 39 LINE",
"188 10 OFFCURVE",
"227 -12 OFFCURVE",
"289 -12 CURVE SMOOTH",
"427 -12 OFFCURVE",
"514 97 OFFCURVE",
"514 264 CURVE SMOOTH",
"514 422 OFFCURVE",
"436 522 OFFCURVE",
"312 522 CURVE SMOOTH",
"241 522 OFFCURVE",
"193 489 OFFCURVE",
"156 433 CURVE",
"156 511 LINE",
"145 514 OFFCURVE",
"136 515 OFFCURVE",
"129 515 CURVE SMOOTH",
"93 515 OFFCURVE",
"74 490 OFFCURVE",
"74 454 CURVE SMOOTH",
"74 -162 LINE",
"84 -165 OFFCURVE",
"94 -166 OFFCURVE",
"101 -166 CURVE SMOOTH"
);
},
{
closed = 1;
nodes = (
"198 54 OFFCURVE",
"154 110 OFFCURVE",
"154 203 CURVE SMOOTH",
"154 255 LINE SMOOTH",
"154 381 OFFCURVE",
"216 456 OFFCURVE",
"302 456 CURVE SMOOTH",
"384 456 OFFCURVE",
"430 389 OFFCURVE",
"430 266 CURVE SMOOTH",
"430 131 OFFCURVE",
"375 54 OFFCURVE",
"280 54 CURVE SMOOTH"
);
}
);
width = 550;
}
);
leftKerningGroup = n;
leftMetricsKey = n;
note = p;
rightKerningGroup = o;
rightMetricsKey = o;
unicode = 0070;
},
{
glyphname = thorn;
layers = (
{
layerId = "324B27C4-C4D5-407D-B181-631A50D9203C";
paths = (
{
closed = 1;
nodes = (
"137 -166 OFFCURVE",
"156 -141 OFFCURVE",
"156 -105 CURVE SMOOTH",
"156 39 LINE",
"188 10 OFFCURVE",
"227 -12 OFFCURVE",
"289 -12 CURVE SMOOTH",
"427 -12 OFFCURVE",
"514 97 OFFCURVE",
"514 264 CURVE SMOOTH",
"514 422 OFFCURVE",
"436 522 OFFCURVE",
"312 522 CURVE SMOOTH",
"241 522 OFFCURVE",
"193 489 OFFCURVE",
"156 433 CURVE",
"156 716 LINE",
"145 719 OFFCURVE",
"136 720 OFFCURVE",
"129 720 CURVE SMOOTH",
"93 720 OFFCURVE",
"74 695 OFFCURVE",
"74 659 CURVE SMOOTH",
"74 -162 LINE",
"84 -165 OFFCURVE",
"94 -166 OFFCURVE",
"101 -166 CURVE SMOOTH"
);
},
{
closed = 1;
nodes = (
"198 54 OFFCURVE",
"154 110 OFFCURVE",
"154 203 CURVE SMOOTH",
"154 255 LINE SMOOTH",
"154 381 OFFCURVE",
"216 456 OFFCURVE",
"302 456 CURVE SMOOTH",
"384 456 OFFCURVE",
"430 389 OFFCURVE",
"430 266 CURVE SMOOTH",
"430 131 OFFCURVE",
"375 54 OFFCURVE",
"280 54 CURVE SMOOTH"
);
}
);
width = 550;
}
);
leftMetricsKey = p;
note = thorn;
rightMetricsKey = p;
unicode = 00FE;
},
{
glyphname = q;
layers = (
{
anchors = (
{
name = bottom;
position = "{436, -160}";
},
{
name = top;
position = "{277, 510}";
}
);
layerId = "324B27C4-C4D5-407D-B181-631A50D9203C";
paths = (
{
closed = 1;
nodes = (
"455 -166 OFFCURVE",
"474 -141 OFFCURVE",
"474 -105 CURVE SMOOTH",
"474 284 LINE SMOOTH",
"474 363 OFFCURVE",
"484 413 OFFCURVE",
"514 460 CURVE",
"507 482 LINE",
"422 482 OFFCURVE",
"367 522 OFFCURVE",
"278 522 CURVE SMOOTH",
"132 522 OFFCURVE",
"36 413 OFFCURVE",
"36 243 CURVE SMOOTH",
"36 87 OFFCURVE",
"116 -12 OFFCURVE",
"237 -12 CURVE SMOOTH",
"312 -12 OFFCURVE",
"358 26 OFFCURVE",
"392 75 CURVE",
"392 -162 LINE",
"402 -165 OFFCURVE",
"412 -166 OFFCURVE",
"419 -166 CURVE SMOOTH"
);
},
{
closed = 1;
nodes = (
"168 54 OFFCURVE",
"120 119 OFFCURVE",
"120 240 CURVE SMOOTH",
"120 377 OFFCURVE",
"181 456 OFFCURVE",
"283 456 CURVE SMOOTH",
"346 456 OFFCURVE",
"375 426 OFFCURVE",
"441 426 CURVE",
"429 469 LINE",
"392 405 OFFCURVE",
"390 357 OFFCURVE",
"390 273 CURVE SMOOTH",
"390 235 LINE SMOOTH",
"390 116 OFFCURVE",
"334 54 OFFCURVE",
"252 54 CURVE SMOOTH"
);
}
);
width = 554;
}
);
leftKerningGroup = o;
leftMetricsKey = o;
note = q;
rightKerningGroup = q;
unicode = 0071;
},
{
glyphname = r;
layers = (
{
anchors = (
{
name = bottom;
position = "{118, 0}";
},
{
name = top;
position = "{184, 510}";
}
);
layerId = "324B27C4-C4D5-407D-B181-631A50D9203C";
paths = (
{
closed = 1;
nodes = (
"137 -6 OFFCURVE",
"156 19 OFFCURVE",
"156 55 CURVE SMOOTH",
"156 148 LINE SMOOTH",
"156 354 OFFCURVE",
"216 430 OFFCURVE",
"296 430 CURVE SMOOTH",
"311 430 OFFCURVE",
"320 428 OFFCURVE",
"326 425 CURVE",
"338 434 OFFCURVE",
"346 447 OFFCURVE",
"346 469 CURVE SMOOTH",
"346 500 OFFCURVE",
"330 519 OFFCURVE",
"290 519 CURVE SMOOTH",
"239 519 OFFCURVE",
"185 473 OFFCURVE",
"156 405 CURVE",
"156 512 LINE",
"146 515 OFFCURVE",
"136 516 OFFCURVE",
"128 516 CURVE SMOOTH",
"93 516 OFFCURVE",
"74 491 OFFCURVE",
"74 455 CURVE SMOOTH",
"74 -2 LINE",
"84 -5 OFFCURVE",
"94 -6 OFFCURVE",
"102 -6 CURVE SMOOTH"
);
}
);
width = 368;
}
);
leftKerningGroup = r;
leftMetricsKey = h;
note = r;
rightKerningGroup = r;
unicode = 0072;
},
{
glyphname = s;
layers = (
{
anchors = (
{
name = bottom;
position = "{208, 0}";
},
{
name = top;
position = "{208, 510}";
}
);
layerId = "324B27C4-C4D5-407D-B181-631A50D9203C";
paths = (
{
closed = 1;
nodes = (
"304 -12 OFFCURVE",
"384 31 OFFCURVE",
"384 137 CURVE SMOOTH",
"384 212 OFFCURVE",
"344 253 OFFCURVE",
"230 291 CURVE SMOOTH",
"144 320 OFFCURVE",
"114 346 OFFCURVE",
"114 391 CURVE SMOOTH",
"114 432 OFFCURVE",
"153 458 OFFCURVE",
"205 458 CURVE SMOOTH",
"267 458 OFFCURVE",
"309 421 OFFCURVE",
"340 385 CURVE",
"364 391 OFFCURVE",
"368 410 OFFCURVE",
"368 422 CURVE SMOOTH",
"368 477 OFFCURVE",
"304 522 OFFCURVE",
"202 522 CURVE SMOOTH",
"120 522 OFFCURVE",
"38 493 OFFCURVE",
"38 390 CURVE SMOOTH",
"38 309 OFFCURVE",
"80 267 OFFCURVE",
"196 229 CURVE SMOOTH",
"276 203 OFFCURVE",
"304 177 OFFCURVE",
"304 133 CURVE SMOOTH",
"304 83 OFFCURVE",
"269 54 OFFCURVE",
"210 54 CURVE SMOOTH",
"145 54 OFFCURVE",
"91 89 OFFCURVE",
"58 125 CURVE",
"34 119 OFFCURVE",
"30 100 OFFCURVE",
"30 88 CURVE SMOOTH",
"30 35 OFFCURVE",
"108 -12 OFFCURVE",
"208 -12 CURVE SMOOTH"
);
}
);
width = 416;
}
);
leftKerningGroup = s;
note = s;
rightKerningGroup = s;
unicode = 0073;
},
{
glyphname = germandbls;
layers = (
{
layerId = "324B27C4-C4D5-407D-B181-631A50D9203C";
paths = (
{
closed = 1;
nodes = (
"551 -11 OFFCURVE",
"619 87 OFFCURVE",
"619 194 CURVE SMOOTH",
"619 294 OFFCURVE",
"559 348 OFFCURVE",
"448 365 CURVE",
"524 383 OFFCURVE",
"566 437 OFFCURVE",
"566 517 CURVE SMOOTH",
"566 637 OFFCURVE",
"470 714 OFFCURVE",
"319 714 CURVE SMOOTH",
"152 714 OFFCURVE",
"77 620 OFFCURVE",
"77 470 CURVE SMOOTH",
"77 -2 LINE",
"88 -5 OFFCURVE",
"98 -6 OFFCURVE",
"106 -6 CURVE",
"144 -6 OFFCURVE",
"165 20 OFFCURVE",
"165 59 CURVE SMOOTH",
"165 485 LINE SMOOTH",
"165 596 OFFCURVE",
"220 646 OFFCURVE",
"315 646 CURVE SMOOTH",
"412 646 OFFCURVE",
"478 593 OFFCURVE",
"478 512 CURVE SMOOTH",
"478 442 OFFCURVE",
"429 397 OFFCURVE",
"353 397 CURVE SMOOTH",
"289 397 LINE",
"289 329 LINE",
"351 329 LINE SMOOTH",
"465 329 OFFCURVE",
"527 291 OFFCURVE",
"527 210 CURVE SMOOTH",
"527 138 OFFCURVE",
"479 55 OFFCURVE",
"373 55 CURVE SMOOTH",
"319 55 OFFCURVE",
"271 76 OFFCURVE",
"245 121 CURVE",
"229 113 OFFCURVE",
"222 92 OFFCURVE",
"222 75 CURVE SMOOTH",
"222 18 OFFCURVE",
"301 -11 OFFCURVE",
"389 -11 CURVE SMOOTH"
);
}
);
width = 661;
}
);
note = uni00DF;
unicode = 00DF;
},
{
glyphname = t;
layers = (
{
anchors = (
{
name = bottom;
position = "{212, 0}";
},
{
name = center;
position = "{169, 255}";
},
{
name = top;
position = "{162, 644}";
},
{
name = topright;
position = "{298, 473}";
}
);
layerId = "324B27C4-C4D5-407D-B181-631A50D9203C";
paths = (
{
closed = 1;
nodes = (
"282 -8 OFFCURVE",
"318 10 OFFCURVE",
"318 42 CURVE SMOOTH",
"318 58 OFFCURVE",
"309 71 OFFCURVE",
"295 77 CURVE",
"279 70 OFFCURVE",
"264 67 OFFCURVE",
"250 67 CURVE SMOOTH",
"207 67 OFFCURVE",
"190 96 OFFCURVE",
"190 148 CURVE SMOOTH",
"190 640 LINE",
"180 643 OFFCURVE",
"170 644 OFFCURVE",
"162 644 CURVE SMOOTH",
"127 644 OFFCURVE",
"108 619 OFFCURVE",
"108 583 CURVE SMOOTH",
"108 148 LINE SMOOTH",
"108 53 OFFCURVE",
"157 -8 OFFCURVE",
"238 -8 CURVE SMOOTH"
);
},
{
closed = 1;
nodes = (
"263 446 LINE SMOOTH",
"291 446 OFFCURVE",
"310 461 OFFCURVE",
"310 488 CURVE SMOOTH",
"310 495 OFFCURVE",
"309 502 OFFCURVE",
"305 510 CURVE",
"75 510 LINE SMOOTH",
"47 510 OFFCURVE",
"28 495 OFFCURVE",
"28 468 CURVE SMOOTH",
"28 461 OFFCURVE",
"29 454 OFFCURVE",
"33 446 CURVE"
);
}
);
width = 338;
}
);
leftKerningGroup = t;
note = t;
rightKerningGroup = t;
unicode = 0074;
},
{
glyphname = tbar;
layers = (
{
components = (
{
name = t;
}
);
layerId = "324B27C4-C4D5-407D-B181-631A50D9203C";
paths = (
{
closed = 1;
nodes = (
"304 260 LINE",
"304 310 LINE",
"20 310 LINE",
"20 260 LINE"
);
}
);
width = 338;
}
);
leftKerningGroup = t;
note = tbar;
rightKerningGroup = t;
rightMetricsKey = t;
unicode = 0167;
},
{
glyphname = u;
layers = (
{
anchors = (
{
name = bottom;
position = "{263, 0}";
},
{
name = ogonek;
position = "{412, 10}";
},
{
name = top;
position = "{263, 510}";
},
{
name = topright;
position = "{452, 297}";
}
);
layerId = "324B27C4-C4D5-407D-B181-631A50D9203C";
paths = (
{
closed = 1;
nodes = (
"298 -12 OFFCURVE",
"343 25 OFFCURVE",
"370 73 CURVE",
"370 -2 LINE",
"380 -5 OFFCURVE",
"390 -6 OFFCURVE",
"398 -6 CURVE SMOOTH",
"433 -6 OFFCURVE",
"452 19 OFFCURVE",
"452 55 CURVE SMOOTH",
"452 512 LINE",
"442 515 OFFCURVE",
"432 516 OFFCURVE",
"424 516 CURVE SMOOTH",
"389 516 OFFCURVE",
"370 491 OFFCURVE",
"370 455 CURVE SMOOTH",
"370 274 LINE SMOOTH",
"370 114 OFFCURVE",
"324 56 OFFCURVE",
"248 56 CURVE SMOOTH",
"182 56 OFFCURVE",
"142 100 OFFCURVE",
"142 171 CURVE SMOOTH",
"142 512 LINE",
"132 515 OFFCURVE",
"122 516 OFFCURVE",
"114 516 CURVE SMOOTH",
"79 516 OFFCURVE",
"60 491 OFFCURVE",
"60 455 CURVE SMOOTH",
"60 177 LINE SMOOTH",
"60 52 OFFCURVE",
"130 -12 OFFCURVE",
"228 -12 CURVE SMOOTH"
);
}
);
width = 526;
}
);
leftKerningGroup = u;
note = u;
rightKerningGroup = u;
unicode = 0075;
},
{
glyphname = v;
layers = (
{
anchors = (
{
name = bottom;
position = "{222, 0}";
},
{
name = top;
position = "{232, 510}";
}
);
layerId = "324B27C4-C4D5-407D-B181-631A50D9203C";
paths = (
{
closed = 1;
nodes = (
"246 0 LINE",
"450 510 LINE",
"437 516 OFFCURVE",
"422 518 OFFCURVE",
"413 518 CURVE SMOOTH",
"386 518 OFFCURVE",
"365 503 OFFCURVE",
"352 470 CURVE SMOOTH",
"221 146 LINE",
"72 515 LINE",
"27 515 OFFCURVE",
"2 482 OFFCURVE",
"20 437 CURVE SMOOTH",
"196 0 LINE"
);
}
);
width = 464;
}
);
leftKerningGroup = v;
note = v;
rightKerningGroup = v;
unicode = 0076;
},
{
glyphname = w;
layers = (
{
anchors = (
{
name = bottom;
position = "{352, 0}";
},
{
name = top;
position = "{362, 510}";
}
);
layerId = "324B27C4-C4D5-407D-B181-631A50D9203C";
paths = (
{
closed = 1;
nodes = (
"225 0 LINE",
"353 400 LINE",
"481 0 LINE",
"530 0 LINE",
"705 510 LINE",
"693 514 OFFCURVE",
"679 516 OFFCURVE",
"670 516 CURVE SMOOTH",
"644 516 OFFCURVE",
"621 504 OFFCURVE",
"612 479 CURVE SMOOTH",
"503 159 LINE",
"393 510 LINE",
"384 514 OFFCURVE",
"367 516 OFFCURVE",
"358 516 CURVE SMOOTH",
"330 516 OFFCURVE",
"311 498 OFFCURVE",
"297 454 CURVE SMOOTH",
"203 156 LINE",
"79 516 LINE",
"33 516 OFFCURVE",
"5 494 OFFCURVE",
"24 440 CURVE SMOOTH",
"175 0 LINE"
);
}
);
width = 723;
}
);
leftKerningGroup = w;
note = w;
rightKerningGroup = w;
unicode = 0077;
},
{
glyphname = x;
layers = (
{
anchors = (
{
name = bottom;
position = "{226, 0}";
},
{
name = top;
position = "{226, 510}";
}
);
layerId = "324B27C4-C4D5-407D-B181-631A50D9203C";
paths = (
{
closed = 1;
nodes = (
"86 -6 OFFCURVE",
"112 8 OFFCURVE",
"129 35 CURVE SMOOTH",
"426 509 LINE",
"413 515 OFFCURVE",
"395 516 OFFCURVE",
"386 516 CURVE SMOOTH",
"364 516 OFFCURVE",
"336 503 OFFCURVE",
"318 475 CURVE SMOOTH",
"18 1 LINE",
"28 -3 OFFCURVE",
"46 -6 OFFCURVE",
"58 -6 CURVE SMOOTH"
);
},
{
closed = 1;
nodes = (
"418 -6 OFFCURVE",
"454 21 OFFCURVE",
"422 66 CURVE SMOOTH",
"106 516 LINE",
"63 516 OFFCURVE",
"28 492 OFFCURVE",
"57 451 CURVE SMOOTH",
"375 -6 LINE"
);
}
);
width = 452;
}
);
leftKerningGroup = x;
note = x;
rightKerningGroup = x;
unicode = 0078;
},
{
glyphname = y;
layers = (
{
anchors = (
{
name = bottom;
position = "{329, 0}";
},
{
name = top;
position = "{233, 510}";
}
);
layerId = "324B27C4-C4D5-407D-B181-631A50D9203C";
paths = (
{
closed = 1;
nodes = (
"151 -170 OFFCURVE",
"202 -123 OFFCURVE",
"229 -50 CURVE SMOOTH",
"451 510 LINE",
"438 516 OFFCURVE",
"423 518 OFFCURVE",
"414 518 CURVE SMOOTH",
"387 518 OFFCURVE",
"366 503 OFFCURVE",
"353 470 CURVE SMOOTH",
"222 146 LINE",
"73 515 LINE",
"28 515 OFFCURVE",
"3 482 OFFCURVE",
"21 437 CURVE SMOOTH",
"182 46 LINE",
"152 -26 LINE SMOOTH",
"130 -80 OFFCURVE",
"111 -97 OFFCURVE",
"83 -97 CURVE SMOOTH",
"68 -97 OFFCURVE",
"51 -92 OFFCURVE",
"33 -85 CURVE",
"19 -90 OFFCURVE",
"10 -104 OFFCURVE",
"10 -120 CURVE SMOOTH",
"10 -150 OFFCURVE",
"42 -170 OFFCURVE",
"85 -170 CURVE SMOOTH"
);
}
);
width = 465;
}
);
leftKerningGroup = y;
note = y;
rightKerningGroup = v;
rightMetricsKey = v;
unicode = 0079;
},
{
glyphname = z;
layers = (
{
anchors = (
{
name = bottom;
position = "{211, 0}";
},
{
name = top;
position = "{211, 510}";
}
);
layerId = "324B27C4-C4D5-407D-B181-631A50D9203C";
paths = (
{
closed = 1;
nodes = (
"358 0 LINE SMOOTH",
"386 0 OFFCURVE",
"407 15 OFFCURVE",
"407 43 CURVE SMOOTH",
"407 49 OFFCURVE",
"406 58 OFFCURVE",
"404 66 CURVE",
"125 66 LINE",
"391 478 LINE",
"391 510 LINE",
"85 510 LINE SMOOTH",
"57 510 OFFCURVE",
"36 495 OFFCURVE",
"36 467 CURVE SMOOTH",
"36 461 OFFCURVE",
"37 452 OFFCURVE",
"39 444 CURVE",
"279 444 LINE",
"12 32 LINE",
"12 0 LINE"
);
}
);
width = 421;
}
);
leftKerningGroup = z;
note = z;
rightKerningGroup = z;
unicode = 007A;
},
{
glyphname = ordfeminine;
lastChange = "2018-03-12 19:44:16 +0000";
layers = (
{
layerId = "324B27C4-C4D5-407D-B181-631A50D9203C";
paths = (
{
closed = 1;
nodes = (
"189 393 OFFCURVE",
"209 403 OFFCURVE",
"225 428 CURVE",
"225 399 LINE",
"233 398 OFFCURVE",
"239 397 OFFCURVE",
"244 397 CURVE SMOOTH",
"269 397 OFFCURVE",
"283 414 OFFCURVE",
"283 439 CURVE SMOOTH",
"283 599 LINE SMOOTH",
"283 669 OFFCURVE",
"244 714 OFFCURVE",
"161 714 CURVE SMOOTH",
"112 714 OFFCURVE",
"53 700 OFFCURVE",
"53 654 CURVE SMOOTH",
"53 644 OFFCURVE",
"55 629 OFFCURVE",
"75 621 CURVE",
"94 649 OFFCURVE",
"119 667 OFFCURVE",
"158 667 CURVE SMOOTH",
"203 667 OFFCURVE",
"227 643 OFFCURVE",
"227 599 CURVE SMOOTH",
"227 576 LINE",
"211 584 OFFCURVE",
"195 591 OFFCURVE",
"166 591 CURVE SMOOTH",
"94 591 OFFCURVE",
"50 549 OFFCURVE",
"50 488 CURVE SMOOTH",
"50 430 OFFCURVE",
"90 393 OFFCURVE",
"154 393 CURVE SMOOTH"
);
},
{
closed = 1;
nodes = (
"128 439 OFFCURVE",
"108 455 OFFCURVE",
"108 489 CURVE SMOOTH",
"108 527 OFFCURVE",
"132 547 OFFCURVE",
"176 547 CURVE SMOOTH",
"213 547 OFFCURVE",
"227 530 OFFCURVE",
"227 506 CURVE SMOOTH",
"227 492 LINE SMOOTH",
"227 459 OFFCURVE",
"205 439 OFFCURVE",
"165 439 CURVE SMOOTH"
);
}
);
width = 334;
}
);
note = ordfeminine;
unicode = 00AA;
},
{
glyphname = ordmasculine;
lastChange = "2018-03-12 19:44:16 +0000";
layers = (
{
hints = (
{
place = "{303.804, 0}";
}
);
layerId = "324B27C4-C4D5-407D-B181-631A50D9203C";
paths = (
{
closed = 1;
nodes = (
"268 393 OFFCURVE",
"323 456 OFFCURVE",
"323 554 CURVE SMOOTH",
"323 652 OFFCURVE",
"268 715 OFFCURVE",
"183 715 CURVE SMOOTH",
"98 715 OFFCURVE",
"44 652 OFFCURVE",
"44 554 CURVE SMOOTH",
"44 456 OFFCURVE",
"98 393 OFFCURVE",
"183 393 CURVE SMOOTH"
);
},
{
closed = 1;
nodes = (
"134 445 OFFCURVE",
"103 488 OFFCURVE",
"103 554 CURVE SMOOTH",
"103 620 OFFCURVE",
"134 663 OFFCURVE",
"183 663 CURVE SMOOTH",
"232 663 OFFCURVE",
"263 620 OFFCURVE",
"263 554 CURVE SMOOTH",
"263 488 OFFCURVE",
"232 445 OFFCURVE",
"183 445 CURVE SMOOTH"
);
}
);
width = 367;
}
);
note = ordmasculine;
unicode = 00BA;
},
{
glyphname = nmod;
layers = (
{
layerId = "324B27C4-C4D5-407D-B181-631A50D9203C";
paths = (
{
closed = 1;
nodes = (
"100 397 OFFCURVE",
"114 414 OFFCURVE",
"114 439 CURVE SMOOTH",
"114 537 LINE SMOOTH",
"114 638 OFFCURVE",
"138 666 OFFCURVE",
"180 666 CURVE SMOOTH",
"219 666 OFFCURVE",
"240 643 OFFCURVE",
"240 605 CURVE SMOOTH",
"240 399 LINE",
"247 398 OFFCURVE",
"255 397 OFFCURVE",
"260 397 CURVE SMOOTH",
"285 397 OFFCURVE",
"299 414 OFFCURVE",
"299 439 CURVE SMOOTH",
"299 600 LINE SMOOTH",
"299 678 OFFCURVE",
"256 715 OFFCURVE",
"196 715 CURVE SMOOTH",
"155 715 OFFCURVE",
"130 695 OFFCURVE",
"114 669 CURVE",
"114 709 LINE",
"107 710 OFFCURVE",
"99 711 OFFCURVE",
"94 711 CURVE SMOOTH",
"69 711 OFFCURVE",
"55 694 OFFCURVE",
"55 669 CURVE SMOOTH",
"55 399 LINE",
"62 398 OFFCURVE",
"70 397 OFFCURVE",
"75 397 CURVE SMOOTH"
);
}
);
width = 354;
}
);
note = uni207F;
unicode = 207F;
},
{
glyphname = Delta;
layers = (
{
layerId = "324B27C4-C4D5-407D-B181-631A50D9203C";
paths = (
{
closed = 1;
nodes = (
"544 0 LINE",
"544 32 LINE",
"300 700 LINE",
"268 700 LINE",
"24 32 LINE",
"24 0 LINE"
);
},
{
closed = 1;
nodes = (
"284 562 LINE",
"469 55 LINE",
"99 55 LINE"
);
}
);
width = 568;
}
);
note = Delta;
unicode = 0394;
},
{
glyphname = Omega;
layers = (
{
layerId = "324B27C4-C4D5-407D-B181-631A50D9203C";
paths = (
{
closed = 1;
nodes = (
"315 198 LINE",
"209 215 OFFCURVE",
"144 296 OFFCURVE",
"144 417 CURVE SMOOTH",
"144 553 OFFCURVE",
"226 640 OFFCURVE",
"356 640 CURVE SMOOTH",
"487 640 OFFCURVE",
"570 553 OFFCURVE",
"570 417 CURVE SMOOTH",
"570 296 OFFCURVE",
"504 214 OFFCURVE",
"397 198 CURVE",
"397 123 LINE",
"560 138 OFFCURVE",
"662 249 OFFCURVE",
"662 417 CURVE SMOOTH",
"662 599 OFFCURVE",
"543 714 OFFCURVE",
"356 714 CURVE SMOOTH",
"170 714 OFFCURVE",
"52 599 OFFCURVE",
"52 417 CURVE SMOOTH",
"52 250 OFFCURVE",
"153 139 OFFCURVE",
"315 123 CURVE"
);
},
{
closed = 1;
nodes = (
"262 0 LINE",
"262 76 LINE",
"93 76 LINE SMOOTH",
"60 76 OFFCURVE",
"36 59 OFFCURVE",
"36 26 CURVE SMOOTH",
"36 19 OFFCURVE",
"37 9 OFFCURVE",
"40 0 CURVE"
);
},
{
closed = 1;
nodes = (
"315 0 LINE",
"315 168 LINE",
"233 168 LINE",
"233 0 LINE"
);
},
{
closed = 1;
nodes = (
"479 0 LINE",
"479 168 LINE",
"397 168 LINE",
"397 0 LINE"
);
},
{
closed = 1;
nodes = (
"621 0 LINE SMOOTH",
"654 0 OFFCURVE",
"678 17 OFFCURVE",
"678 50 CURVE SMOOTH",
"678 57 OFFCURVE",
"677 67 OFFCURVE",
"674 76 CURVE",
"452 76 LINE",
"452 0 LINE"
);
}
);
width = 714;
}
);
note = Omega;
unicode = 03A9;
},
{
glyphname = mu;
layers = (
{
layerId = "324B27C4-C4D5-407D-B181-631A50D9203C";
paths = (
{
closed = 1;
nodes = (
"137 -166 OFFCURVE",
"156 -141 OFFCURVE",
"156 -105 CURVE SMOOTH",
"156 29 LINE",
"176 3 OFFCURVE",
"219 -12 OFFCURVE",
"248 -12 CURVE SMOOTH",
"318 -12 OFFCURVE",
"357 25 OFFCURVE",
"384 73 CURVE",
"384 -2 LINE",
"394 -5 OFFCURVE",
"404 -6 OFFCURVE",
"412 -6 CURVE SMOOTH",
"447 -6 OFFCURVE",
"466 19 OFFCURVE",
"466 55 CURVE SMOOTH",
"466 512 LINE",
"456 515 OFFCURVE",
"446 516 OFFCURVE",
"438 516 CURVE SMOOTH",
"403 516 OFFCURVE",
"384 491 OFFCURVE",
"384 455 CURVE SMOOTH",
"384 274 LINE SMOOTH",
"384 114 OFFCURVE",
"338 56 OFFCURVE",
"262 56 CURVE SMOOTH",
"196 56 OFFCURVE",
"156 100 OFFCURVE",
"156 171 CURVE SMOOTH",
"156 512 LINE",
"146 515 OFFCURVE",
"136 516 OFFCURVE",
"128 516 CURVE SMOOTH",
"93 516 OFFCURVE",
"74 491 OFFCURVE",
"74 455 CURVE SMOOTH",
"74 -162 LINE",
"84 -165 OFFCURVE",
"94 -166 OFFCURVE",
"102 -166 CURVE SMOOTH"
);
}
);
width = 540;
}
);
leftMetricsKey = "=|";
note = mu;
rightMetricsKey = u;
unicode = 03BC;
},
{
glyphname = pi;
layers = (
{
layerId = "324B27C4-C4D5-407D-B181-631A50D9203C";
paths = (
{
closed = 1;
nodes = (
"504 -8 OFFCURVE",
"540 10 OFFCURVE",
"540 42 CURVE SMOOTH",
"540 58 OFFCURVE",
"531 71 OFFCURVE",
"517 77 CURVE",
"501 70 OFFCURVE",
"486 67 OFFCURVE",
"472 67 CURVE SMOOTH",
"429 67 OFFCURVE",
"412 96 OFFCURVE",
"412 148 CURVE SMOOTH",
"412 446 LINE",
"485 446 LINE SMOOTH",
"513 446 OFFCURVE",
"532 461 OFFCURVE",
"532 488 CURVE SMOOTH",
"532 495 OFFCURVE",
"531 502 OFFCURVE",
"527 510 CURVE",
"87 510 LINE SMOOTH",
"59 510 OFFCURVE",
"40 495 OFFCURVE",
"40 468 CURVE SMOOTH",
"40 461 OFFCURVE",
"41 454 OFFCURVE",
"45 446 CURVE",
"128 446 LINE",
"128 -2 LINE",
"138 -5 OFFCURVE",
"148 -6 OFFCURVE",
"156 -6 CURVE SMOOTH",
"191 -6 OFFCURVE",
"210 19 OFFCURVE",
"210 55 CURVE SMOOTH",
"210 446 LINE",
"330 446 LINE",
"330 148 LINE SMOOTH",
"330 53 OFFCURVE",
"379 -8 OFFCURVE",
"460 -8 CURVE SMOOTH"
);
}
);
width = 580;
}
);
note = pi;
unicode = 03C0;
},
{
glyphname = "koKai-thai";
layers = (
{
anchors = (
{
name = bottom;
position = "{496, 0}";
},
{
name = top;
position = "{486, 510}";
}
);
layerId = "324B27C4-C4D5-407D-B181-631A50D9203C";
paths = (
{
closed = 1;
nodes = (
"477 -6 OFFCURVE",
"496 19 OFFCURVE",
"496 55 CURVE SMOOTH",
"496 349 LINE SMOOTH",
"496 389 OFFCURVE",
"499 406 OFFCURVE",
"514 420 CURVE",
"508 436 LINE",
"490 440 OFFCURVE",
"478 445 OFFCURVE",
"450 462 CURVE SMOOTH",
"322 540 LINE SMOOTH",
"297 555 OFFCURVE",
"267 562 OFFCURVE",
"237 562 CURVE SMOOTH",
"145 562 OFFCURVE",
"71 495 OFFCURVE",
"24 404 CURVE",
"24 399 LINE",
"68 386 OFFCURVE",
"110 358 OFFCURVE",
"131 321 CURVE",
"179 352 LINE",
"161 390 OFFCURVE",
"123 418 OFFCURVE",
"74 427 CURVE",
"99 395 LINE",
"124 456 OFFCURVE",
"173 494 OFFCURVE",
"232 494 CURVE SMOOTH",
"259 494 OFFCURVE",
"283 486 OFFCURVE",
"308 470 CURVE SMOOTH",
"378 425 LINE SMOOTH",
"411 404 OFFCURVE",
"428 398 OFFCURVE",
"452 396 CURVE",
"438 417 LINE",
"418 398 OFFCURVE",
"414 377 OFFCURVE",
"414 345 CURVE SMOOTH",
"414 -2 LINE",
"424 -5 OFFCURVE",
"434 -6 OFFCURVE",
"441 -6 CURVE SMOOTH"
);
},
{
closed = 1;
nodes = (
"163 -6 OFFCURVE",
"182 19 OFFCURVE",
"182 55 CURVE SMOOTH",
"182 235 LINE SMOOTH",
"182 321 OFFCURVE",
"205 357 OFFCURVE",
"270 375 CURVE",
"270 381 LINE",
"254 390 OFFCURVE",
"236 396 OFFCURVE",
"211 396 CURVE SMOOTH",
"144 396 OFFCURVE",
"100 352 OFFCURVE",
"100 235 CURVE SMOOTH",
"100 -2 LINE",
"110 -5 OFFCURVE",
"120 -6 OFFCURVE",
"127 -6 CURVE SMOOTH"
);
}
);
width = 580;
}
);
note = uni0E01;
unicode = 0E01;
},
{
glyphname = "thoThung-thai";
layers = (
{
anchors = (
{
name = bottom;
position = "{502, 0}";
},
{
name = top;
position = "{492, 510}";
}
);
layerId = "324B27C4-C4D5-407D-B181-631A50D9203C";
paths = (
{
closed = 1;
nodes = (
"483 -6 OFFCURVE",
"502 19 OFFCURVE",
"502 55 CURVE SMOOTH",
"502 349 LINE SMOOTH",
"502 389 OFFCURVE",
"505 406 OFFCURVE",
"520 420 CURVE",
"514 436 LINE",
"496 440 OFFCURVE",
"484 445 OFFCURVE",
"456 462 CURVE SMOOTH",
"328 540 LINE SMOOTH",
"303 555 OFFCURVE",
"276 562 OFFCURVE",
"245 562 CURVE SMOOTH",
"147 562 OFFCURVE",
"68 492 OFFCURVE",
"22 404 CURVE",
"22 399 LINE",
"66 386 OFFCURVE",
"108 358 OFFCURVE",
"129 321 CURVE",
"177 352 LINE",
"159 390 OFFCURVE",
"121 418 OFFCURVE",
"72 427 CURVE",
"97 395 LINE",
"120 451 OFFCURVE",
"174 494 OFFCURVE",
"238 494 CURVE SMOOTH",
"265 494 OFFCURVE",
"289 486 OFFCURVE",
"314 470 CURVE SMOOTH",
"384 425 LINE SMOOTH",
"417 404 OFFCURVE",
"434 398 OFFCURVE",
"458 396 CURVE",
"444 417 LINE",
"424 398 OFFCURVE",
"420 377 OFFCURVE",
"420 345 CURVE SMOOTH",
"420 -2 LINE",
"430 -5 OFFCURVE",
"440 -6 OFFCURVE",
"447 -6 CURVE SMOOTH"
);
},
{
closed = 1;
nodes = (
"173 40 OFFCURVE",
"156 58 OFFCURVE",
"156 84 CURVE SMOOTH",
"156 110 OFFCURVE",
"173 128 OFFCURVE",
"196 128 CURVE SMOOTH",
"219 128 OFFCURVE",
"236 110 OFFCURVE",
"236 84 CURVE SMOOTH",
"236 58 OFFCURVE",
"219 40 OFFCURVE",
"196 40 CURVE SMOOTH"
);
},
{
closed = 1;
nodes = (
"249 -8 OFFCURVE",
"290 31 OFFCURVE",
"290 86 CURVE SMOOTH",
"290 136 OFFCURVE",
"256 172 OFFCURVE",
"206 172 CURVE SMOOTH",
"174 172 OFFCURVE",
"154 157 OFFCURVE",
"145 137 CURVE",
"170 137 LINE",
"178 161 OFFCURVE",
"180 176 OFFCURVE",
"180 197 CURVE SMOOTH",
"180 235 LINE SMOOTH",
"180 321 OFFCURVE",
"203 357 OFFCURVE",
"268 375 CURVE",
"268 381 LINE",
"252 390 OFFCURVE",
"234 396 OFFCURVE",
"209 396 CURVE SMOOTH",
"142 396 OFFCURVE",
"98 352 OFFCURVE",
"98 235 CURVE SMOOTH",
"98 92 LINE SMOOTH",
"98 31 OFFCURVE",
"135 -8 OFFCURVE",
"192 -8 CURVE SMOOTH"
);
}
);
width = 586;
}
);
note = uni0E16;
rightMetricsKey = "koKai-thai";
unicode = 0E16;
},
{
glyphname = "phoSamphao-thai";
layers = (
{
anchors = (
{
name = bottom;
position = "{526, 0}";
},
{
name = top;
position = "{516, 510}";
}
);
layerId = "324B27C4-C4D5-407D-B181-631A50D9203C";
paths = (
{
closed = 1;
nodes = (
"507 -6 OFFCURVE",
"526 19 OFFCURVE",
"526 55 CURVE SMOOTH",
"526 349 LINE SMOOTH",
"526 389 OFFCURVE",
"529 406 OFFCURVE",
"544 420 CURVE",
"538 436 LINE",
"520 440 OFFCURVE",
"508 445 OFFCURVE",
"480 462 CURVE SMOOTH",
"352 540 LINE SMOOTH",
"327 555 OFFCURVE",
"297 562 OFFCURVE",
"267 562 CURVE SMOOTH",
"175 562 OFFCURVE",
"93 495 OFFCURVE",
"46 404 CURVE",
"46 399 LINE",
"90 386 OFFCURVE",
"136 358 OFFCURVE",
"161 321 CURVE",
"209 352 LINE",
"187 390 OFFCURVE",
"145 418 OFFCURVE",
"96 427 CURVE",
"121 395 LINE",
"146 456 OFFCURVE",
"203 494 OFFCURVE",
"262 494 CURVE SMOOTH",
"289 494 OFFCURVE",
"313 486 OFFCURVE",
"338 470 CURVE SMOOTH",
"408 425 LINE SMOOTH",
"441 404 OFFCURVE",
"458 398 OFFCURVE",
"482 396 CURVE",
"468 417 LINE",
"448 398 OFFCURVE",
"444 377 OFFCURVE",
"444 345 CURVE SMOOTH",
"444 -2 LINE",
"454 -5 OFFCURVE",
"464 -6 OFFCURVE",
"471 -6 CURVE SMOOTH"
);
},
{
closed = 1;
nodes = (
"99 40 OFFCURVE",
"82 58 OFFCURVE",
"82 84 CURVE SMOOTH",
"82 110 OFFCURVE",
"99 128 OFFCURVE",
"122 128 CURVE SMOOTH",
"145 128 OFFCURVE",
"162 110 OFFCURVE",
"162 84 CURVE SMOOTH",
"162 58 OFFCURVE",
"145 40 OFFCURVE",
"122 40 CURVE SMOOTH"
);
},
{
closed = 1;
nodes = (
"183 -8 OFFCURVE",
"220 31 OFFCURVE",
"220 92 CURVE SMOOTH",
"220 235 LINE SMOOTH",
"220 321 OFFCURVE",
"243 357 OFFCURVE",
"308 375 CURVE",
"308 381 LINE",
"292 390 OFFCURVE",
"274 396 OFFCURVE",
"249 396 CURVE SMOOTH",
"182 396 OFFCURVE",
"138 352 OFFCURVE",
"138 235 CURVE SMOOTH",
"138 197 LINE SMOOTH",
"138 176 OFFCURVE",
"140 161 OFFCURVE",
"148 137 CURVE",
"173 137 LINE",
"164 157 OFFCURVE",
"144 172 OFFCURVE",
"112 172 CURVE SMOOTH",
"62 172 OFFCURVE",
"28 136 OFFCURVE",
"28 86 CURVE SMOOTH",
"28 31 OFFCURVE",
"69 -8 OFFCURVE",
"126 -8 CURVE SMOOTH"
);
}
);
width = 610;
}
);
note = uni0E20;
rightMetricsKey = "koKai-thai";
unicode = 0E20;
},
{
glyphname = "ru-thai";
layers = (
{
anchors = (
{
name = bottom;
position = "{502, -256}";
},
{
name = top;
position = "{492, 510}";
}
);
layerId = "324B27C4-C4D5-407D-B181-631A50D9203C";
paths = (
{
closed = 1;
nodes = (
"483 -256 OFFCURVE",
"502 -231 OFFCURVE",
"502 -195 CURVE SMOOTH",
"502 349 LINE SMOOTH",
"502 389 OFFCURVE",
"505 406 OFFCURVE",
"520 420 CURVE",
"514 436 LINE",
"496 440 OFFCURVE",
"484 445 OFFCURVE",
"456 462 CURVE SMOOTH",
"328 540 LINE SMOOTH",
"303 555 OFFCURVE",
"276 562 OFFCURVE",
"245 562 CURVE SMOOTH",
"147 562 OFFCURVE",
"68 492 OFFCURVE",
"22 404 CURVE",
"22 399 LINE",
"66 386 OFFCURVE",
"108 358 OFFCURVE",
"129 321 CURVE",
"177 352 LINE",
"159 390 OFFCURVE",
"121 418 OFFCURVE",
"72 427 CURVE",
"97 395 LINE",
"120 451 OFFCURVE",
"174 494 OFFCURVE",
"238 494 CURVE SMOOTH",
"265 494 OFFCURVE",
"289 486 OFFCURVE",
"314 470 CURVE SMOOTH",
"384 425 LINE SMOOTH",
"417 404 OFFCURVE",
"434 398 OFFCURVE",
"458 396 CURVE",
"444 417 LINE",
"424 398 OFFCURVE",
"420 377 OFFCURVE",
"420 345 CURVE SMOOTH",
"420 -252 LINE",
"430 -255 OFFCURVE",
"440 -256 OFFCURVE",
"447 -256 CURVE SMOOTH"
);
},
{
closed = 1;
nodes = (
"173 40 OFFCURVE",
"156 58 OFFCURVE",
"156 84 CURVE SMOOTH",
"156 110 OFFCURVE",
"173 128 OFFCURVE",
"196 128 CURVE SMOOTH",
"219 128 OFFCURVE",
"236 110 OFFCURVE",
"236 84 CURVE SMOOTH",
"236 58 OFFCURVE",
"219 40 OFFCURVE",
"196 40 CURVE SMOOTH"
);
},
{
closed = 1;
nodes = (
"249 -8 OFFCURVE",
"290 31 OFFCURVE",
"290 86 CURVE SMOOTH",
"290 136 OFFCURVE",
"256 172 OFFCURVE",
"206 172 CURVE SMOOTH",
"174 172 OFFCURVE",
"154 157 OFFCURVE",
"145 137 CURVE",
"170 137 LINE",
"178 161 OFFCURVE",
"180 176 OFFCURVE",
"180 197 CURVE SMOOTH",
"180 235 LINE SMOOTH",
"180 321 OFFCURVE",
"203 357 OFFCURVE",
"268 375 CURVE",
"268 381 LINE",
"252 390 OFFCURVE",
"234 396 OFFCURVE",
"209 396 CURVE SMOOTH",
"142 396 OFFCURVE",
"98 352 OFFCURVE",
"98 235 CURVE SMOOTH",
"98 92 LINE SMOOTH",
"98 31 OFFCURVE",
"135 -8 OFFCURVE",
"192 -8 CURVE SMOOTH"
);
}
);
width = 586;
}
);
leftMetricsKey = "thoThung-thai";
note = uni0E24;
rightMetricsKey = "koKai-thai";
unicode = 0E24;
},
{
glyphname = "ru-thai.short";
layers = (
{
anchors = (
{
name = bottom;
position = "{502, -196}";
},
{
name = top;
position = "{492, 510}";
}
);
layerId = "324B27C4-C4D5-407D-B181-631A50D9203C";
paths = (
{
closed = 1;
nodes = (
"483 -196 OFFCURVE",
"502 -171 OFFCURVE",
"502 -135 CURVE SMOOTH",
"502 349 LINE SMOOTH",
"502 389 OFFCURVE",
"505 406 OFFCURVE",
"520 420 CURVE",
"514 436 LINE",
"496 440 OFFCURVE",
"484 445 OFFCURVE",
"456 462 CURVE SMOOTH",
"328 540 LINE SMOOTH",
"303 555 OFFCURVE",
"276 562 OFFCURVE",
"245 562 CURVE SMOOTH",
"147 562 OFFCURVE",
"68 492 OFFCURVE",
"22 404 CURVE",
"22 399 LINE",
"66 386 OFFCURVE",
"108 358 OFFCURVE",
"129 321 CURVE",
"177 352 LINE",
"159 390 OFFCURVE",
"121 418 OFFCURVE",
"72 427 CURVE",
"97 395 LINE",
"120 451 OFFCURVE",
"174 494 OFFCURVE",
"238 494 CURVE SMOOTH",
"265 494 OFFCURVE",
"289 486 OFFCURVE",
"314 470 CURVE SMOOTH",
"384 425 LINE SMOOTH",
"417 404 OFFCURVE",
"434 398 OFFCURVE",
"458 396 CURVE",
"444 417 LINE",
"424 398 OFFCURVE",
"420 377 OFFCURVE",
"420 345 CURVE SMOOTH",
"420 -192 LINE",
"430 -195 OFFCURVE",
"440 -196 OFFCURVE",
"447 -196 CURVE SMOOTH"
);
},
{
closed = 1;
nodes = (
"173 40 OFFCURVE",
"156 58 OFFCURVE",
"156 84 CURVE SMOOTH",
"156 110 OFFCURVE",
"173 128 OFFCURVE",
"196 128 CURVE SMOOTH",
"219 128 OFFCURVE",
"236 110 OFFCURVE",
"236 84 CURVE SMOOTH",
"236 58 OFFCURVE",
"219 40 OFFCURVE",
"196 40 CURVE SMOOTH"
);
},
{
closed = 1;
nodes = (
"249 -8 OFFCURVE",
"290 31 OFFCURVE",
"290 86 CURVE SMOOTH",
"290 136 OFFCURVE",
"256 172 OFFCURVE",
"206 172 CURVE SMOOTH",
"174 172 OFFCURVE",
"154 157 OFFCURVE",
"145 137 CURVE",
"170 137 LINE",
"178 161 OFFCURVE",
"180 176 OFFCURVE",
"180 197 CURVE SMOOTH",
"180 235 LINE SMOOTH",
"180 321 OFFCURVE",
"203 357 OFFCURVE",
"268 375 CURVE",
"268 381 LINE",
"252 390 OFFCURVE",
"234 396 OFFCURVE",
"209 396 CURVE SMOOTH",
"142 396 OFFCURVE",
"98 352 OFFCURVE",
"98 235 CURVE SMOOTH",
"98 92 LINE SMOOTH",
"98 31 OFFCURVE",
"135 -8 OFFCURVE",
"192 -8 CURVE SMOOTH"
);
}
);
width = 586;
}
);
leftMetricsKey = "ru-thai";
note = "ru-thai.short";
rightMetricsKey = "koKai-thai";
},
{
glyphname = "lu-thai";
layers = (
{
anchors = (
{
name = bottom;
position = "{526, -256}";
},
{
name = top;
position = "{516, 510}";
}
);
layerId = "324B27C4-C4D5-407D-B181-631A50D9203C";
paths = (
{
closed = 1;
nodes = (
"507 -256 OFFCURVE",
"526 -231 OFFCURVE",
"526 -195 CURVE SMOOTH",
"526 349 LINE SMOOTH",
"526 389 OFFCURVE",
"529 406 OFFCURVE",
"544 420 CURVE",
"538 436 LINE",
"520 440 OFFCURVE",
"508 445 OFFCURVE",
"480 462 CURVE SMOOTH",
"352 540 LINE SMOOTH",
"327 555 OFFCURVE",
"297 562 OFFCURVE",
"267 562 CURVE SMOOTH",
"175 562 OFFCURVE",
"93 495 OFFCURVE",
"46 404 CURVE",
"46 399 LINE",
"90 386 OFFCURVE",
"136 358 OFFCURVE",
"161 321 CURVE",
"209 352 LINE",
"187 390 OFFCURVE",
"145 418 OFFCURVE",
"96 427 CURVE",
"121 395 LINE",
"146 456 OFFCURVE",
"203 494 OFFCURVE",
"262 494 CURVE SMOOTH",
"289 494 OFFCURVE",
"313 486 OFFCURVE",
"338 470 CURVE SMOOTH",
"408 425 LINE SMOOTH",
"441 404 OFFCURVE",
"458 398 OFFCURVE",
"482 396 CURVE",
"468 417 LINE",
"448 398 OFFCURVE",
"444 377 OFFCURVE",
"444 345 CURVE SMOOTH",
"444 -252 LINE",
"454 -255 OFFCURVE",
"464 -256 OFFCURVE",
"471 -256 CURVE SMOOTH"
);
},
{
closed = 1;
nodes = (
"99 40 OFFCURVE",
"82 58 OFFCURVE",
"82 84 CURVE SMOOTH",
"82 110 OFFCURVE",
"99 128 OFFCURVE",
"122 128 CURVE SMOOTH",
"145 128 OFFCURVE",
"162 110 OFFCURVE",
"162 84 CURVE SMOOTH",
"162 58 OFFCURVE",
"145 40 OFFCURVE",
"122 40 CURVE SMOOTH"
);
},
{
closed = 1;
nodes = (
"183 -8 OFFCURVE",
"220 31 OFFCURVE",
"220 92 CURVE SMOOTH",
"220 235 LINE SMOOTH",
"220 321 OFFCURVE",
"243 357 OFFCURVE",
"308 375 CURVE",
"308 381 LINE",
"292 390 OFFCURVE",
"274 396 OFFCURVE",
"249 396 CURVE SMOOTH",
"182 396 OFFCURVE",
"138 352 OFFCURVE",
"138 235 CURVE SMOOTH",
"138 197 LINE SMOOTH",
"138 176 OFFCURVE",
"140 161 OFFCURVE",
"148 137 CURVE",
"173 137 LINE",
"164 157 OFFCURVE",
"144 172 OFFCURVE",
"112 172 CURVE SMOOTH",
"62 172 OFFCURVE",
"28 136 OFFCURVE",
"28 86 CURVE SMOOTH",
"28 31 OFFCURVE",
"69 -8 OFFCURVE",
"126 -8 CURVE SMOOTH"
);
}
);
width = 610;
}
);
leftMetricsKey = "phoSamphao-thai";
note = uni0E26;
rightMetricsKey = "koKai-thai";
unicode = 0E26;
},
{
glyphname = "lu-thai.short";
layers = (
{
anchors = (
{
name = bottom;
position = "{526, -196}";
},
{
name = top;
position = "{516, 510}";
}
);
layerId = "324B27C4-C4D5-407D-B181-631A50D9203C";
paths = (
{
closed = 1;
nodes = (
"507 -196 OFFCURVE",
"526 -171 OFFCURVE",
"526 -135 CURVE SMOOTH",
"526 349 LINE SMOOTH",
"526 389 OFFCURVE",
"529 406 OFFCURVE",
"544 420 CURVE",
"538 436 LINE",
"520 440 OFFCURVE",
"508 445 OFFCURVE",
"480 462 CURVE SMOOTH",
"352 540 LINE SMOOTH",
"327 555 OFFCURVE",
"297 562 OFFCURVE",
"267 562 CURVE SMOOTH",
"175 562 OFFCURVE",
"93 495 OFFCURVE",
"46 404 CURVE",
"46 399 LINE",
"90 386 OFFCURVE",
"136 358 OFFCURVE",
"161 321 CURVE",
"209 352 LINE",
"187 390 OFFCURVE",
"145 418 OFFCURVE",
"96 427 CURVE",
"121 395 LINE",
"146 456 OFFCURVE",
"203 494 OFFCURVE",
"262 494 CURVE SMOOTH",
"289 494 OFFCURVE",
"313 486 OFFCURVE",
"338 470 CURVE SMOOTH",
"408 425 LINE SMOOTH",
"441 404 OFFCURVE",
"458 398 OFFCURVE",
"482 396 CURVE",
"468 417 LINE",
"448 398 OFFCURVE",
"444 377 OFFCURVE",
"444 345 CURVE SMOOTH",
"444 -192 LINE",
"454 -195 OFFCURVE",
"464 -196 OFFCURVE",
"471 -196 CURVE SMOOTH"
);
},
{
closed = 1;
nodes = (
"99 40 OFFCURVE",
"82 58 OFFCURVE",
"82 84 CURVE SMOOTH",
"82 110 OFFCURVE",
"99 128 OFFCURVE",
"122 128 CURVE SMOOTH",
"145 128 OFFCURVE",
"162 110 OFFCURVE",
"162 84 CURVE SMOOTH",
"162 58 OFFCURVE",
"145 40 OFFCURVE",
"122 40 CURVE SMOOTH"
);
},
{
closed = 1;
nodes = (
"183 -8 OFFCURVE",
"220 31 OFFCURVE",
"220 92 CURVE SMOOTH",
"220 235 LINE SMOOTH",
"220 321 OFFCURVE",
"243 357 OFFCURVE",
"308 375 CURVE",
"308 381 LINE",
"292 390 OFFCURVE",
"274 396 OFFCURVE",
"249 396 CURVE SMOOTH",
"182 396 OFFCURVE",
"138 352 OFFCURVE",
"138 235 CURVE SMOOTH",
"138 197 LINE SMOOTH",
"138 176 OFFCURVE",
"140 161 OFFCURVE",
"148 137 CURVE",
"173 137 LINE",
"164 157 OFFCURVE",
"144 172 OFFCURVE",
"112 172 CURVE SMOOTH",
"62 172 OFFCURVE",
"28 136 OFFCURVE",
"28 86 CURVE SMOOTH",
"28 31 OFFCURVE",
"69 -8 OFFCURVE",
"126 -8 CURVE SMOOTH"
);
}
);
width = 610;
}
);
leftMetricsKey = "phoSamphao-thai";
note = "lu-thai.short";
rightMetricsKey = "koKai-thai";
},
{
glyphname = "doChada-thai";
layers = (
{
anchors = (
{
name = bottom;
position = "{526, -256}";
},
{
name = top;
position = "{516, 510}";
}
);
layerId = "324B27C4-C4D5-407D-B181-631A50D9203C";
paths = (
{
closed = 1;
nodes = (
"291 -260 OFFCURVE",
"359 -179 OFFCURVE",
"374 -81 CURVE SMOOTH",
"379 -48 OFFCURVE",
"376 -24 OFFCURVE",
"334 -12 CURVE",
"304 -148 OFFCURVE",
"267 -208 OFFCURVE",
"207 -208 CURVE SMOOTH",
"176 -208 OFFCURVE",
"156 -192 OFFCURVE",
"156 -165 CURVE SMOOTH",
"156 -134 OFFCURVE",
"182 -114 OFFCURVE",
"230 -114 CURVE SMOOTH",
"299 -114 OFFCURVE",
"391 -155 OFFCURVE",
"460 -256 CURVE",
"502 -256 OFFCURVE",
"526 -229 OFFCURVE",
"526 -184 CURVE SMOOTH",
"526 349 LINE SMOOTH",
"526 389 OFFCURVE",
"529 406 OFFCURVE",
"544 420 CURVE",
"538 436 LINE",
"520 440 OFFCURVE",
"508 445 OFFCURVE",
"480 462 CURVE SMOOTH",
"352 540 LINE SMOOTH",
"327 555 OFFCURVE",
"297 562 OFFCURVE",
"267 562 CURVE SMOOTH",
"175 562 OFFCURVE",
"93 495 OFFCURVE",
"46 404 CURVE",
"46 399 LINE",
"90 386 OFFCURVE",
"136 358 OFFCURVE",
"161 321 CURVE",
"209 352 LINE",
"187 390 OFFCURVE",
"145 418 OFFCURVE",
"96 427 CURVE",
"121 395 LINE",
"146 456 OFFCURVE",
"203 494 OFFCURVE",
"262 494 CURVE SMOOTH",
"289 494 OFFCURVE",
"313 486 OFFCURVE",
"338 470 CURVE SMOOTH",
"408 425 LINE SMOOTH",
"441 404 OFFCURVE",
"458 398 OFFCURVE",
"482 396 CURVE",
"468 417 LINE",
"448 398 OFFCURVE",
"444 377 OFFCURVE",
"444 345 CURVE SMOOTH",
"444 -213 LINE",
"474 -198 LINE",
"398 -102 OFFCURVE",
"311 -60 OFFCURVE",
"226 -60 CURVE SMOOTH",
"139 -60 OFFCURVE",
"84 -104 OFFCURVE",
"84 -164 CURVE SMOOTH",
"84 -221 OFFCURVE",
"135 -260 OFFCURVE",
"199 -260 CURVE SMOOTH"
);
},
{
closed = 1;
nodes = (
"99 40 OFFCURVE",
"82 58 OFFCURVE",
"82 84 CURVE SMOOTH",
"82 110 OFFCURVE",
"99 128 OFFCURVE",
"122 128 CURVE SMOOTH",
"145 128 OFFCURVE",
"162 110 OFFCURVE",
"162 84 CURVE SMOOTH",
"162 58 OFFCURVE",
"145 40 OFFCURVE",
"122 40 CURVE SMOOTH"
);
},
{
closed = 1;
nodes = (
"183 -8 OFFCURVE",
"220 31 OFFCURVE",
"220 92 CURVE SMOOTH",
"220 235 LINE SMOOTH",
"220 321 OFFCURVE",
"243 357 OFFCURVE",
"308 375 CURVE",
"308 381 LINE",
"292 390 OFFCURVE",
"274 396 OFFCURVE",
"249 396 CURVE SMOOTH",
"182 396 OFFCURVE",
"138 352 OFFCURVE",
"138 235 CURVE SMOOTH",
"138 197 LINE SMOOTH",
"138 176 OFFCURVE",
"140 161 OFFCURVE",
"148 137 CURVE",
"173 137 LINE",
"164 157 OFFCURVE",
"144 172 OFFCURVE",
"112 172 CURVE SMOOTH",
"62 172 OFFCURVE",
"28 136 OFFCURVE",
"28 86 CURVE SMOOTH",
"28 31 OFFCURVE",
"69 -8 OFFCURVE",
"126 -8 CURVE SMOOTH"
);
}
);
width = 610;
}
);
leftMetricsKey = "phoSamphao-thai";
note = uni0E0E;
rightMetricsKey = "koKai-thai";
unicode = 0E0E;
},
{
glyphname = "doChada-thai.short";
layers = (
{
anchors = (
{
name = bottom;
position = "{526, -196}";
},
{
name = top;
position = "{516, 510}";
}
);
layerId = "324B27C4-C4D5-407D-B181-631A50D9203C";
paths = (
{
closed = 1;
nodes = (
"291 -200 OFFCURVE",
"359 -119 OFFCURVE",
"374 -21 CURVE SMOOTH",
"379 12 OFFCURVE",
"376 36 OFFCURVE",
"334 48 CURVE",
"304 -88 OFFCURVE",
"267 -148 OFFCURVE",
"207 -148 CURVE SMOOTH",
"176 -148 OFFCURVE",
"156 -132 OFFCURVE",
"156 -105 CURVE SMOOTH",
"156 -74 OFFCURVE",
"182 -54 OFFCURVE",
"230 -54 CURVE SMOOTH",
"299 -54 OFFCURVE",
"391 -95 OFFCURVE",
"460 -196 CURVE",
"502 -196 OFFCURVE",
"526 -169 OFFCURVE",
"526 -124 CURVE SMOOTH",
"526 349 LINE SMOOTH",
"526 389 OFFCURVE",
"529 406 OFFCURVE",
"544 420 CURVE",
"538 436 LINE",
"520 440 OFFCURVE",
"508 445 OFFCURVE",
"480 462 CURVE SMOOTH",
"352 540 LINE SMOOTH",
"327 555 OFFCURVE",
"297 562 OFFCURVE",
"267 562 CURVE SMOOTH",
"175 562 OFFCURVE",
"93 495 OFFCURVE",
"46 404 CURVE",
"46 399 LINE",
"90 386 OFFCURVE",
"136 358 OFFCURVE",
"161 321 CURVE",
"209 352 LINE",
"187 390 OFFCURVE",
"145 418 OFFCURVE",
"96 427 CURVE",
"121 395 LINE",
"146 456 OFFCURVE",
"203 494 OFFCURVE",
"262 494 CURVE SMOOTH",
"289 494 OFFCURVE",
"313 486 OFFCURVE",
"338 470 CURVE SMOOTH",
"408 425 LINE SMOOTH",
"441 404 OFFCURVE",
"458 398 OFFCURVE",
"482 396 CURVE",
"468 417 LINE",
"448 398 OFFCURVE",
"444 377 OFFCURVE",
"444 345 CURVE SMOOTH",
"444 -153 LINE",
"474 -138 LINE",
"398 -42 OFFCURVE",
"311 0 OFFCURVE",
"226 0 CURVE SMOOTH",
"139 0 OFFCURVE",
"84 -44 OFFCURVE",
"84 -104 CURVE SMOOTH",
"84 -161 OFFCURVE",
"135 -200 OFFCURVE",
"199 -200 CURVE SMOOTH"
);
},
{
closed = 1;
nodes = (
"99 60 OFFCURVE",
"82 78 OFFCURVE",
"82 104 CURVE SMOOTH",
"82 130 OFFCURVE",
"99 148 OFFCURVE",
"122 148 CURVE SMOOTH",
"145 148 OFFCURVE",
"162 130 OFFCURVE",
"162 104 CURVE SMOOTH",
"162 78 OFFCURVE",
"145 60 OFFCURVE",
"122 60 CURVE SMOOTH"
);
},
{
closed = 1;
nodes = (
"183 12 OFFCURVE",
"220 51 OFFCURVE",
"220 112 CURVE SMOOTH",
"220 235 LINE SMOOTH",
"220 321 OFFCURVE",
"243 357 OFFCURVE",
"308 375 CURVE",
"308 381 LINE",
"292 390 OFFCURVE",
"274 396 OFFCURVE",
"249 396 CURVE SMOOTH",
"182 396 OFFCURVE",
"138 352 OFFCURVE",
"138 235 CURVE SMOOTH",
"138 217 LINE SMOOTH",
"138 196 OFFCURVE",
"140 181 OFFCURVE",
"148 157 CURVE",
"173 157 LINE",
"164 177 OFFCURVE",
"144 192 OFFCURVE",
"112 192 CURVE SMOOTH",
"62 192 OFFCURVE",
"28 156 OFFCURVE",
"28 106 CURVE SMOOTH",
"28 51 OFFCURVE",
"69 12 OFFCURVE",
"126 12 CURVE SMOOTH"
);
}
);
width = 610;
}
);
leftMetricsKey = "phoSamphao-thai";
note = "doChada-thai.short";
rightMetricsKey = "koKai-thai";
},
{
glyphname = "toPatak-thai";
layers = (
{
anchors = (
{
name = bottom;
position = "{526, -250}";
},
{
name = top;
position = "{516, 510}";
}
);
layerId = "324B27C4-C4D5-407D-B181-631A50D9203C";
paths = (
{
closed = 1;
nodes = (
"333 -250 LINE",
"323 -184 OFFCURVE",
"339 -156 OFFCURVE",
"369 -156 CURVE SMOOTH",
"403 -156 OFFCURVE",
"439 -186 OFFCURVE",
"460 -250 CURVE",
"502 -250 OFFCURVE",
"526 -223 OFFCURVE",
"526 -178 CURVE SMOOTH",
"526 349 LINE SMOOTH",
"526 389 OFFCURVE",
"529 406 OFFCURVE",
"544 420 CURVE",
"538 436 LINE",
"520 440 OFFCURVE",
"508 445 OFFCURVE",
"480 462 CURVE SMOOTH",
"352 540 LINE SMOOTH",
"327 555 OFFCURVE",
"297 562 OFFCURVE",
"267 562 CURVE SMOOTH",
"175 562 OFFCURVE",
"93 495 OFFCURVE",
"46 404 CURVE",
"46 399 LINE",
"90 386 OFFCURVE",
"136 358 OFFCURVE",
"161 321 CURVE",
"209 352 LINE",
"187 390 OFFCURVE",
"145 418 OFFCURVE",
"96 427 CURVE",
"121 395 LINE",
"146 456 OFFCURVE",
"203 494 OFFCURVE",
"262 494 CURVE SMOOTH",
"289 494 OFFCURVE",
"313 486 OFFCURVE",
"338 470 CURVE SMOOTH",
"408 425 LINE SMOOTH",
"441 404 OFFCURVE",
"458 398 OFFCURVE",
"482 396 CURVE",
"468 417 LINE",
"448 398 OFFCURVE",
"444 377 OFFCURVE",
"444 345 CURVE SMOOTH",
"444 -179 LINE",
"477 -189 LINE",
"434 -108 OFFCURVE",
"386 -100 OFFCURVE",
"356 -100 CURVE SMOOTH",
"307 -100 OFFCURVE",
"270 -137 OFFCURVE",
"301 -219 CURVE",
"324 -214 LINE",
"283 -125 OFFCURVE",
"217 -76 OFFCURVE",
"147 -76 CURVE SMOOTH",
"87 -76 OFFCURVE",
"52 -112 OFFCURVE",
"52 -156 CURVE SMOOTH",
"52 -204 OFFCURVE",
"96 -236 OFFCURVE",
"143 -236 CURVE SMOOTH",
"199 -236 OFFCURVE",
"258 -192 OFFCURVE",
"273 -102 CURVE SMOOTH",
"277 -78 OFFCURVE",
"277 -54 OFFCURVE",
"237 -40 CURVE",
"214 -152 OFFCURVE",
"195 -192 OFFCURVE",
"149 -192 CURVE SMOOTH",
"127 -192 OFFCURVE",
"114 -183 OFFCURVE",
"114 -160 CURVE SMOOTH",
"114 -137 OFFCURVE",
"126 -124 OFFCURVE",
"150 -124 CURVE SMOOTH",
"195 -124 OFFCURVE",
"254 -169 OFFCURVE",
"309 -250 CURVE"
);
},
{
closed = 1;
nodes = (
"99 40 OFFCURVE",
"82 58 OFFCURVE",
"82 84 CURVE SMOOTH",
"82 110 OFFCURVE",
"99 128 OFFCURVE",
"122 128 CURVE SMOOTH",
"145 128 OFFCURVE",
"162 110 OFFCURVE",
"162 84 CURVE SMOOTH",
"162 58 OFFCURVE",
"145 40 OFFCURVE",
"122 40 CURVE SMOOTH"
);
},
{
closed = 1;
nodes = (
"183 -8 OFFCURVE",
"220 31 OFFCURVE",
"220 92 CURVE SMOOTH",
"220 235 LINE SMOOTH",
"220 321 OFFCURVE",
"243 357 OFFCURVE",
"308 375 CURVE",
"308 381 LINE",
"292 390 OFFCURVE",
"274 396 OFFCURVE",
"249 396 CURVE SMOOTH",
"182 396 OFFCURVE",
"138 352 OFFCURVE",
"138 235 CURVE SMOOTH",
"138 197 LINE SMOOTH",
"138 176 OFFCURVE",
"140 161 OFFCURVE",
"148 137 CURVE",
"173 137 LINE",
"164 157 OFFCURVE",
"144 172 OFFCURVE",
"112 172 CURVE SMOOTH",
"62 172 OFFCURVE",
"28 136 OFFCURVE",
"28 86 CURVE SMOOTH",
"28 31 OFFCURVE",
"69 -8 OFFCURVE",
"126 -8 CURVE SMOOTH"
);
}
);
width = 610;
}
);
leftMetricsKey = "phoSamphao-thai";
note = uni0E0F;
rightMetricsKey = "koKai-thai";
unicode = 0E0F;
},
{
glyphname = "toPatak-thai.short";
layers = (
{
anchors = (
{
name = bottom;
position = "{526, -190}";
},
{
name = top;
position = "{516, 510}";
}
);
layerId = "324B27C4-C4D5-407D-B181-631A50D9203C";
paths = (
{
closed = 1;
nodes = (
"333 -190 LINE",
"323 -124 OFFCURVE",
"339 -96 OFFCURVE",
"369 -96 CURVE SMOOTH",
"403 -96 OFFCURVE",
"439 -126 OFFCURVE",
"460 -190 CURVE",
"502 -190 OFFCURVE",
"526 -163 OFFCURVE",
"526 -118 CURVE SMOOTH",
"526 349 LINE SMOOTH",
"526 389 OFFCURVE",
"529 406 OFFCURVE",
"544 420 CURVE",
"538 436 LINE",
"520 440 OFFCURVE",
"508 445 OFFCURVE",
"480 462 CURVE SMOOTH",
"352 540 LINE SMOOTH",
"327 555 OFFCURVE",
"297 562 OFFCURVE",
"267 562 CURVE SMOOTH",
"175 562 OFFCURVE",
"93 495 OFFCURVE",
"46 404 CURVE",
"46 399 LINE",
"90 386 OFFCURVE",
"136 358 OFFCURVE",
"161 321 CURVE",
"209 352 LINE",
"187 390 OFFCURVE",
"145 418 OFFCURVE",
"96 427 CURVE",
"121 395 LINE",
"146 456 OFFCURVE",
"203 494 OFFCURVE",
"262 494 CURVE SMOOTH",
"289 494 OFFCURVE",
"313 486 OFFCURVE",
"338 470 CURVE SMOOTH",
"408 425 LINE SMOOTH",
"441 404 OFFCURVE",
"458 398 OFFCURVE",
"482 396 CURVE",
"468 417 LINE",
"448 398 OFFCURVE",
"444 377 OFFCURVE",
"444 345 CURVE SMOOTH",
"444 -119 LINE",
"477 -129 LINE",
"434 -48 OFFCURVE",
"386 -40 OFFCURVE",
"356 -40 CURVE SMOOTH",
"307 -40 OFFCURVE",
"270 -77 OFFCURVE",
"301 -159 CURVE",
"324 -154 LINE",
"283 -65 OFFCURVE",
"217 -16 OFFCURVE",
"147 -16 CURVE SMOOTH",
"87 -16 OFFCURVE",
"52 -52 OFFCURVE",
"52 -96 CURVE SMOOTH",
"52 -144 OFFCURVE",
"96 -176 OFFCURVE",
"143 -176 CURVE SMOOTH",
"199 -176 OFFCURVE",
"258 -132 OFFCURVE",
"273 -42 CURVE SMOOTH",
"277 -18 OFFCURVE",
"277 6 OFFCURVE",
"237 20 CURVE",
"214 -92 OFFCURVE",
"195 -132 OFFCURVE",
"149 -132 CURVE SMOOTH",
"127 -132 OFFCURVE",
"114 -123 OFFCURVE",
"114 -100 CURVE SMOOTH",
"114 -77 OFFCURVE",
"126 -64 OFFCURVE",
"150 -64 CURVE SMOOTH",
"195 -64 OFFCURVE",
"254 -109 OFFCURVE",
"309 -190 CURVE"
);
},
{
closed = 1;
nodes = (
"99 60 OFFCURVE",
"82 78 OFFCURVE",
"82 104 CURVE SMOOTH",
"82 130 OFFCURVE",
"99 148 OFFCURVE",
"122 148 CURVE SMOOTH",
"145 148 OFFCURVE",
"162 130 OFFCURVE",
"162 104 CURVE SMOOTH",
"162 78 OFFCURVE",
"145 60 OFFCURVE",
"122 60 CURVE SMOOTH"
);
},
{
closed = 1;
nodes = (
"183 12 OFFCURVE",
"220 51 OFFCURVE",
"220 112 CURVE SMOOTH",
"220 235 LINE SMOOTH",
"220 321 OFFCURVE",
"243 357 OFFCURVE",
"308 375 CURVE",
"308 381 LINE",
"292 390 OFFCURVE",
"274 396 OFFCURVE",
"249 396 CURVE SMOOTH",
"182 396 OFFCURVE",
"138 352 OFFCURVE",
"138 235 CURVE SMOOTH",
"138 217 LINE SMOOTH",
"138 196 OFFCURVE",
"140 181 OFFCURVE",
"148 157 CURVE",
"173 157 LINE",
"164 177 OFFCURVE",
"144 192 OFFCURVE",
"112 192 CURVE SMOOTH",
"62 192 OFFCURVE",
"28 156 OFFCURVE",
"28 106 CURVE SMOOTH",
"28 51 OFFCURVE",
"69 12 OFFCURVE",
"126 12 CURVE SMOOTH"
);
}
);
width = 610;
}
);
leftMetricsKey = "phoSamphao-thai";
note = "toPatak-thai.short";
rightMetricsKey = "koKai-thai";
},
{
glyphname = "ru_lakkhangyao-thai";
layers = (
{
layerId = "324B27C4-C4D5-407D-B181-631A50D9203C";
paths = (
{
closed = 1;
nodes = (
"483 -256 OFFCURVE",
"502 -231 OFFCURVE",
"502 -195 CURVE SMOOTH",
"502 349 LINE SMOOTH",
"502 389 OFFCURVE",
"509 413 OFFCURVE",
"517 427 CURVE",
"514 436 LINE",
"496 440 OFFCURVE",
"484 445 OFFCURVE",
"456 462 CURVE SMOOTH",
"328 540 LINE SMOOTH",
"303 555 OFFCURVE",
"276 562 OFFCURVE",
"245 562 CURVE SMOOTH",
"147 562 OFFCURVE",
"68 492 OFFCURVE",
"22 404 CURVE",
"22 399 LINE",
"66 386 OFFCURVE",
"108 358 OFFCURVE",
"129 321 CURVE",
"177 352 LINE",
"159 390 OFFCURVE",
"121 418 OFFCURVE",
"72 427 CURVE",
"97 395 LINE",
"120 451 OFFCURVE",
"174 494 OFFCURVE",
"238 494 CURVE SMOOTH",
"265 494 OFFCURVE",
"289 486 OFFCURVE",
"314 470 CURVE SMOOTH",
"384 425 LINE SMOOTH",
"417 404 OFFCURVE",
"434 398 OFFCURVE",
"458 396 CURVE",
"444 417 LINE",
"424 398 OFFCURVE",
"420 377 OFFCURVE",
"420 345 CURVE SMOOTH",
"420 -252 LINE",
"430 -255 OFFCURVE",
"440 -256 OFFCURVE",
"447 -256 CURVE SMOOTH"
);
},
{
closed = 1;
nodes = (
"173 40 OFFCURVE",
"156 58 OFFCURVE",
"156 84 CURVE SMOOTH",
"156 110 OFFCURVE",
"173 128 OFFCURVE",
"196 128 CURVE SMOOTH",
"219 128 OFFCURVE",
"236 110 OFFCURVE",
"236 84 CURVE SMOOTH",
"236 58 OFFCURVE",
"219 40 OFFCURVE",
"196 40 CURVE SMOOTH"
);
},
{
closed = 1;
nodes = (
"249 -8 OFFCURVE",
"290 31 OFFCURVE",
"290 86 CURVE SMOOTH",
"290 136 OFFCURVE",
"256 172 OFFCURVE",
"206 172 CURVE SMOOTH",
"174 172 OFFCURVE",
"154 157 OFFCURVE",
"145 137 CURVE",
"170 137 LINE",
"178 161 OFFCURVE",
"180 176 OFFCURVE",
"180 197 CURVE SMOOTH",
"180 235 LINE SMOOTH",
"180 321 OFFCURVE",
"203 357 OFFCURVE",
"268 375 CURVE",
"268 381 LINE",
"252 390 OFFCURVE",
"234 396 OFFCURVE",
"209 396 CURVE SMOOTH",
"142 396 OFFCURVE",
"98 352 OFFCURVE",
"98 235 CURVE SMOOTH",
"98 92 LINE SMOOTH",
"98 31 OFFCURVE",
"135 -8 OFFCURVE",
"192 -8 CURVE SMOOTH"
);
},
{
closed = 1;
nodes = (
"788 -256 OFFCURVE",
"807 -231 OFFCURVE",
"807 -195 CURVE SMOOTH",
"807 369 LINE SMOOTH",
"807 409 OFFCURVE",
"810 426 OFFCURVE",
"825 440 CURVE",
"819 456 LINE",
"804 459 OFFCURVE",
"791 466 OFFCURVE",
"766 485 CURVE SMOOTH",
"702 534 LINE SMOOTH",
"674 556 OFFCURVE",
"643 562 OFFCURVE",
"621 562 CURVE SMOOTH",
"553 562 OFFCURVE",
"481 507 OFFCURVE",
"445 439 CURVE",
"502 371 LINE",
"506 427 OFFCURVE",
"546 494 OFFCURVE",
"614 494 CURVE SMOOTH",
"630 494 OFFCURVE",
"647 490 OFFCURVE",
"663 478 CURVE SMOOTH",
"710 443 LINE SMOOTH",
"730 428 OFFCURVE",
"745 423 OFFCURVE",
"767 420 CURVE",
"749 437 LINE",
"729 418 OFFCURVE",
"725 397 OFFCURVE",
"725 365 CURVE SMOOTH",
"725 -252 LINE",
"735 -255 OFFCURVE",
"745 -256 OFFCURVE",
"752 -256 CURVE SMOOTH"
);
}
);
width = 891;
}
);
leftMetricsKey = "thoThung-thai";
note = "ru_lakkhangyao-thai";
rightMetricsKey = "koKai-thai";
},
{
glyphname = "lu_lakkhangyao-thai";
layers = (
{
layerId = "324B27C4-C4D5-407D-B181-631A50D9203C";
paths = (
{
closed = 1;
nodes = (
"507 -256 OFFCURVE",
"526 -231 OFFCURVE",
"526 -195 CURVE SMOOTH",
"526 349 LINE SMOOTH",
"526 389 OFFCURVE",
"533 413 OFFCURVE",
"541 427 CURVE",
"538 436 LINE",
"520 440 OFFCURVE",
"508 445 OFFCURVE",
"480 462 CURVE SMOOTH",
"352 540 LINE SMOOTH",
"327 555 OFFCURVE",
"297 562 OFFCURVE",
"267 562 CURVE SMOOTH",
"175 562 OFFCURVE",
"93 495 OFFCURVE",
"46 404 CURVE",
"46 399 LINE",
"90 386 OFFCURVE",
"136 358 OFFCURVE",
"161 321 CURVE",
"209 352 LINE",
"187 390 OFFCURVE",
"145 418 OFFCURVE",
"96 427 CURVE",
"121 395 LINE",
"146 456 OFFCURVE",
"203 494 OFFCURVE",
"262 494 CURVE SMOOTH",
"289 494 OFFCURVE",
"313 486 OFFCURVE",
"338 470 CURVE SMOOTH",
"408 425 LINE SMOOTH",
"441 404 OFFCURVE",
"458 398 OFFCURVE",
"482 396 CURVE",
"468 417 LINE",
"448 398 OFFCURVE",
"444 377 OFFCURVE",
"444 345 CURVE SMOOTH",
"444 -252 LINE",
"454 -255 OFFCURVE",
"464 -256 OFFCURVE",
"471 -256 CURVE SMOOTH"
);
},
{
closed = 1;
nodes = (
"99 40 OFFCURVE",
"82 58 OFFCURVE",
"82 84 CURVE SMOOTH",
"82 110 OFFCURVE",
"99 128 OFFCURVE",
"122 128 CURVE SMOOTH",
"145 128 OFFCURVE",
"162 110 OFFCURVE",
"162 84 CURVE SMOOTH",
"162 58 OFFCURVE",
"145 40 OFFCURVE",
"122 40 CURVE SMOOTH"
);
},
{
closed = 1;
nodes = (
"183 -8 OFFCURVE",
"220 31 OFFCURVE",
"220 92 CURVE SMOOTH",
"220 235 LINE SMOOTH",
"220 321 OFFCURVE",
"243 357 OFFCURVE",
"308 375 CURVE",
"308 381 LINE",
"292 390 OFFCURVE",
"274 396 OFFCURVE",
"249 396 CURVE SMOOTH",
"182 396 OFFCURVE",
"138 352 OFFCURVE",
"138 235 CURVE SMOOTH",
"138 197 LINE SMOOTH",
"138 176 OFFCURVE",
"140 161 OFFCURVE",
"148 137 CURVE",
"173 137 LINE",
"164 157 OFFCURVE",
"144 172 OFFCURVE",
"112 172 CURVE SMOOTH",
"62 172 OFFCURVE",
"28 136 OFFCURVE",
"28 86 CURVE SMOOTH",
"28 31 OFFCURVE",
"69 -8 OFFCURVE",
"126 -8 CURVE SMOOTH"
);
},
{
closed = 1;
nodes = (
"812 -256 OFFCURVE",
"831 -231 OFFCURVE",
"831 -195 CURVE SMOOTH",
"831 369 LINE SMOOTH",
"831 409 OFFCURVE",
"834 426 OFFCURVE",
"849 440 CURVE",
"843 456 LINE",
"826 459 OFFCURVE",
"810 470 OFFCURVE",
"790 485 CURVE SMOOTH",
"726 534 LINE SMOOTH",
"698 556 OFFCURVE",
"667 562 OFFCURVE",
"645 562 CURVE SMOOTH",
"577 562 OFFCURVE",
"505 507 OFFCURVE",
"469 439 CURVE",
"526 371 LINE",
"530 427 OFFCURVE",
"570 494 OFFCURVE",
"638 494 CURVE SMOOTH",
"654 494 OFFCURVE",
"671 490 OFFCURVE",
"687 478 CURVE SMOOTH",
"734 443 LINE SMOOTH",
"754 428 OFFCURVE",
"769 423 OFFCURVE",
"791 420 CURVE",
"773 437 LINE",
"753 418 OFFCURVE",
"749 397 OFFCURVE",
"749 365 CURVE SMOOTH",
"749 -252 LINE",
"759 -255 OFFCURVE",
"769 -256 OFFCURVE",
"776 -256 CURVE SMOOTH"
);
}
);
width = 915;
}
);
leftMetricsKey = "phoSamphao-thai";
note = "lu_lakkhangyao-thai";
rightMetricsKey = "koKai-thai";
},
{
glyphname = "yoYing-thai";
layers = (
{
anchors = (
{
name = bottom;
position = "{754, -260}";
},
{
name = top;
position = "{764, 510}";
}
);
layerId = "324B27C4-C4D5-407D-B181-631A50D9203C";
paths = (
{
closed = 1;
nodes = (
"684 -260 OFFCURVE",
"764 -182 OFFCURVE",
"764 -60 CURVE SMOOTH",
"764 550 LINE",
"754 553 OFFCURVE",
"744 554 OFFCURVE",
"737 554 CURVE SMOOTH",
"701 554 OFFCURVE",
"682 529 OFFCURVE",
"682 493 CURVE SMOOTH",
"682 172 LINE SMOOTH",
"682 104 OFFCURVE",
"643 66 OFFCURVE",
"571 66 CURVE SMOOTH",
"531 66 OFFCURVE",
"497 78 OFFCURVE",
"452 78 CURVE",
"459 38 LINE",
"484 80 OFFCURVE",
"486 142 OFFCURVE",
"486 192 CURVE SMOOTH",
"486 354 LINE SMOOTH",
"486 394 OFFCURVE",
"489 411 OFFCURVE",
"504 425 CURVE",
"498 441 LINE",
"484 444 OFFCURVE",
"473 447 OFFCURVE",
"440 467 CURVE SMOOTH",
"320 540 LINE SMOOTH",
"296 555 OFFCURVE",
"267 562 OFFCURVE",
"237 562 CURVE SMOOTH",
"144 562 OFFCURVE",
"71 495 OFFCURVE",
"22 404 CURVE",
"22 399 LINE",
"66 386 OFFCURVE",
"108 358 OFFCURVE",
"129 321 CURVE",
"177 352 LINE",
"159 390 OFFCURVE",
"121 418 OFFCURVE",
"72 427 CURVE",
"97 395 LINE",
"123 455 OFFCURVE",
"171 494 OFFCURVE",
"229 494 CURVE SMOOTH",
"257 494 OFFCURVE",
"282 485 OFFCURVE",
"306 470 CURVE SMOOTH",
"368 430 LINE SMOOTH",
"402 408 OFFCURVE",
"418 403 OFFCURVE",
"442 401 CURVE",
"428 422 LINE",
"408 403 OFFCURVE",
"404 382 OFFCURVE",
"404 350 CURVE SMOOTH",
"404 192 LINE SMOOTH",
"404 112 OFFCURVE",
"397 78 OFFCURVE",
"372 40 CURVE",
"378 22 LINE",
"446 22 OFFCURVE",
"496 0 OFFCURVE",
"570 0 CURVE SMOOTH",
"631 0 OFFCURVE",
"679 15 OFFCURVE",
"712 44 CURVE",
"701 68 LINE",
"688 25 OFFCURVE",
"687 9 OFFCURVE",
"686 -60 CURVE SMOOTH",
"684 -162 OFFCURVE",
"635 -206 OFFCURVE",
"552 -206 CURVE SMOOTH",
"485 -206 OFFCURVE",
"444 -178 OFFCURVE",
"444 -134 CURVE SMOOTH",
"444 -103 OFFCURVE",
"465 -80 OFFCURVE",
"502 -80 CURVE SMOOTH",
"527 -80 OFFCURVE",
"543 -90 OFFCURVE",
"543 -107 CURVE SMOOTH",
"543 -123 OFFCURVE",
"529 -132 OFFCURVE",
"501 -132 CURVE",
"493 -156 OFFCURVE",
"514 -174 OFFCURVE",
"547 -174 CURVE SMOOTH",
"586 -174 OFFCURVE",
"611 -148 OFFCURVE",
"611 -110 CURVE SMOOTH",
"611 -60 OFFCURVE",
"567 -30 OFFCURVE",
"499 -30 CURVE SMOOTH",
"421 -30 OFFCURVE",
"372 -70 OFFCURVE",
"372 -132 CURVE SMOOTH",
"372 -210 OFFCURVE",
"447 -260 OFFCURVE",
"552 -260 CURVE SMOOTH"
);
},
{
closed = 1;
nodes = (
"173 40 OFFCURVE",
"156 58 OFFCURVE",
"156 84 CURVE SMOOTH",
"156 110 OFFCURVE",
"173 128 OFFCURVE",
"196 128 CURVE SMOOTH",
"219 128 OFFCURVE",
"236 110 OFFCURVE",
"236 84 CURVE SMOOTH",
"236 58 OFFCURVE",
"219 40 OFFCURVE",
"196 40 CURVE SMOOTH"
);
},
{
closed = 1;
nodes = (
"249 -8 OFFCURVE",
"290 31 OFFCURVE",
"290 86 CURVE SMOOTH",
"290 136 OFFCURVE",
"256 172 OFFCURVE",
"206 172 CURVE SMOOTH",
"174 172 OFFCURVE",
"154 157 OFFCURVE",
"145 137 CURVE",
"170 137 LINE",
"178 161 OFFCURVE",
"180 176 OFFCURVE",
"180 197 CURVE SMOOTH",
"180 235 LINE SMOOTH",
"180 321 OFFCURVE",
"203 357 OFFCURVE",
"268 375 CURVE",
"268 381 LINE",
"252 390 OFFCURVE",
"234 396 OFFCURVE",
"209 396 CURVE SMOOTH",
"142 396 OFFCURVE",
"98 352 OFFCURVE",
"98 235 CURVE SMOOTH",
"98 92 LINE SMOOTH",
"98 31 OFFCURVE",
"135 -8 OFFCURVE",
"192 -8 CURVE SMOOTH"
);
}
);
width = 842;
}
);
leftMetricsKey = "thoThung-thai";
note = uni0E0D;
rightMetricsKey = "boBaimai-thai";
unicode = 0E0D;
},
{
glyphname = "yoYing-thai.less";
layers = (
{
anchors = (
{
name = bottom;
position = "{754, 0}";
},
{
name = top;
position = "{764, 510}";
}
);
layerId = "324B27C4-C4D5-407D-B181-631A50D9203C";
paths = (
{
closed = 1;
nodes = (
"689 -12 OFFCURVE",
"764 46 OFFCURVE",
"764 160 CURVE SMOOTH",
"764 550 LINE",
"754 553 OFFCURVE",
"744 554 OFFCURVE",
"737 554 CURVE SMOOTH",
"701 554 OFFCURVE",
"682 529 OFFCURVE",
"682 493 CURVE SMOOTH",
"682 160 LINE SMOOTH",
"682 92 OFFCURVE",
"643 54 OFFCURVE",
"571 54 CURVE SMOOTH",
"531 54 OFFCURVE",
"497 66 OFFCURVE",
"452 66 CURVE",
"459 26 LINE",
"484 68 OFFCURVE",
"486 130 OFFCURVE",
"486 180 CURVE SMOOTH",
"486 354 LINE SMOOTH",
"486 394 OFFCURVE",
"489 411 OFFCURVE",
"504 425 CURVE",
"498 441 LINE",
"484 444 OFFCURVE",
"473 447 OFFCURVE",
"440 467 CURVE SMOOTH",
"320 540 LINE SMOOTH",
"295 555 OFFCURVE",
"267 562 OFFCURVE",
"238 562 CURVE SMOOTH",
"148 562 OFFCURVE",
"70 495 OFFCURVE",
"22 404 CURVE",
"22 399 LINE",
"66 386 OFFCURVE",
"108 358 OFFCURVE",
"129 321 CURVE",
"177 352 LINE",
"159 390 OFFCURVE",
"121 418 OFFCURVE",
"72 427 CURVE",
"97 395 LINE",
"122 455 OFFCURVE",
"176 494 OFFCURVE",
"232 494 CURVE SMOOTH",
"256 494 OFFCURVE",
"280 487 OFFCURVE",
"306 470 CURVE SMOOTH",
"368 430 LINE SMOOTH",
"402 408 OFFCURVE",
"418 403 OFFCURVE",
"442 401 CURVE",
"428 422 LINE",
"408 403 OFFCURVE",
"404 382 OFFCURVE",
"404 350 CURVE SMOOTH",
"404 180 LINE SMOOTH",
"404 100 OFFCURVE",
"397 66 OFFCURVE",
"372 28 CURVE",
"378 10 LINE",
"445 10 OFFCURVE",
"497 -12 OFFCURVE",
"570 -12 CURVE SMOOTH"
);
},
{
closed = 1;
nodes = (
"173 40 OFFCURVE",
"156 58 OFFCURVE",
"156 84 CURVE SMOOTH",
"156 110 OFFCURVE",
"173 128 OFFCURVE",
"196 128 CURVE SMOOTH",
"219 128 OFFCURVE",
"236 110 OFFCURVE",
"236 84 CURVE SMOOTH",
"236 58 OFFCURVE",
"219 40 OFFCURVE",
"196 40 CURVE SMOOTH"
);
},
{
closed = 1;
nodes = (
"249 -8 OFFCURVE",
"290 31 OFFCURVE",
"290 86 CURVE SMOOTH",
"290 136 OFFCURVE",
"256 172 OFFCURVE",
"206 172 CURVE SMOOTH",
"174 172 OFFCURVE",
"154 157 OFFCURVE",
"145 137 CURVE",
"170 137 LINE",
"178 161 OFFCURVE",
"180 176 OFFCURVE",
"180 197 CURVE SMOOTH",
"180 235 LINE SMOOTH",
"180 321 OFFCURVE",
"203 357 OFFCURVE",
"268 375 CURVE",
"268 381 LINE",
"252 390 OFFCURVE",
"234 396 OFFCURVE",
"209 396 CURVE SMOOTH",
"142 396 OFFCURVE",
"98 352 OFFCURVE",
"98 235 CURVE SMOOTH",
"98 92 LINE SMOOTH",
"98 31 OFFCURVE",
"135 -8 OFFCURVE",
"192 -8 CURVE SMOOTH"
);
}
);
width = 842;
}
);
leftMetricsKey = "thoThung-thai";
note = "yoYing-thai.less";
rightMetricsKey = "boBaimai-thai";
},
{
glyphname = "khoKhai-thai";
layers = (
{
anchors = (
{
name = bottom;
position = "{454, 0}";
},
{
name = top;
position = "{464, 510}";
}
);
layerId = "324B27C4-C4D5-407D-B181-631A50D9203C";
paths = (
{
closed = 1;
nodes = (
"403 -12 OFFCURVE",
"464 46 OFFCURVE",
"464 160 CURVE SMOOTH",
"464 550 LINE",
"454 553 OFFCURVE",
"444 554 OFFCURVE",
"437 554 CURVE SMOOTH",
"401 554 OFFCURVE",
"382 529 OFFCURVE",
"382 493 CURVE SMOOTH",
"382 160 LINE SMOOTH",
"382 92 OFFCURVE",
"357 54 OFFCURVE",
"305 54 CURVE SMOOTH",
"276 54 OFFCURVE",
"256 62 OFFCURVE",
"227 62 CURVE",
"221 26 LINE",
"246 68 OFFCURVE",
"248 125 OFFCURVE",
"248 180 CURVE SMOOTH",
"248 216 OFFCURVE",
"256 244 OFFCURVE",
"280 306 CURVE SMOOTH",
"293 339 OFFCURVE",
"308 379 OFFCURVE",
"308 420 CURVE SMOOTH",
"308 503 OFFCURVE",
"248 558 OFFCURVE",
"158 558 CURVE SMOOTH",
"71 558 OFFCURVE",
"8 507 OFFCURVE",
"8 427 CURVE SMOOTH",
"8 364 OFFCURVE",
"48 323 OFFCURVE",
"109 323 CURVE SMOOTH",
"165 323 OFFCURVE",
"202 357 OFFCURVE",
"202 404 CURVE SMOOTH",
"202 445 OFFCURVE",
"174 472 OFFCURVE",
"142 472 CURVE SMOOTH",
"116 472 OFFCURVE",
"96 454 OFFCURVE",
"104 430 CURVE",
"135 433 OFFCURVE",
"148 421 OFFCURVE",
"148 402 CURVE SMOOTH",
"148 382 OFFCURVE",
"134 371 OFFCURVE",
"112 371 CURVE SMOOTH",
"82 371 OFFCURVE",
"68 392 OFFCURVE",
"68 425 CURVE SMOOTH",
"68 478 OFFCURVE",
"103 504 OFFCURVE",
"153 504 CURVE SMOOTH",
"207 504 OFFCURVE",
"238 474 OFFCURVE",
"238 420 CURVE SMOOTH",
"238 382 OFFCURVE",
"222 343 OFFCURVE",
"207 310 CURVE SMOOTH",
"179 248 OFFCURVE",
"168 221 OFFCURVE",
"168 180 CURVE SMOOTH",
"168 96 OFFCURVE",
"165 70 OFFCURVE",
"136 24 CURVE",
"142 6 LINE",
"196 6 OFFCURVE",
"236 -12 OFFCURVE",
"300 -12 CURVE SMOOTH"
);
}
);
width = 542;
}
);
note = uni0E02;
rightMetricsKey = "boBaimai-thai";
unicode = 0E02;
},
{
glyphname = "khoKhuat-thai";
layers = (
{
anchors = (
{
name = bottom;
position = "{458, 0}";
},
{
name = top;
position = "{468, 510}";
}
);
layerId = "324B27C4-C4D5-407D-B181-631A50D9203C";
paths = (
{
closed = 1;
nodes = (
"408 -12 OFFCURVE",
"468 46 OFFCURVE",
"468 160 CURVE SMOOTH",
"468 550 LINE",
"458 553 OFFCURVE",
"448 554 OFFCURVE",
"441 554 CURVE SMOOTH",
"405 554 OFFCURVE",
"386 529 OFFCURVE",
"386 493 CURVE SMOOTH",
"386 160 LINE SMOOTH",
"386 92 OFFCURVE",
"362 54 OFFCURVE",
"307 54 CURVE SMOOTH",
"282 54 OFFCURVE",
"259 62 OFFCURVE",
"231 62 CURVE",
"225 26 LINE",
"251 70 OFFCURVE",
"252 126 OFFCURVE",
"252 180 CURVE SMOOTH",
"252 218 OFFCURVE",
"257 233 OFFCURVE",
"294 306 CURVE SMOOTH",
"320 358 OFFCURVE",
"332 383 OFFCURVE",
"332 432 CURVE SMOOTH",
"332 516 OFFCURVE",
"296 558 OFFCURVE",
"237 558 CURVE SMOOTH",
"203 558 OFFCURVE",
"181 544 OFFCURVE",
"165 516 CURVE",
"149 544 OFFCURVE",
"127 558 OFFCURVE",
"97 558 CURVE SMOOTH",
"43 558 OFFCURVE",
"12 514 OFFCURVE",
"12 443 CURVE SMOOTH",
"12 357 OFFCURVE",
"58 313 OFFCURVE",
"127 313 CURVE SMOOTH",
"183 313 OFFCURVE",
"217 342 OFFCURVE",
"217 384 CURVE SMOOTH",
"217 420 OFFCURVE",
"192 444 OFFCURVE",
"162 444 CURVE SMOOTH",
"137 444 OFFCURVE",
"119 427 OFFCURVE",
"126 405 CURVE",
"155 406 OFFCURVE",
"167 397 OFFCURVE",
"167 382 CURVE SMOOTH",
"167 366 OFFCURVE",
"153 358 OFFCURVE",
"133 358 CURVE SMOOTH",
"95 358 OFFCURVE",
"72 387 OFFCURVE",
"72 432 CURVE SMOOTH",
"72 466 OFFCURVE",
"85 504 OFFCURVE",
"116 504 CURVE SMOOTH",
"134 504 OFFCURVE",
"150 491 OFFCURVE",
"156 468 CURVE",
"174 468 LINE",
"180 491 OFFCURVE",
"196 504 OFFCURVE",
"215 504 CURVE SMOOTH",
"247 504 OFFCURVE",
"262 468 OFFCURVE",
"262 426 CURVE SMOOTH",
"262 387 OFFCURVE",
"249 362 OFFCURVE",
"221 310 CURVE SMOOTH",
"182 237 OFFCURVE",
"172 211 OFFCURVE",
"172 180 CURVE SMOOTH",
"172 92 OFFCURVE",
"170 73 OFFCURVE",
"140 24 CURVE",
"146 6 LINE",
"199 6 OFFCURVE",
"243 -12 OFFCURVE",
"302 -12 CURVE SMOOTH"
);
}
);
width = 546;
}
);
note = uni0E03;
rightMetricsKey = "boBaimai-thai";
unicode = 0E03;
},
{
glyphname = "choChang-thai";
layers = (
{
anchors = (
{
name = bottom;
position = "{458, 0}";
},
{
name = top;
position = "{468, 510}";
}
);
layerId = "324B27C4-C4D5-407D-B181-631A50D9203C";
paths = (
{
closed = 1;
nodes = (
"408 -12 OFFCURVE",
"468 46 OFFCURVE",
"468 160 CURVE SMOOTH",
"468 339 LINE SMOOTH",
"468 375 OFFCURVE",
"456 393 OFFCURVE",
"406 428 CURVE SMOOTH",
"382 445 OFFCURVE",
"366 454 OFFCURVE",
"328 466 CURVE",
"310 440 LINE",
"482 496 OFFCURVE",
"534 523 OFFCURVE",
"534 579 CURVE SMOOTH",
"534 596 OFFCURVE",
"529 608 OFFCURVE",
"518 616 CURVE",
"459 565 OFFCURVE",
"412 541 OFFCURVE",
"254 486 CURVE",
"264 421 LINE",
"293 415 OFFCURVE",
"309 409 OFFCURVE",
"340 389 CURVE SMOOTH",
"377 365 OFFCURVE",
"388 352 OFFCURVE",
"388 331 CURVE SMOOTH",
"388 160 LINE SMOOTH",
"388 92 OFFCURVE",
"362 54 OFFCURVE",
"305 54 CURVE SMOOTH",
"276 54 OFFCURVE",
"256 62 OFFCURVE",
"227 62 CURVE",
"221 26 LINE",
"246 68 OFFCURVE",
"248 125 OFFCURVE",
"248 180 CURVE SMOOTH",
"248 216 OFFCURVE",
"255 241 OFFCURVE",
"280 306 CURVE SMOOTH",
"293 339 OFFCURVE",
"308 379 OFFCURVE",
"308 420 CURVE SMOOTH",
"308 503 OFFCURVE",
"248 558 OFFCURVE",
"158 558 CURVE SMOOTH",
"71 558 OFFCURVE",
"8 507 OFFCURVE",
"8 427 CURVE SMOOTH",
"8 364 OFFCURVE",
"48 323 OFFCURVE",
"109 323 CURVE SMOOTH",
"165 323 OFFCURVE",
"202 357 OFFCURVE",
"202 404 CURVE SMOOTH",
"202 445 OFFCURVE",
"174 472 OFFCURVE",
"142 472 CURVE SMOOTH",
"116 472 OFFCURVE",
"96 454 OFFCURVE",
"104 430 CURVE",
"135 433 OFFCURVE",
"148 421 OFFCURVE",
"148 402 CURVE SMOOTH",
"148 382 OFFCURVE",
"134 371 OFFCURVE",
"112 371 CURVE SMOOTH",
"82 371 OFFCURVE",
"68 392 OFFCURVE",
"68 425 CURVE SMOOTH",
"68 478 OFFCURVE",
"103 504 OFFCURVE",
"153 504 CURVE SMOOTH",
"207 504 OFFCURVE",
"238 474 OFFCURVE",
"238 420 CURVE SMOOTH",
"238 382 OFFCURVE",
"222 343 OFFCURVE",
"207 310 CURVE SMOOTH",
"178 246 OFFCURVE",
"168 221 OFFCURVE",
"168 180 CURVE SMOOTH",
"168 96 OFFCURVE",
"165 70 OFFCURVE",
"136 24 CURVE",
"142 6 LINE",
"196 6 OFFCURVE",
"236 -12 OFFCURVE",
"300 -12 CURVE SMOOTH"
);
}
);
width = 546;
}
);
leftMetricsKey = "khoKhai-thai";
note = uni0E0A;
rightMetricsKey = "choChang-thai";
unicode = 0E0A;
},
{
glyphname = "soSo-thai";
layers = (
{
anchors = (
{
name = bottom;
position = "{466, 0}";
},
{
name = top;
position = "{476, 510}";
}
);
layerId = "324B27C4-C4D5-407D-B181-631A50D9203C";
paths = (
{
closed = 1;
nodes = (
"415 -12 OFFCURVE",
"476 46 OFFCURVE",
"476 160 CURVE SMOOTH",
"476 339 LINE SMOOTH",
"476 375 OFFCURVE",
"466 393 OFFCURVE",
"425 428 CURVE SMOOTH",
"405 445 OFFCURVE",
"392 454 OFFCURVE",
"361 466 CURVE",
"347 449 LINE",
"490 496 OFFCURVE",
"542 523 OFFCURVE",
"542 579 CURVE SMOOTH",
"542 596 OFFCURVE",
"537 608 OFFCURVE",
"526 616 CURVE",
"472 565 OFFCURVE",
"430 541 OFFCURVE",
"286 486 CURVE",
"294 421 LINE",
"318 415 OFFCURVE",
"331 409 OFFCURVE",
"354 391 CURVE SMOOTH",
"387 365 OFFCURVE",
"396 352 OFFCURVE",
"396 331 CURVE SMOOTH",
"396 160 LINE SMOOTH",
"396 92 OFFCURVE",
"369 54 OFFCURVE",
"311 54 CURVE SMOOTH",
"282 54 OFFCURVE",
"259 62 OFFCURVE",
"231 62 CURVE",
"225 26 LINE",
"251 70 OFFCURVE",
"252 126 OFFCURVE",
"252 180 CURVE SMOOTH",
"252 218 OFFCURVE",
"257 233 OFFCURVE",
"294 306 CURVE SMOOTH",
"320 358 OFFCURVE",
"332 383 OFFCURVE",
"332 432 CURVE SMOOTH",
"332 516 OFFCURVE",
"296 558 OFFCURVE",
"237 558 CURVE SMOOTH",
"203 558 OFFCURVE",
"181 544 OFFCURVE",
"165 516 CURVE",
"149 544 OFFCURVE",
"127 558 OFFCURVE",
"97 558 CURVE SMOOTH",
"43 558 OFFCURVE",
"12 514 OFFCURVE",
"12 443 CURVE SMOOTH",
"12 357 OFFCURVE",
"58 313 OFFCURVE",
"127 313 CURVE SMOOTH",
"183 313 OFFCURVE",
"217 342 OFFCURVE",
"217 384 CURVE SMOOTH",
"217 420 OFFCURVE",
"192 444 OFFCURVE",
"162 444 CURVE SMOOTH",
"137 444 OFFCURVE",
"119 427 OFFCURVE",
"126 405 CURVE",
"155 406 OFFCURVE",
"167 397 OFFCURVE",
"167 382 CURVE SMOOTH",
"167 366 OFFCURVE",
"153 358 OFFCURVE",
"133 358 CURVE SMOOTH",
"95 358 OFFCURVE",
"72 387 OFFCURVE",
"72 432 CURVE SMOOTH",
"72 466 OFFCURVE",
"85 504 OFFCURVE",
"116 504 CURVE SMOOTH",
"134 504 OFFCURVE",
"150 491 OFFCURVE",
"156 468 CURVE",
"174 468 LINE",
"180 491 OFFCURVE",
"196 504 OFFCURVE",
"215 504 CURVE SMOOTH",
"247 504 OFFCURVE",
"262 468 OFFCURVE",
"262 426 CURVE SMOOTH",
"262 387 OFFCURVE",
"249 362 OFFCURVE",
"221 310 CURVE SMOOTH",
"182 237 OFFCURVE",
"172 211 OFFCURVE",
"172 180 CURVE SMOOTH",
"172 92 OFFCURVE",
"170 73 OFFCURVE",
"140 24 CURVE",
"146 6 LINE",
"199 6 OFFCURVE",
"243 -12 OFFCURVE",
"306 -12 CURVE SMOOTH"
);
}
);
width = 554;
}
);
leftMetricsKey = "khoKhuat-thai";
note = uni0E0B;
unicode = 0E0B;
},
{
glyphname = "khoKhwai-thai";
layers = (
{
anchors = (
{
name = bottom;
position = "{500, 0}";
},
{
name = top;
position = "{490, 510}";
}
);
layerId = "324B27C4-C4D5-407D-B181-631A50D9203C";
paths = (
{
closed = 1;
nodes = (
"159 -6 OFFCURVE",
"179 21 OFFCURVE",
"179 59 CURVE SMOOTH",
"179 87 LINE SMOOTH",
"179 160 OFFCURVE",
"202 313 OFFCURVE",
"236 347 CURVE",
"195 347 LINE",
"195 299 OFFCURVE",
"234 263 OFFCURVE",
"287 263 CURVE SMOOTH",
"341 263 OFFCURVE",
"375 300 OFFCURVE",
"375 350 CURVE SMOOTH",
"375 404 OFFCURVE",
"335 433 OFFCURVE",
"279 433 CURVE SMOOTH",
"164 433 OFFCURVE",
"131 238 OFFCURVE",
"131 87 CURVE",
"163 87 LINE",
"163 162 OFFCURVE",
"130 263 OFFCURVE",
"130 342 CURVE SMOOTH",
"130 446 OFFCURVE",
"188 494 OFFCURVE",
"262 494 CURVE SMOOTH",
"296 494 OFFCURVE",
"313 484 OFFCURVE",
"341 466 CURVE SMOOTH",
"382 439 LINE SMOOTH",
"415 417 OFFCURVE",
"432 411 OFFCURVE",
"456 409 CURVE",
"442 430 LINE",
"422 411 OFFCURVE",
"418 390 OFFCURVE",
"418 358 CURVE SMOOTH",
"418 -2 LINE",
"428 -5 OFFCURVE",
"438 -6 OFFCURVE",
"445 -6 CURVE SMOOTH",
"481 -6 OFFCURVE",
"500 19 OFFCURVE",
"500 55 CURVE SMOOTH",
"500 362 LINE SMOOTH",
"500 402 OFFCURVE",
"503 419 OFFCURVE",
"518 433 CURVE",
"512 449 LINE",
"494 452 OFFCURVE",
"482 456 OFFCURVE",
"454 474 CURVE SMOOTH",
"366 530 LINE SMOOTH",
"331 552 OFFCURVE",
"305 562 OFFCURVE",
"263 562 CURVE SMOOTH",
"144 562 OFFCURVE",
"48 482 OFFCURVE",
"48 342 CURVE SMOOTH",
"48 249 OFFCURVE",
"91 180 OFFCURVE",
"91 76 CURVE SMOOTH",
"91 -2 LINE",
"102 -5 OFFCURVE",
"112 -6 OFFCURVE",
"120 -6 CURVE SMOOTH"
);
},
{
closed = 1;
nodes = (
"260 303 OFFCURVE",
"243 321 OFFCURVE",
"243 345 CURVE SMOOTH",
"243 369 OFFCURVE",
"260 387 OFFCURVE",
"283 387 CURVE SMOOTH",
"306 387 OFFCURVE",
"323 369 OFFCURVE",
"323 345 CURVE SMOOTH",
"323 321 OFFCURVE",
"306 303 OFFCURVE",
"283 303 CURVE SMOOTH"
);
}
);
width = 584;
}
);
note = uni0E04;
rightMetricsKey = "koKai-thai";
unicode = 0E04;
},
{
glyphname = "khoKhon-thai";
layers = (
{
anchors = (
{
name = bottom;
position = "{516, 0}";
},
{
name = top;
position = "{506, 510}";
}
);
layerId = "324B27C4-C4D5-407D-B181-631A50D9203C";
paths = (
{
closed = 1;
nodes = (
"159 -6 OFFCURVE",
"179 21 OFFCURVE",
"179 59 CURVE SMOOTH",
"179 87 LINE SMOOTH",
"179 160 OFFCURVE",
"205 287 OFFCURVE",
"239 321 CURVE",
"202 321 LINE",
"202 273 OFFCURVE",
"241 237 OFFCURVE",
"294 237 CURVE SMOOTH",
"348 237 OFFCURVE",
"382 274 OFFCURVE",
"382 324 CURVE SMOOTH",
"382 378 OFFCURVE",
"343 407 OFFCURVE",
"284 407 CURVE SMOOTH",
"172 407 OFFCURVE",
"131 238 OFFCURVE",
"131 87 CURVE",
"163 87 LINE",
"163 162 OFFCURVE",
"130 261 OFFCURVE",
"130 354 CURVE SMOOTH",
"130 439 OFFCURVE",
"168 490 OFFCURVE",
"212 490 CURVE SMOOTH",
"247 490 OFFCURVE",
"266 457 OFFCURVE",
"272 417 CURVE",
"296 417 LINE",
"302 457 OFFCURVE",
"319 490 OFFCURVE",
"350 490 CURVE SMOOTH",
"366 490 OFFCURVE",
"380 481 OFFCURVE",
"407 458 CURVE SMOOTH",
"437 432 OFFCURVE",
"455 423 OFFCURVE",
"479 421 CURVE",
"458 438 LINE",
"438 419 OFFCURVE",
"434 398 OFFCURVE",
"434 366 CURVE SMOOTH",
"434 -2 LINE",
"444 -5 OFFCURVE",
"454 -6 OFFCURVE",
"461 -6 CURVE SMOOTH",
"497 -6 OFFCURVE",
"516 19 OFFCURVE",
"516 55 CURVE SMOOTH",
"516 370 LINE SMOOTH",
"516 410 OFFCURVE",
"519 427 OFFCURVE",
"534 441 CURVE",
"528 457 LINE",
"510 460 OFFCURVE",
"501 467 OFFCURVE",
"444 513 CURVE SMOOTH",
"402 546 OFFCURVE",
"379 558 OFFCURVE",
"355 558 CURVE SMOOTH",
"322 558 OFFCURVE",
"295 536 OFFCURVE",
"284 495 CURVE",
"275 536 OFFCURVE",
"247 558 OFFCURVE",
"201 558 CURVE SMOOTH",
"115 558 OFFCURVE",
"48 480 OFFCURVE",
"48 361 CURVE SMOOTH",
"48 258 OFFCURVE",
"91 180 OFFCURVE",
"91 76 CURVE SMOOTH",
"91 -2 LINE",
"102 -5 OFFCURVE",
"112 -6 OFFCURVE",
"120 -6 CURVE SMOOTH"
);
},
{
closed = 1;
nodes = (
"267 277 OFFCURVE",
"250 295 OFFCURVE",
"250 319 CURVE SMOOTH",
"250 343 OFFCURVE",
"267 361 OFFCURVE",
"290 361 CURVE SMOOTH",
"313 361 OFFCURVE",
"330 343 OFFCURVE",
"330 319 CURVE SMOOTH",
"330 295 OFFCURVE",
"313 277 OFFCURVE",
"290 277 CURVE SMOOTH"
);
}
);
width = 600;
}
);
leftMetricsKey = "khoKhwai-thai";
note = uni0E05;
rightMetricsKey = "koKai-thai";
unicode = 0E05;
},
{
glyphname = "soSala-thai";
layers = (
{
anchors = (
{
name = bottom;
position = "{500, 0}";
},
{
name = top;
position = "{500, 510}";
}
);
layerId = "324B27C4-C4D5-407D-B181-631A50D9203C";
paths = (
{
closed = 1;
nodes = (
"159 -6 OFFCURVE",
"179 21 OFFCURVE",
"179 59 CURVE SMOOTH",
"179 87 LINE SMOOTH",
"179 160 OFFCURVE",
"202 313 OFFCURVE",
"236 347 CURVE",
"195 347 LINE",
"195 299 OFFCURVE",
"234 263 OFFCURVE",
"287 263 CURVE SMOOTH",
"341 263 OFFCURVE",
"375 300 OFFCURVE",
"375 350 CURVE SMOOTH",
"375 404 OFFCURVE",
"335 433 OFFCURVE",
"279 433 CURVE SMOOTH",
"164 433 OFFCURVE",
"131 238 OFFCURVE",
"131 87 CURVE",
"163 87 LINE",
"163 162 OFFCURVE",
"130 263 OFFCURVE",
"130 342 CURVE SMOOTH",
"130 446 OFFCURVE",
"188 494 OFFCURVE",
"262 494 CURVE SMOOTH",
"296 494 OFFCURVE",
"313 484 OFFCURVE",
"341 466 CURVE SMOOTH",
"382 439 LINE SMOOTH",
"415 417 OFFCURVE",
"432 411 OFFCURVE",
"456 409 CURVE",
"442 430 LINE",
"422 411 OFFCURVE",
"418 390 OFFCURVE",
"418 358 CURVE SMOOTH",
"418 -2 LINE",
"428 -5 OFFCURVE",
"438 -6 OFFCURVE",
"445 -6 CURVE SMOOTH",
"481 -6 OFFCURVE",
"500 19 OFFCURVE",
"500 55 CURVE SMOOTH",
"500 362 LINE SMOOTH",
"500 402 OFFCURVE",
"503 419 OFFCURVE",
"518 433 CURVE",
"512 449 LINE",
"494 452 OFFCURVE",
"482 456 OFFCURVE",
"454 474 CURVE SMOOTH",
"366 530 LINE SMOOTH",
"331 552 OFFCURVE",
"305 562 OFFCURVE",
"263 562 CURVE SMOOTH",
"144 562 OFFCURVE",
"48 482 OFFCURVE",
"48 342 CURVE SMOOTH",
"48 249 OFFCURVE",
"91 180 OFFCURVE",
"91 76 CURVE SMOOTH",
"91 -2 LINE",
"102 -5 OFFCURVE",
"112 -6 OFFCURVE",
"120 -6 CURVE SMOOTH"
);
},
{
closed = 1;
nodes = (
"260 303 OFFCURVE",
"243 321 OFFCURVE",
"243 345 CURVE SMOOTH",
"243 369 OFFCURVE",
"260 387 OFFCURVE",
"283 387 CURVE SMOOTH",
"306 387 OFFCURVE",
"323 369 OFFCURVE",
"323 345 CURVE SMOOTH",
"323 321 OFFCURVE",
"306 303 OFFCURVE",
"283 303 CURVE SMOOTH"
);
},
{
closed = 1;
nodes = (
"537 515 OFFCURVE",
"574 539 OFFCURVE",
"574 588 CURVE SMOOTH",
"574 609 OFFCURVE",
"563 619 OFFCURVE",
"555 624 CURVE",
"535 600 OFFCURVE",
"494 570 OFFCURVE",
"349 519 CURVE",
"390 468 LINE"
);
}
);
width = 584;
}
);
leftMetricsKey = "khoKhwai-thai";
note = uni0E28;
unicode = 0E28;
},
{
glyphname = "doDek-thai";
lastChange = "2018-03-12 19:44:16 +0000";
layers = (
{
anchors = (
{
name = bottom;
position = "{500, 0}";
},
{
name = top;
position = "{490, 510}";
}
);
layerId = "324B27C4-C4D5-407D-B181-631A50D9203C";
paths = (
{
closed = 1;
nodes = (
"257 -8 OFFCURVE",
"369 193 OFFCURVE",
"369 327 CURVE SMOOTH",
"369 399 OFFCURVE",
"336 439 OFFCURVE",
"272 439 CURVE SMOOTH",
"216 439 OFFCURVE",
"181 403 OFFCURVE",
"181 355 CURVE SMOOTH",
"181 305 OFFCURVE",
"213 269 OFFCURVE",
"269 269 CURVE SMOOTH",
"297 269 OFFCURVE",
"323 278 OFFCURVE",
"342 298 CURVE",
"297 292 LINE",
"297 212 OFFCURVE",
"209 54 OFFCURVE",
"132 54 CURVE",
"148 13 LINE",
"160 41 OFFCURVE",
"163 65 OFFCURVE",
"163 87 CURVE SMOOTH",
"163 239 OFFCURVE",
"130 263 OFFCURVE",
"130 342 CURVE SMOOTH",
"130 446 OFFCURVE",
"188 494 OFFCURVE",
"262 494 CURVE SMOOTH",
"296 494 OFFCURVE",
"312 485 OFFCURVE",
"341 466 CURVE SMOOTH",
"382 439 LINE SMOOTH",
"416 417 OFFCURVE",
"432 411 OFFCURVE",
"456 409 CURVE",
"442 430 LINE",
"422 411 OFFCURVE",
"418 390 OFFCURVE",
"418 358 CURVE SMOOTH",
"418 -2 LINE",
"428 -5 OFFCURVE",
"438 -6 OFFCURVE",
"445 -6 CURVE SMOOTH",
"481 -6 OFFCURVE",
"500 19 OFFCURVE",
"500 55 CURVE SMOOTH",
"500 362 LINE SMOOTH",
"500 402 OFFCURVE",
"503 419 OFFCURVE",
"518 433 CURVE",
"512 449 LINE",
"494 452 OFFCURVE",
"482 456 OFFCURVE",
"454 474 CURVE SMOOTH",
"366 530 LINE SMOOTH",
"331 552 OFFCURVE",
"305 562 OFFCURVE",
"263 562 CURVE SMOOTH",
"144 562 OFFCURVE",
"48 482 OFFCURVE",
"48 342 CURVE SMOOTH",
"48 249 OFFCURVE",
"91 180 OFFCURVE",
"91 76 CURVE SMOOTH",
"91 -2 LINE",
"108 -2 OFFCURVE",
"122 -8 OFFCURVE",
"147 -8 CURVE SMOOTH"
);
},
{
closed = 1;
nodes = (
"250 309 OFFCURVE",
"233 327 OFFCURVE",
"233 351 CURVE SMOOTH",
"233 375 OFFCURVE",
"250 393 OFFCURVE",
"273 393 CURVE SMOOTH",
"296 393 OFFCURVE",
"313 375 OFFCURVE",
"313 351 CURVE SMOOTH",
"313 327 OFFCURVE",
"296 309 OFFCURVE",
"273 309 CURVE SMOOTH"
);
}
);
width = 584;
}
);
leftMetricsKey = "khoKhwai-thai";
note = uni0E14;
rightMetricsKey = "koKai-thai";
unicode = 0E14;
},
{
glyphname = "toTao-thai";
layers = (
{
anchors = (
{
name = bottom;
position = "{516, 0}";
},
{
name = top;
position = "{506, 510}";
}
);
layerId = "324B27C4-C4D5-407D-B181-631A50D9203C";
paths = (
{
closed = 1;
nodes = (
"257 -8 OFFCURVE",
"374 156 OFFCURVE",
"374 290 CURVE SMOOTH",
"374 362 OFFCURVE",
"349 402 OFFCURVE",
"282 402 CURVE SMOOTH",
"226 402 OFFCURVE",
"186 374 OFFCURVE",
"186 318 CURVE SMOOTH",
"186 268 OFFCURVE",
"218 232 OFFCURVE",
"274 232 CURVE SMOOTH",
"302 232 OFFCURVE",
"328 235 OFFCURVE",
"347 255 CURVE",
"304 255 LINE",
"304 175 OFFCURVE",
"198 43 OFFCURVE",
"121 43 CURVE",
"148 13 LINE",
"160 41 OFFCURVE",
"163 65 OFFCURVE",
"163 87 CURVE SMOOTH",
"163 160 OFFCURVE",
"130 264 OFFCURVE",
"130 350 CURVE SMOOTH",
"130 443 OFFCURVE",
"168 490 OFFCURVE",
"211 490 CURVE SMOOTH",
"247 490 OFFCURVE",
"266 457 OFFCURVE",
"272 417 CURVE",
"296 417 LINE",
"302 457 OFFCURVE",
"319 490 OFFCURVE",
"350 490 CURVE SMOOTH",
"366 490 OFFCURVE",
"380 481 OFFCURVE",
"407 458 CURVE SMOOTH",
"437 432 OFFCURVE",
"455 423 OFFCURVE",
"479 421 CURVE",
"458 438 LINE",
"438 419 OFFCURVE",
"434 398 OFFCURVE",
"434 366 CURVE SMOOTH",
"434 -2 LINE",
"444 -5 OFFCURVE",
"454 -6 OFFCURVE",
"461 -6 CURVE SMOOTH",
"497 -6 OFFCURVE",
"516 19 OFFCURVE",
"516 55 CURVE SMOOTH",
"516 370 LINE SMOOTH",
"516 410 OFFCURVE",
"519 427 OFFCURVE",
"534 441 CURVE",
"528 457 LINE",
"510 460 OFFCURVE",
"501 467 OFFCURVE",
"444 513 CURVE SMOOTH",
"402 546 OFFCURVE",
"379 558 OFFCURVE",
"355 558 CURVE SMOOTH",
"322 558 OFFCURVE",
"295 536 OFFCURVE",
"284 495 CURVE",
"275 536 OFFCURVE",
"247 558 OFFCURVE",
"201 558 CURVE SMOOTH",
"115 558 OFFCURVE",
"48 483 OFFCURVE",
"48 355 CURVE SMOOTH",
"48 252 OFFCURVE",
"91 180 OFFCURVE",
"91 76 CURVE SMOOTH",
"91 -2 LINE",
"108 -2 OFFCURVE",
"122 -8 OFFCURVE",
"147 -8 CURVE SMOOTH"
);
},
{
closed = 1;
nodes = (
"255 272 OFFCURVE",
"238 290 OFFCURVE",
"238 314 CURVE SMOOTH",
"238 338 OFFCURVE",
"255 356 OFFCURVE",
"278 356 CURVE SMOOTH",
"301 356 OFFCURVE",
"318 338 OFFCURVE",
"318 314 CURVE SMOOTH",
"318 290 OFFCURVE",
"301 272 OFFCURVE",
"278 272 CURVE SMOOTH"
);
}
);
width = 600;
}
);
leftMetricsKey = "khoKhwai-thai";
note = uni0E15;
rightMetricsKey = "koKai-thai";
unicode = 0E15;
},
{
glyphname = "thoThahan-thai";
layers = (
{
anchors = (
{
name = bottom;
position = "{514, 0}";
},
{
name = top;
position = "{504, 510}";
}
);
layerId = "324B27C4-C4D5-407D-B181-631A50D9203C";
paths = (
{
closed = 1;
nodes = (
"213 -6 OFFCURVE",
"246 24 OFFCURVE",
"276 162 CURVE SMOOTH",
"329 405 LINE SMOOTH",
"341 462 OFFCURVE",
"361 490 OFFCURVE",
"391 490 CURVE SMOOTH",
"417 490 OFFCURVE",
"432 469 OFFCURVE",
"432 430 CURVE SMOOTH",
"432 -2 LINE",
"442 -5 OFFCURVE",
"452 -6 OFFCURVE",
"459 -6 CURVE SMOOTH",
"495 -6 OFFCURVE",
"514 19 OFFCURVE",
"514 55 CURVE SMOOTH",
"514 414 LINE SMOOTH",
"514 507 OFFCURVE",
"472 558 OFFCURVE",
"397 558 CURVE SMOOTH",
"322 558 OFFCURVE",
"271 507 OFFCURVE",
"251 414 CURVE SMOOTH",
"203 186 LINE SMOOTH",
"190 125 OFFCURVE",
"170 70 OFFCURVE",
"153 55 CURVE",
"153 20 LINE",
"178 62 OFFCURVE",
"180 124 OFFCURVE",
"180 174 CURVE SMOOTH",
"180 283 LINE SMOOTH",
"180 339 OFFCURVE",
"187 359 OFFCURVE",
"201 388 CURVE SMOOTH",
"215 416 OFFCURVE",
"222 433 OFFCURVE",
"222 458 CURVE SMOOTH",
"222 519 OFFCURVE",
"181 556 OFFCURVE",
"124 556 CURVE SMOOTH",
"65 556 OFFCURVE",
"22 516 OFFCURVE",
"22 461 CURVE SMOOTH",
"22 410 OFFCURVE",
"59 372 OFFCURVE",
"114 372 CURVE SMOOTH",
"134 372 OFFCURVE",
"150 377 OFFCURVE",
"163 387 CURVE",
"114 387 LINE",
"101 364 OFFCURVE",
"98 345 OFFCURVE",
"98 315 CURVE SMOOTH",
"98 170 LINE SMOOTH",
"98 90 OFFCURVE",
"91 56 OFFCURVE",
"66 18 CURVE",
"72 0 LINE",
"104 0 OFFCURVE",
"129 -6 OFFCURVE",
"155 -6 CURVE SMOOTH"
);
},
{
closed = 1;
nodes = (
"94 416 OFFCURVE",
"76 435 OFFCURVE",
"76 462 CURVE SMOOTH",
"76 489 OFFCURVE",
"94 508 OFFCURVE",
"120 508 CURVE SMOOTH",
"146 508 OFFCURVE",
"164 489 OFFCURVE",
"164 462 CURVE SMOOTH",
"164 435 OFFCURVE",
"146 416 OFFCURVE",
"120 416 CURVE SMOOTH"
);
}
);
width = 594;
}
);
note = uni0E17;
unicode = 0E17;
},
{
glyphname = "thoNangmontho-thai";
layers = (
{
anchors = (
{
name = bottom;
position = "{596, 0}";
},
{
name = top;
position = "{586, 510}";
}
);
layerId = "324B27C4-C4D5-407D-B181-631A50D9203C";
paths = (
{
closed = 1;
nodes = (
"295 -6 OFFCURVE",
"323 24 OFFCURVE",
"362 162 CURVE SMOOTH",
"431 405 LINE SMOOTH",
"448 466 OFFCURVE",
"457 490 OFFCURVE",
"482 490 CURVE SMOOTH",
"505 490 OFFCURVE",
"514 470 OFFCURVE",
"514 430 CURVE SMOOTH",
"514 -2 LINE",
"524 -5 OFFCURVE",
"534 -6 OFFCURVE",
"541 -6 CURVE SMOOTH",
"577 -6 OFFCURVE",
"596 19 OFFCURVE",
"596 55 CURVE SMOOTH",
"596 414 LINE SMOOTH",
"596 506 OFFCURVE",
"565 558 OFFCURVE",
"489 558 CURVE SMOOTH",
"416 558 OFFCURVE",
"384 511 OFFCURVE",
"357 414 CURVE SMOOTH",
"293 186 LINE SMOOTH",
"276 125 OFFCURVE",
"252 70 OFFCURVE",
"231 55 CURVE",
"231 20 LINE",
"251 53 OFFCURVE",
"258 99 OFFCURVE",
"258 137 CURVE SMOOTH",
"258 164 LINE SMOOTH",
"258 206 OFFCURVE",
"264 227 OFFCURVE",
"284 294 CURVE SMOOTH",
"309 378 OFFCURVE",
"316 404 OFFCURVE",
"316 439 CURVE SMOOTH",
"316 517 OFFCURVE",
"281 558 OFFCURVE",
"229 558 CURVE SMOOTH",
"197 558 OFFCURVE",
"173 543 OFFCURVE",
"157 516 CURVE",
"141 543 OFFCURVE",
"118 558 OFFCURVE",
"90 558 CURVE SMOOTH",
"43 558 OFFCURVE",
"12 515 OFFCURVE",
"12 447 CURVE SMOOTH",
"12 365 OFFCURVE",
"58 318 OFFCURVE",
"127 318 CURVE SMOOTH",
"183 318 OFFCURVE",
"217 350 OFFCURVE",
"217 388 CURVE SMOOTH",
"217 422 OFFCURVE",
"192 446 OFFCURVE",
"162 446 CURVE SMOOTH",
"137 446 OFFCURVE",
"119 429 OFFCURVE",
"126 407 CURVE",
"155 408 OFFCURVE",
"167 399 OFFCURVE",
"167 387 CURVE SMOOTH",
"167 374 OFFCURVE",
"154 366 OFFCURVE",
"133 366 CURVE SMOOTH",
"95 366 OFFCURVE",
"72 393 OFFCURVE",
"72 441 CURVE SMOOTH",
"72 478 OFFCURVE",
"86 504 OFFCURVE",
"110 504 CURVE SMOOTH",
"128 504 OFFCURVE",
"142 491 OFFCURVE",
"148 468 CURVE",
"166 468 LINE",
"172 491 OFFCURVE",
"185 504 OFFCURVE",
"207 504 CURVE SMOOTH",
"234 504 OFFCURVE",
"250 485 OFFCURVE",
"250 441 CURVE SMOOTH",
"250 408 OFFCURVE",
"241 380 OFFCURVE",
"213 300 CURVE SMOOTH",
"183 215 OFFCURVE",
"180 204 OFFCURVE",
"180 160 CURVE SMOOTH",
"180 131 LINE SMOOTH",
"180 80 OFFCURVE",
"169 50 OFFCURVE",
"148 18 CURVE",
"154 0 LINE",
"186 0 OFFCURVE",
"211 -6 OFFCURVE",
"237 -6 CURVE SMOOTH"
);
}
);
width = 676;
}
);
note = uni0E11;
rightMetricsKey = "thoThahan-thai";
unicode = 0E11;
},
{
glyphname = "noNu-thai";
layers = (
{
anchors = (
{
name = bottom;
position = "{462, 0}";
},
{
name = top;
position = "{462, 510}";
}
);
layerId = "324B27C4-C4D5-407D-B181-631A50D9203C";
paths = (
{
closed = 1;
nodes = (
"168 -6 OFFCURVE",
"203 16 OFFCURVE",
"298 85 CURVE SMOOTH",
"388 151 OFFCURVE",
"413 168 OFFCURVE",
"446 168 CURVE",
"459 191 OFFCURVE",
"462 210 OFFCURVE",
"462 240 CURVE SMOOTH",
"462 550 LINE",
"452 553 OFFCURVE",
"442 554 OFFCURVE",
"435 554 CURVE SMOOTH",
"399 554 OFFCURVE",
"380 529 OFFCURVE",
"380 493 CURVE SMOOTH",
"380 182 LINE",
"404 198 LINE",
"354 198 OFFCURVE",
"335 185 OFFCURVE",
"260 133 CURVE SMOOTH",
"196 89 OFFCURVE",
"172 73 OFFCURVE",
"130 68 CURVE",
"153 20 LINE",
"178 62 OFFCURVE",
"180 124 OFFCURVE",
"180 174 CURVE SMOOTH",
"180 283 LINE SMOOTH",
"180 339 OFFCURVE",
"187 359 OFFCURVE",
"201 388 CURVE SMOOTH",
"215 417 OFFCURVE",
"222 432 OFFCURVE",
"222 457 CURVE SMOOTH",
"222 519 OFFCURVE",
"181 556 OFFCURVE",
"124 556 CURVE SMOOTH",
"65 556 OFFCURVE",
"22 516 OFFCURVE",
"22 461 CURVE SMOOTH",
"22 410 OFFCURVE",
"59 372 OFFCURVE",
"114 372 CURVE SMOOTH",
"134 372 OFFCURVE",
"150 377 OFFCURVE",
"163 387 CURVE",
"114 387 LINE",
"101 364 OFFCURVE",
"98 345 OFFCURVE",
"98 315 CURVE SMOOTH",
"98 170 LINE SMOOTH",
"98 90 OFFCURVE",
"91 54 OFFCURVE",
"66 16 CURVE",
"72 -2 LINE",
"93 -2 OFFCURVE",
"103 -6 OFFCURVE",
"122 -6 CURVE SMOOTH"
);
},
{
closed = 1;
nodes = (
"477 -8 OFFCURVE",
"522 34 OFFCURVE",
"522 92 CURVE SMOOTH",
"522 150 OFFCURVE",
"477 192 OFFCURVE",
"414 192 CURVE SMOOTH",
"351 192 OFFCURVE",
"306 150 OFFCURVE",
"306 92 CURVE SMOOTH",
"306 34 OFFCURVE",
"351 -8 OFFCURVE",
"414 -8 CURVE SMOOTH"
);
},
{
closed = 1;
nodes = (
"385 40 OFFCURVE",
"364 62 OFFCURVE",
"364 92 CURVE SMOOTH",
"364 122 OFFCURVE",
"385 144 OFFCURVE",
"414 144 CURVE SMOOTH",
"443 144 OFFCURVE",
"464 122 OFFCURVE",
"464 92 CURVE SMOOTH",
"464 62 OFFCURVE",
"443 40 OFFCURVE",
"414 40 CURVE SMOOTH"
);
},
{
closed = 1;
nodes = (
"94 416 OFFCURVE",
"76 435 OFFCURVE",
"76 462 CURVE SMOOTH",
"76 489 OFFCURVE",
"94 508 OFFCURVE",
"120 508 CURVE SMOOTH",
"146 508 OFFCURVE",
"164 489 OFFCURVE",
"164 462 CURVE SMOOTH",
"164 435 OFFCURVE",
"146 416 OFFCURVE",
"120 416 CURVE SMOOTH"
);
}
);
width = 558;
}
);
note = uni0E19;
unicode = 0E19;
},
{
glyphname = "moMa-thai";
layers = (
{
anchors = (
{
name = bottom;
position = "{474, 0}";
},
{
name = top;
position = "{474, 510}";
}
);
layerId = "324B27C4-C4D5-407D-B181-631A50D9203C";
paths = (
{
closed = 1;
nodes = (
"469 -6 OFFCURVE",
"478 33 OFFCURVE",
"478 104 CURVE SMOOTH",
"478 550 LINE",
"468 553 OFFCURVE",
"458 554 OFFCURVE",
"451 554 CURVE SMOOTH",
"415 554 OFFCURVE",
"396 529 OFFCURVE",
"396 493 CURVE SMOOTH",
"396 174 LINE SMOOTH",
"396 124 OFFCURVE",
"398 62 OFFCURVE",
"423 20 CURVE",
"447 39 LINE",
"413 74 OFFCURVE",
"389 93 OFFCURVE",
"324 135 CURVE SMOOTH",
"247 185 OFFCURVE",
"216 198 OFFCURVE",
"186 198 CURVE",
"210 182 LINE",
"210 283 LINE SMOOTH",
"210 339 OFFCURVE",
"217 359 OFFCURVE",
"231 388 CURVE SMOOTH",
"246 419 OFFCURVE",
"252 433 OFFCURVE",
"252 457 CURVE SMOOTH",
"252 519 OFFCURVE",
"211 556 OFFCURVE",
"154 556 CURVE SMOOTH",
"95 556 OFFCURVE",
"52 516 OFFCURVE",
"52 461 CURVE SMOOTH",
"52 410 OFFCURVE",
"89 372 OFFCURVE",
"144 372 CURVE SMOOTH",
"164 372 OFFCURVE",
"180 377 OFFCURVE",
"193 387 CURVE",
"144 387 LINE",
"131 364 OFFCURVE",
"128 345 OFFCURVE",
"128 315 CURVE SMOOTH",
"128 240 LINE SMOOTH",
"128 210 OFFCURVE",
"131 191 OFFCURVE",
"144 168 CURVE",
"164 161 OFFCURVE",
"184 148 OFFCURVE",
"272 93 CURVE SMOOTH",
"357 40 OFFCURVE",
"384 20 OFFCURVE",
"412 -6 CURVE"
);
},
{
closed = 1;
nodes = (
"207 -8 OFFCURVE",
"252 34 OFFCURVE",
"252 92 CURVE SMOOTH",
"252 150 OFFCURVE",
"207 192 OFFCURVE",
"144 192 CURVE SMOOTH",
"81 192 OFFCURVE",
"36 150 OFFCURVE",
"36 92 CURVE SMOOTH",
"36 34 OFFCURVE",
"81 -8 OFFCURVE",
"144 -8 CURVE SMOOTH"
);
},
{
closed = 1;
nodes = (
"115 40 OFFCURVE",
"94 62 OFFCURVE",
"94 92 CURVE SMOOTH",
"94 122 OFFCURVE",
"115 144 OFFCURVE",
"144 144 CURVE SMOOTH",
"173 144 OFFCURVE",
"194 122 OFFCURVE",
"194 92 CURVE SMOOTH",
"194 62 OFFCURVE",
"173 40 OFFCURVE",
"144 40 CURVE SMOOTH"
);
},
{
closed = 1;
nodes = (
"124 416 OFFCURVE",
"106 435 OFFCURVE",
"106 462 CURVE SMOOTH",
"106 489 OFFCURVE",
"124 508 OFFCURVE",
"150 508 CURVE SMOOTH",
"176 508 OFFCURVE",
"194 489 OFFCURVE",
"194 462 CURVE SMOOTH",
"194 435 OFFCURVE",
"176 416 OFFCURVE",
"150 416 CURVE SMOOTH"
);
}
);
width = 562;
}
);
note = uni0E21;
unicode = 0E21;
},
{
glyphname = "choChoe-thai";
layers = (
{
anchors = (
{
name = bottom;
position = "{742, 0}";
},
{
name = top;
position = "{742, 510}";
}
);
layerId = "324B27C4-C4D5-407D-B181-631A50D9203C";
paths = (
{
closed = 1;
nodes = (
"733 -6 OFFCURVE",
"742 33 OFFCURVE",
"742 104 CURVE SMOOTH",
"742 550 LINE",
"732 553 OFFCURVE",
"722 554 OFFCURVE",
"715 554 CURVE SMOOTH",
"679 554 OFFCURVE",
"660 529 OFFCURVE",
"660 493 CURVE SMOOTH",
"660 174 LINE SMOOTH",
"660 124 OFFCURVE",
"662 62 OFFCURVE",
"687 20 CURVE",
"711 39 LINE",
"678 74 OFFCURVE",
"655 93 OFFCURVE",
"592 135 CURVE SMOOTH",
"517 185 OFFCURVE",
"491 198 OFFCURVE",
"462 198 CURVE",
"486 182 LINE",
"486 354 LINE SMOOTH",
"486 394 OFFCURVE",
"489 411 OFFCURVE",
"504 425 CURVE",
"498 441 LINE",
"484 444 OFFCURVE",
"473 447 OFFCURVE",
"440 467 CURVE SMOOTH",
"320 540 LINE SMOOTH",
"295 555 OFFCURVE",
"267 562 OFFCURVE",
"238 562 CURVE SMOOTH",
"148 562 OFFCURVE",
"70 495 OFFCURVE",
"22 404 CURVE",
"22 399 LINE",
"66 386 OFFCURVE",
"108 358 OFFCURVE",
"129 321 CURVE",
"177 352 LINE",
"159 390 OFFCURVE",
"121 418 OFFCURVE",
"72 427 CURVE",
"97 395 LINE",
"122 455 OFFCURVE",
"176 494 OFFCURVE",
"232 494 CURVE SMOOTH",
"256 494 OFFCURVE",
"280 487 OFFCURVE",
"306 470 CURVE SMOOTH",
"368 430 LINE SMOOTH",
"402 408 OFFCURVE",
"418 403 OFFCURVE",
"442 401 CURVE",
"428 422 LINE",
"408 403 OFFCURVE",
"404 382 OFFCURVE",
"404 350 CURVE SMOOTH",
"404 240 LINE SMOOTH",
"404 210 OFFCURVE",
"407 191 OFFCURVE",
"420 168 CURVE",
"446 158 OFFCURVE",
"467 145 OFFCURVE",
"544 93 CURVE SMOOTH",
"626 38 OFFCURVE",
"649 20 OFFCURVE",
"676 -6 CURVE"
);
},
{
closed = 1;
nodes = (
"173 40 OFFCURVE",
"156 58 OFFCURVE",
"156 84 CURVE SMOOTH",
"156 110 OFFCURVE",
"173 128 OFFCURVE",
"196 128 CURVE SMOOTH",
"219 128 OFFCURVE",
"236 110 OFFCURVE",
"236 84 CURVE SMOOTH",
"236 58 OFFCURVE",
"219 40 OFFCURVE",
"196 40 CURVE SMOOTH"
);
},
{
closed = 1;
nodes = (
"249 -8 OFFCURVE",
"290 31 OFFCURVE",
"290 86 CURVE SMOOTH",
"290 136 OFFCURVE",
"256 172 OFFCURVE",
"206 172 CURVE SMOOTH",
"174 172 OFFCURVE",
"154 157 OFFCURVE",
"145 137 CURVE",
"170 137 LINE",
"178 161 OFFCURVE",
"180 176 OFFCURVE",
"180 197 CURVE SMOOTH",
"180 235 LINE SMOOTH",
"180 321 OFFCURVE",
"203 357 OFFCURVE",
"268 375 CURVE",
"268 381 LINE",
"252 390 OFFCURVE",
"234 396 OFFCURVE",
"209 396 CURVE SMOOTH",
"142 396 OFFCURVE",
"98 352 OFFCURVE",
"98 235 CURVE SMOOTH",
"98 92 LINE SMOOTH",
"98 31 OFFCURVE",
"135 -8 OFFCURVE",
"192 -8 CURVE SMOOTH"
);
},
{
closed = 1;
nodes = (
"486 -8 OFFCURVE",
"528 31 OFFCURVE",
"528 86 CURVE SMOOTH",
"528 141 OFFCURVE",
"486 180 OFFCURVE",
"427 180 CURVE SMOOTH",
"368 180 OFFCURVE",
"326 141 OFFCURVE",
"326 86 CURVE SMOOTH",
"326 31 OFFCURVE",
"368 -8 OFFCURVE",
"427 -8 CURVE SMOOTH"
);
},
{
closed = 1;
nodes = (
"402 40 OFFCURVE",
"384 59 OFFCURVE",
"384 86 CURVE SMOOTH",
"384 113 OFFCURVE",
"402 132 OFFCURVE",
"427 132 CURVE SMOOTH",
"452 132 OFFCURVE",
"470 113 OFFCURVE",
"470 86 CURVE SMOOTH",
"470 59 OFFCURVE",
"452 40 OFFCURVE",
"427 40 CURVE SMOOTH"
);
}
);
width = 830;
}
);
leftMetricsKey = "thoThung-thai";
note = uni0E0C;
unicode = 0E0C;
},
{
glyphname = "noNen-thai";
layers = (
{
anchors = (
{
name = bottom;
position = "{752, 0}";
},
{
name = top;
position = "{752, 510}";
}
);
layerId = "324B27C4-C4D5-407D-B181-631A50D9203C";
paths = (
{
closed = 1;
nodes = (
"471 -6 OFFCURVE",
"504 15 OFFCURVE",
"595 85 CURVE SMOOTH",
"680 150 OFFCURVE",
"704 168 OFFCURVE",
"736 168 CURVE",
"749 191 OFFCURVE",
"752 210 OFFCURVE",
"752 240 CURVE SMOOTH",
"752 550 LINE",
"742 553 OFFCURVE",
"732 554 OFFCURVE",
"725 554 CURVE SMOOTH",
"689 554 OFFCURVE",
"670 529 OFFCURVE",
"670 493 CURVE SMOOTH",
"670 182 LINE",
"694 198 LINE",
"649 198 OFFCURVE",
"632 185 OFFCURVE",
"565 133 CURVE SMOOTH",
"507 88 OFFCURVE",
"486 73 OFFCURVE",
"449 68 CURVE",
"459 20 LINE",
"484 62 OFFCURVE",
"486 124 OFFCURVE",
"486 174 CURVE SMOOTH",
"486 354 LINE SMOOTH",
"486 394 OFFCURVE",
"489 411 OFFCURVE",
"504 425 CURVE",
"498 441 LINE",
"484 444 OFFCURVE",
"473 447 OFFCURVE",
"440 467 CURVE SMOOTH",
"320 540 LINE SMOOTH",
"295 555 OFFCURVE",
"267 562 OFFCURVE",
"238 562 CURVE SMOOTH",
"148 562 OFFCURVE",
"70 495 OFFCURVE",
"22 404 CURVE",
"22 399 LINE",
"66 386 OFFCURVE",
"108 358 OFFCURVE",
"129 321 CURVE",
"177 352 LINE",
"159 390 OFFCURVE",
"121 418 OFFCURVE",
"72 427 CURVE",
"97 395 LINE",
"122 455 OFFCURVE",
"176 494 OFFCURVE",
"232 494 CURVE SMOOTH",
"256 494 OFFCURVE",
"280 487 OFFCURVE",
"306 470 CURVE SMOOTH",
"368 430 LINE SMOOTH",
"402 408 OFFCURVE",
"418 403 OFFCURVE",
"442 401 CURVE",
"428 422 LINE",
"408 403 OFFCURVE",
"404 382 OFFCURVE",
"404 350 CURVE SMOOTH",
"404 170 LINE SMOOTH",
"404 90 OFFCURVE",
"397 54 OFFCURVE",
"372 16 CURVE",
"378 -2 LINE",
"399 -2 OFFCURVE",
"410 -6 OFFCURVE",
"428 -6 CURVE SMOOTH"
);
},
{
closed = 1;
nodes = (
"173 40 OFFCURVE",
"156 58 OFFCURVE",
"156 84 CURVE SMOOTH",
"156 110 OFFCURVE",
"173 128 OFFCURVE",
"196 128 CURVE SMOOTH",
"219 128 OFFCURVE",
"236 110 OFFCURVE",
"236 84 CURVE SMOOTH",
"236 58 OFFCURVE",
"219 40 OFFCURVE",
"196 40 CURVE SMOOTH"
);
},
{
closed = 1;
nodes = (
"249 -8 OFFCURVE",
"290 31 OFFCURVE",
"290 86 CURVE SMOOTH",
"290 136 OFFCURVE",
"256 172 OFFCURVE",
"206 172 CURVE SMOOTH",
"174 172 OFFCURVE",
"154 157 OFFCURVE",
"145 137 CURVE",
"170 137 LINE",
"178 161 OFFCURVE",
"180 176 OFFCURVE",
"180 197 CURVE SMOOTH",
"180 235 LINE SMOOTH",
"180 321 OFFCURVE",
"203 357 OFFCURVE",
"268 375 CURVE",
"268 381 LINE",
"252 390 OFFCURVE",
"234 396 OFFCURVE",
"209 396 CURVE SMOOTH",
"142 396 OFFCURVE",
"98 352 OFFCURVE",
"98 235 CURVE SMOOTH",
"98 92 LINE SMOOTH",
"98 31 OFFCURVE",
"135 -8 OFFCURVE",
"192 -8 CURVE SMOOTH"
);
},
{
closed = 1;
nodes = (
"767 -8 OFFCURVE",
"812 33 OFFCURVE",
"812 90 CURVE SMOOTH",
"812 147 OFFCURVE",
"767 188 OFFCURVE",
"706 188 CURVE SMOOTH",
"645 188 OFFCURVE",
"600 147 OFFCURVE",
"600 90 CURVE SMOOTH",
"600 33 OFFCURVE",
"645 -8 OFFCURVE",
"706 -8 CURVE SMOOTH"
);
},
{
closed = 1;
nodes = (
"678 40 OFFCURVE",
"658 61 OFFCURVE",
"658 90 CURVE SMOOTH",
"658 119 OFFCURVE",
"678 140 OFFCURVE",
"706 140 CURVE SMOOTH",
"734 140 OFFCURVE",
"754 119 OFFCURVE",
"754 90 CURVE SMOOTH",
"754 61 OFFCURVE",
"734 40 OFFCURVE",
"706 40 CURVE SMOOTH"
);
}
);
width = 848;
}
);
leftMetricsKey = "thoThung-thai";
note = uni0E13;
rightMetricsKey = "noNu-thai";
unicode = 0E13;
},
{
glyphname = "thoPhuthao-thai";
layers = (
{
anchors = (
{
name = bottom;
position = "{760, 0}";
},
{
name = top;
position = "{760, 510}";
}
);
layerId = "324B27C4-C4D5-407D-B181-631A50D9203C";
paths = (
{
closed = 1;
nodes = (
"257 -8 OFFCURVE",
"374 159 OFFCURVE",
"374 293 CURVE SMOOTH",
"374 365 OFFCURVE",
"349 405 OFFCURVE",
"282 405 CURVE SMOOTH",
"226 405 OFFCURVE",
"186 377 OFFCURVE",
"186 321 CURVE SMOOTH",
"186 271 OFFCURVE",
"218 235 OFFCURVE",
"274 235 CURVE SMOOTH",
"302 235 OFFCURVE",
"311 242 OFFCURVE",
"330 262 CURVE",
"302 262 LINE",
"302 182 OFFCURVE",
"209 54 OFFCURVE",
"132 54 CURVE",
"148 13 LINE",
"160 41 OFFCURVE",
"163 65 OFFCURVE",
"163 87 CURVE SMOOTH",
"163 160 OFFCURVE",
"130 264 OFFCURVE",
"130 350 CURVE SMOOTH",
"130 443 OFFCURVE",
"168 490 OFFCURVE",
"211 490 CURVE SMOOTH",
"247 490 OFFCURVE",
"266 457 OFFCURVE",
"272 417 CURVE",
"296 417 LINE",
"302 457 OFFCURVE",
"319 490 OFFCURVE",
"350 490 CURVE SMOOTH",
"366 490 OFFCURVE",
"380 481 OFFCURVE",
"407 458 CURVE SMOOTH",
"437 432 OFFCURVE",
"455 423 OFFCURVE",
"479 421 CURVE",
"469 443 LINE",
"449 424 OFFCURVE",
"434 398 OFFCURVE",
"434 366 CURVE SMOOTH",
"434 263 LINE SMOOTH",
"434 195 OFFCURVE",
"446 176 OFFCURVE",
"461 152 CURVE",
"493 140 OFFCURVE",
"534 117 OFFCURVE",
"573 89 CURVE SMOOTH",
"612 61 OFFCURVE",
"650 28 OFFCURVE",
"672 0 CURVE",
"742 0 OFFCURVE",
"760 80 OFFCURVE",
"760 160 CURVE SMOOTH",
"760 550 LINE",
"750 553 OFFCURVE",
"740 554 OFFCURVE",
"733 554 CURVE SMOOTH",
"697 554 OFFCURVE",
"678 529 OFFCURVE",
"678 493 CURVE SMOOTH",
"678 160 LINE SMOOTH",
"678 110 OFFCURVE",
"681 91 OFFCURVE",
"689 70 CURVE",
"714 70 LINE",
"672 105 OFFCURVE",
"646 125 OFFCURVE",
"616 144 CURVE SMOOTH",
"586 163 OFFCURVE",
"556 179 OFFCURVE",
"516 200 CURVE",
"516 370 LINE SMOOTH",
"516 410 OFFCURVE",
"519 427 OFFCURVE",
"534 441 CURVE",
"528 457 LINE",
"510 460 OFFCURVE",
"501 467 OFFCURVE",
"444 513 CURVE SMOOTH",
"402 547 OFFCURVE",
"379 558 OFFCURVE",
"355 558 CURVE SMOOTH",
"322 558 OFFCURVE",
"295 536 OFFCURVE",
"284 495 CURVE",
"275 536 OFFCURVE",
"247 558 OFFCURVE",
"201 558 CURVE SMOOTH",
"115 558 OFFCURVE",
"48 483 OFFCURVE",
"48 355 CURVE SMOOTH",
"48 252 OFFCURVE",
"91 180 OFFCURVE",
"91 76 CURVE SMOOTH",
"91 -2 LINE",
"108 -2 OFFCURVE",
"122 -8 OFFCURVE",
"147 -8 CURVE SMOOTH"
);
},
{
closed = 1;
nodes = (
"517 -8 OFFCURVE",
"552 30 OFFCURVE",
"552 89 CURVE SMOOTH",
"552 145 OFFCURVE",
"517 181 OFFCURVE",
"462 181 CURVE SMOOTH",
"398 181 OFFCURVE",
"372 145 OFFCURVE",
"372 89 CURVE SMOOTH",
"372 30 OFFCURVE",
"407 -8 OFFCURVE",
"462 -8 CURVE SMOOTH"
);
},
{
closed = 1;
nodes = (
"437 42 OFFCURVE",
"422 59 OFFCURVE",
"422 85 CURVE SMOOTH",
"422 110 OFFCURVE",
"437 126 OFFCURVE",
"462 126 CURVE SMOOTH",
"487 126 OFFCURVE",
"502 110 OFFCURVE",
"502 85 CURVE SMOOTH",
"502 59 OFFCURVE",
"487 42 OFFCURVE",
"462 42 CURVE SMOOTH"
);
},
{
closed = 1;
nodes = (
"255 275 OFFCURVE",
"238 293 OFFCURVE",
"238 317 CURVE SMOOTH",
"238 341 OFFCURVE",
"255 359 OFFCURVE",
"278 359 CURVE SMOOTH",
"301 359 OFFCURVE",
"318 341 OFFCURVE",
"318 317 CURVE SMOOTH",
"318 293 OFFCURVE",
"301 275 OFFCURVE",
"278 275 CURVE SMOOTH"
);
}
);
width = 844;
}
);
leftMetricsKey = "khoKhwai-thai";
note = uni0E12;
rightMetricsKey = "moMa-thai";
unicode = 0E12;
},
{
glyphname = "khoRakhang-thai";
layers = (
{
anchors = (
{
name = bottom;
position = "{490, 0}";
},
{
name = top;
position = "{490, 510}";
}
);
layerId = "324B27C4-C4D5-407D-B181-631A50D9203C";
paths = (
{
closed = 1;
nodes = (
"481 -6 OFFCURVE",
"490 33 OFFCURVE",
"490 104 CURVE SMOOTH",
"490 550 LINE",
"480 553 OFFCURVE",
"470 554 OFFCURVE",
"463 554 CURVE SMOOTH",
"427 554 OFFCURVE",
"408 529 OFFCURVE",
"408 493 CURVE SMOOTH",
"408 174 LINE SMOOTH",
"408 124 OFFCURVE",
"410 62 OFFCURVE",
"435 20 CURVE",
"459 39 LINE",
"425 74 OFFCURVE",
"401 93 OFFCURVE",
"336 135 CURVE SMOOTH",
"259 185 OFFCURVE",
"232 198 OFFCURVE",
"202 198 CURVE",
"226 154 LINE",
"226 188 OFFCURVE",
"238 214 OFFCURVE",
"298 297 CURVE SMOOTH",
"328 339 OFFCURVE",
"336 366 OFFCURVE",
"336 432 CURVE SMOOTH",
"336 516 OFFCURVE",
"300 558 OFFCURVE",
"241 558 CURVE SMOOTH",
"207 558 OFFCURVE",
"185 544 OFFCURVE",
"169 516 CURVE",
"153 544 OFFCURVE",
"131 558 OFFCURVE",
"101 558 CURVE SMOOTH",
"47 558 OFFCURVE",
"16 514 OFFCURVE",
"16 443 CURVE SMOOTH",
"16 357 OFFCURVE",
"62 313 OFFCURVE",
"131 313 CURVE SMOOTH",
"187 313 OFFCURVE",
"221 342 OFFCURVE",
"221 384 CURVE SMOOTH",
"221 420 OFFCURVE",
"196 444 OFFCURVE",
"166 444 CURVE SMOOTH",
"141 444 OFFCURVE",
"123 427 OFFCURVE",
"130 405 CURVE",
"159 406 OFFCURVE",
"171 397 OFFCURVE",
"171 382 CURVE SMOOTH",
"171 366 OFFCURVE",
"157 358 OFFCURVE",
"137 358 CURVE SMOOTH",
"99 358 OFFCURVE",
"76 387 OFFCURVE",
"76 432 CURVE SMOOTH",
"76 466 OFFCURVE",
"89 504 OFFCURVE",
"120 504 CURVE SMOOTH",
"138 504 OFFCURVE",
"154 491 OFFCURVE",
"160 468 CURVE",
"178 468 LINE",
"184 491 OFFCURVE",
"200 504 OFFCURVE",
"219 504 CURVE SMOOTH",
"251 504 OFFCURVE",
"266 468 OFFCURVE",
"266 426 CURVE SMOOTH",
"266 371 OFFCURVE",
"256 346 OFFCURVE",
"217 300 CURVE SMOOTH",
"160 233 OFFCURVE",
"146 207 OFFCURVE",
"146 168 CURVE",
"180 161 OFFCURVE",
"201 150 OFFCURVE",
"288 93 CURVE SMOOTH",
"369 40 OFFCURVE",
"396 20 OFFCURVE",
"424 -6 CURVE"
);
},
{
closed = 1;
nodes = (
"223 -8 OFFCURVE",
"268 34 OFFCURVE",
"268 92 CURVE SMOOTH",
"268 150 OFFCURVE",
"223 192 OFFCURVE",
"160 192 CURVE SMOOTH",
"97 192 OFFCURVE",
"52 150 OFFCURVE",
"52 92 CURVE SMOOTH",
"52 34 OFFCURVE",
"97 -8 OFFCURVE",
"160 -8 CURVE SMOOTH"
);
},
{
closed = 1;
nodes = (
"131 40 OFFCURVE",
"110 62 OFFCURVE",
"110 92 CURVE SMOOTH",
"110 122 OFFCURVE",
"131 144 OFFCURVE",
"160 144 CURVE SMOOTH",
"189 144 OFFCURVE",
"210 122 OFFCURVE",
"210 92 CURVE SMOOTH",
"210 62 OFFCURVE",
"189 40 OFFCURVE",
"160 40 CURVE SMOOTH"
);
}
);
width = 574;
}
);
note = uni0E06;
rightMetricsKey = "moMa-thai";
unicode = 0E06;
},
{
glyphname = "thoThong-thai";
layers = (
{
anchors = (
{
name = bottom;
position = "{404, 0}";
},
{
name = top;
position = "{476, 510}";
}
);
layerId = "324B27C4-C4D5-407D-B181-631A50D9203C";
paths = (
{
closed = 1;
nodes = (
"354 -12 OFFCURVE",
"404 41 OFFCURVE",
"404 150 CURVE SMOOTH",
"404 302 LINE SMOOTH",
"404 342 OFFCURVE",
"409 359 OFFCURVE",
"424 373 CURVE",
"418 389 LINE",
"321 427 OFFCURVE",
"235 446 OFFCURVE",
"104 446 CURVE",
"118 412 LINE",
"128 474 OFFCURVE",
"158 502 OFFCURVE",
"218 502 CURVE SMOOTH",
"279 502 OFFCURVE",
"329 464 OFFCURVE",
"393 464 CURVE SMOOTH",
"426 464 OFFCURVE",
"450 474 OFFCURVE",
"450 509 CURVE SMOOTH",
"450 516 OFFCURVE",
"449 523 OFFCURVE",
"444 530 CURVE",
"429 525 OFFCURVE",
"412 522 OFFCURVE",
"394 522 CURVE SMOOTH",
"328 522 OFFCURVE",
"284 562 OFFCURVE",
"209 562 CURVE SMOOTH",
"122 562 OFFCURVE",
"62 517 OFFCURVE",
"46 407 CURVE",
"52 391 LINE",
"186 391 OFFCURVE",
"264 376 OFFCURVE",
"367 347 CURVE",
"352 371 LINE",
"327 346 OFFCURVE",
"324 325 OFFCURVE",
"324 293 CURVE SMOOTH",
"324 150 LINE SMOOTH",
"324 82 OFFCURVE",
"303 52 OFFCURVE",
"243 52 CURVE SMOOTH",
"208 52 OFFCURVE",
"163 62 OFFCURVE",
"130 62 CURVE",
"149 26 LINE",
"174 68 OFFCURVE",
"176 120 OFFCURVE",
"176 170 CURVE SMOOTH",
"176 403 LINE",
"100 403 LINE",
"100 166 LINE SMOOTH",
"100 86 OFFCURVE",
"93 60 OFFCURVE",
"68 22 CURVE",
"74 4 LINE",
"142 4 OFFCURVE",
"181 -12 OFFCURVE",
"243 -12 CURVE SMOOTH"
);
}
);
width = 492;
}
);
note = uni0E18;
unicode = 0E18;
},
{
glyphname = "roRua-thai";
layers = (
{
anchors = (
{
name = bottom;
position = "{322, 0}";
},
{
name = top;
position = "{372, 510}";
}
);
layerId = "324B27C4-C4D5-407D-B181-631A50D9203C";
paths = (
{
closed = 1;
nodes = (
"280 -8 OFFCURVE",
"322 34 OFFCURVE",
"322 92 CURVE SMOOTH",
"322 309 LINE SMOOTH",
"322 349 OFFCURVE",
"327 366 OFFCURVE",
"342 380 CURVE",
"336 396 LINE",
"269 434 OFFCURVE",
"183 458 OFFCURVE",
"82 458 CURVE",
"96 424 LINE",
"105 481 OFFCURVE",
"137 502 OFFCURVE",
"177 502 CURVE SMOOTH",
"231 502 OFFCURVE",
"264 464 OFFCURVE",
"329 464 CURVE SMOOTH",
"362 464 OFFCURVE",
"386 474 OFFCURVE",
"386 509 CURVE SMOOTH",
"386 516 OFFCURVE",
"385 523 OFFCURVE",
"380 530 CURVE",
"365 525 OFFCURVE",
"348 522 OFFCURVE",
"330 522 CURVE SMOOTH",
"263 522 OFFCURVE",
"236 562 OFFCURVE",
"167 562 CURVE SMOOTH",
"104 562 OFFCURVE",
"40 528 OFFCURVE",
"24 419 CURVE",
"30 403 LINE",
"134 403 OFFCURVE",
"212 388 OFFCURVE",
"285 359 CURVE",
"270 383 LINE",
"245 358 OFFCURVE",
"240 337 OFFCURVE",
"240 305 CURVE SMOOTH",
"240 197 LINE SMOOTH",
"240 176 OFFCURVE",
"242 161 OFFCURVE",
"250 137 CURVE",
"275 137 LINE",
"266 157 OFFCURVE",
"247 176 OFFCURVE",
"212 176 CURVE SMOOTH",
"162 176 OFFCURVE",
"122 138 OFFCURVE",
"122 85 CURVE SMOOTH",
"122 31 OFFCURVE",
"165 -8 OFFCURVE",
"221 -8 CURVE SMOOTH"
);
},
{
closed = 1;
nodes = (
"194 40 OFFCURVE",
"176 59 OFFCURVE",
"176 86 CURVE SMOOTH",
"176 113 OFFCURVE",
"194 132 OFFCURVE",
"220 132 CURVE SMOOTH",
"246 132 OFFCURVE",
"264 113 OFFCURVE",
"264 86 CURVE SMOOTH",
"264 59 OFFCURVE",
"246 40 OFFCURVE",
"220 40 CURVE SMOOTH"
);
}
);
width = 416;
}
);
note = uni0E23;
unicode = 0E23;
},
{
glyphname = "choChan-thai";
layers = (
{
anchors = (
{
name = bottom;
position = "{448, 0}";
},
{
name = top;
position = "{448, 510}";
}
);
layerId = "324B27C4-C4D5-407D-B181-631A50D9203C";
paths = (
{
closed = 1;
nodes = (
"407 -8 OFFCURVE",
"458 111 OFFCURVE",
"458 272 CURVE SMOOTH",
"458 349 LINE SMOOTH",
"458 389 OFFCURVE",
"461 406 OFFCURVE",
"476 420 CURVE",
"470 436 LINE",
"452 440 OFFCURVE",
"440 445 OFFCURVE",
"412 462 CURVE SMOOTH",
"298 531 LINE SMOOTH",
"261 554 OFFCURVE",
"239 562 OFFCURVE",
"215 562 CURVE SMOOTH",
"137 562 OFFCURVE",
"20 482 OFFCURVE",
"20 424 CURVE SMOOTH",
"20 410 OFFCURVE",
"27 397 OFFCURVE",
"45 388 CURVE",
"91 439 OFFCURVE",
"152 494 OFFCURVE",
"210 494 CURVE SMOOTH",
"233 494 OFFCURVE",
"248 485 OFFCURVE",
"277 467 CURVE SMOOTH",
"340 428 LINE SMOOTH",
"373 408 OFFCURVE",
"390 398 OFFCURVE",
"414 396 CURVE",
"400 417 LINE",
"380 398 OFFCURVE",
"376 377 OFFCURVE",
"376 345 CURVE SMOOTH",
"376 272 LINE SMOOTH",
"376 113 OFFCURVE",
"356 83 OFFCURVE",
"306 50 CURVE",
"344 50 LINE",
"344 244 OFFCURVE",
"315 417 OFFCURVE",
"195 417 CURVE SMOOTH",
"134 417 OFFCURVE",
"94 379 OFFCURVE",
"94 327 CURVE SMOOTH",
"94 274 OFFCURVE",
"135 237 OFFCURVE",
"188 237 CURVE SMOOTH",
"228 237 OFFCURVE",
"265 258 OFFCURVE",
"276 296 CURVE",
"245 278 LINE",
"270 240 OFFCURVE",
"279 119 OFFCURVE",
"279 -2 CURVE",
"299 -2 OFFCURVE",
"310 -8 OFFCURVE",
"330 -8 CURVE SMOOTH"
);
},
{
closed = 1;
nodes = (
"166 281 OFFCURVE",
"148 299 OFFCURVE",
"148 325 CURVE SMOOTH",
"148 351 OFFCURVE",
"166 369 OFFCURVE",
"192 369 CURVE SMOOTH",
"218 369 OFFCURVE",
"236 351 OFFCURVE",
"236 325 CURVE SMOOTH",
"236 299 OFFCURVE",
"218 281 OFFCURVE",
"192 281 CURVE SMOOTH"
);
}
);
width = 534;
}
);
note = uni0E08;
unicode = 0E08;
},
{
glyphname = "woWaen-thai";
layers = (
{
anchors = (
{
name = bottom;
position = "{381, 0}";
},
{
name = top;
position = "{391, 510}";
}
);
layerId = "324B27C4-C4D5-407D-B181-631A50D9203C";
paths = (
{
closed = 1;
nodes = (
"339 -8 OFFCURVE",
"381 34 OFFCURVE",
"381 92 CURVE SMOOTH",
"381 369 LINE SMOOTH",
"381 409 OFFCURVE",
"385 426 OFFCURVE",
"400 440 CURVE",
"394 456 LINE",
"377 459 OFFCURVE",
"360 467 OFFCURVE",
"338 480 CURVE SMOOTH",
"251 533 LINE SMOOTH",
"217 554 OFFCURVE",
"199 562 OFFCURVE",
"178 562 CURVE SMOOTH",
"120 562 OFFCURVE",
"20 499 OFFCURVE",
"20 444 CURVE SMOOTH",
"20 428 OFFCURVE",
"30 415 OFFCURVE",
"45 408 CURVE",
"104 475 OFFCURVE",
"134 494 OFFCURVE",
"174 494 CURVE SMOOTH",
"190 494 OFFCURVE",
"203 491 OFFCURVE",
"227 477 CURVE SMOOTH",
"291 438 LINE SMOOTH",
"307 428 OFFCURVE",
"326 422 OFFCURVE",
"344 421 CURVE",
"324 437 LINE",
"304 418 OFFCURVE",
"299 397 OFFCURVE",
"299 365 CURVE SMOOTH",
"299 197 LINE SMOOTH",
"299 176 OFFCURVE",
"301 161 OFFCURVE",
"309 137 CURVE",
"334 137 LINE",
"325 157 OFFCURVE",
"306 176 OFFCURVE",
"271 176 CURVE SMOOTH",
"221 176 OFFCURVE",
"181 138 OFFCURVE",
"181 85 CURVE SMOOTH",
"181 31 OFFCURVE",
"224 -8 OFFCURVE",
"280 -8 CURVE SMOOTH"
);
},
{
closed = 1;
nodes = (
"253 40 OFFCURVE",
"235 59 OFFCURVE",
"235 86 CURVE SMOOTH",
"235 113 OFFCURVE",
"253 132 OFFCURVE",
"279 132 CURVE SMOOTH",
"305 132 OFFCURVE",
"323 113 OFFCURVE",
"323 86 CURVE SMOOTH",
"323 59 OFFCURVE",
"305 40 OFFCURVE",
"279 40 CURVE SMOOTH"
);
}
);
width = 466;
}
);
note = uni0E27;
rightMetricsKey = "koKai-thai";
unicode = 0E27;
},
{
glyphname = "ngoNgu-thai";
lastChange = "2018-03-12 19:44:16 +0000";
layers = (
{
anchors = (
{
name = bottom;
position = "{388, 0}";
},
{
name = top;
position = "{388, 510}";
}
);
layerId = "324B27C4-C4D5-407D-B181-631A50D9203C";
paths = (
{
closed = 1;
nodes = (
"379 -8 OFFCURVE",
"388 67 OFFCURVE",
"388 162 CURVE SMOOTH",
"388 458 LINE SMOOTH",
"388 516 OFFCURVE",
"346 558 OFFCURVE",
"287 558 CURVE SMOOTH",
"231 558 OFFCURVE",
"188 519 OFFCURVE",
"188 465 CURVE SMOOTH",
"188 412 OFFCURVE",
"228 374 OFFCURVE",
"278 374 CURVE SMOOTH",
"313 374 OFFCURVE",
"332 393 OFFCURVE",
"341 413 CURVE",
"316 413 LINE",
"308 389 OFFCURVE",
"306 374 OFFCURVE",
"306 353 CURVE SMOOTH",
"306 180 LINE SMOOTH",
"306 130 OFFCURVE",
"304 74 OFFCURVE",
"280 26 CURVE",
"308 26 LINE",
"225 236 OFFCURVE",
"119 438 OFFCURVE",
"50 524 CURVE SMOOTH",
"31 547 OFFCURVE",
"22 553 OFFCURVE",
"9 553 CURVE SMOOTH",
"-8 553 OFFCURVE",
"-29 542 OFFCURVE",
"-35 521 CURVE",
"58 408 OFFCURVE",
"190 133 OFFCURVE",
"242 1 CURVE",
"263 1 OFFCURVE",
"274 -8 OFFCURVE",
"301 -8 CURVE SMOOTH"
);
},
{
closed = 1;
nodes = (
"260 418 OFFCURVE",
"242 437 OFFCURVE",
"242 464 CURVE SMOOTH",
"242 491 OFFCURVE",
"260 510 OFFCURVE",
"286 510 CURVE SMOOTH",
"312 510 OFFCURVE",
"330 491 OFFCURVE",
"330 464 CURVE SMOOTH",
"330 437 OFFCURVE",
"312 418 OFFCURVE",
"286 418 CURVE SMOOTH"
);
}
);
width = 470;
}
);
note = uni0E07;
rightMetricsKey = "ngoNgu-thai";
unicode = 0E07;
},
{
glyphname = "thoThan-thai";
layers = (
{
anchors = (
{
name = bottom;
position = "{472, -257}";
},
{
name = top;
position = "{448, 510}";
}
);
layerId = "324B27C4-C4D5-407D-B181-631A50D9203C";
paths = (
{
closed = 1;
nodes = (
"407 -8 OFFCURVE",
"458 111 OFFCURVE",
"458 272 CURVE SMOOTH",
"458 349 LINE SMOOTH",
"458 389 OFFCURVE",
"461 406 OFFCURVE",
"476 420 CURVE",
"470 436 LINE",
"452 440 OFFCURVE",
"440 445 OFFCURVE",
"412 462 CURVE SMOOTH",
"298 531 LINE SMOOTH",
"261 554 OFFCURVE",
"239 562 OFFCURVE",
"215 562 CURVE SMOOTH",
"137 562 OFFCURVE",
"20 482 OFFCURVE",
"20 424 CURVE SMOOTH",
"20 410 OFFCURVE",
"27 397 OFFCURVE",
"45 388 CURVE",
"91 439 OFFCURVE",
"152 494 OFFCURVE",
"210 494 CURVE SMOOTH",
"233 494 OFFCURVE",
"248 485 OFFCURVE",
"277 467 CURVE SMOOTH",
"340 428 LINE SMOOTH",
"373 408 OFFCURVE",
"390 398 OFFCURVE",
"414 396 CURVE",
"400 417 LINE",
"380 398 OFFCURVE",
"376 377 OFFCURVE",
"376 345 CURVE SMOOTH",
"376 272 LINE SMOOTH",
"376 113 OFFCURVE",
"356 83 OFFCURVE",
"306 50 CURVE",
"344 50 LINE",
"344 244 OFFCURVE",
"315 417 OFFCURVE",
"195 417 CURVE SMOOTH",
"134 417 OFFCURVE",
"94 379 OFFCURVE",
"94 327 CURVE SMOOTH",
"94 274 OFFCURVE",
"135 237 OFFCURVE",
"188 237 CURVE SMOOTH",
"228 237 OFFCURVE",
"265 258 OFFCURVE",
"276 296 CURVE",
"245 278 LINE",
"270 240 OFFCURVE",
"279 119 OFFCURVE",
"279 -2 CURVE",
"299 -2 OFFCURVE",
"310 -8 OFFCURVE",
"330 -8 CURVE SMOOTH"
);
},
{
closed = 1;
nodes = (
"296 -250 LINE",
"287 -184 OFFCURVE",
"305 -156 OFFCURVE",
"332 -156 CURVE SMOOTH",
"363 -156 OFFCURVE",
"395 -186 OFFCURVE",
"414 -250 CURVE",
"456 -250 OFFCURVE",
"476 -224 OFFCURVE",
"476 -178 CURVE SMOOTH",
"476 -48 LINE",
"467 -46 OFFCURVE",
"458 -45 OFFCURVE",
"452 -45 CURVE SMOOTH",
"421 -45 OFFCURVE",
"404 -67 OFFCURVE",
"404 -98 CURVE SMOOTH",
"404 -189 LINE",
"426 -189 LINE",
"387 -108 OFFCURVE",
"347 -100 OFFCURVE",
"317 -100 CURVE SMOOTH",
"263 -100 OFFCURVE",
"243 -146 OFFCURVE",
"271 -219 CURVE",
"286 -219 LINE",
"248 -130 OFFCURVE",
"189 -76 OFFCURVE",
"129 -76 CURVE SMOOTH",
"79 -76 OFFCURVE",
"44 -110 OFFCURVE",
"44 -158 CURVE SMOOTH",
"44 -206 OFFCURVE",
"79 -236 OFFCURVE",
"131 -236 CURVE SMOOTH",
"194 -236 OFFCURVE",
"233 -192 OFFCURVE",
"244 -102 CURVE SMOOTH",
"247 -78 OFFCURVE",
"243 -41 OFFCURVE",
"206 -40 CURVE",
"190 -162 OFFCURVE",
"170 -192 OFFCURVE",
"138 -192 CURVE SMOOTH",
"117 -192 OFFCURVE",
"104 -179 OFFCURVE",
"104 -158 CURVE SMOOTH",
"104 -136 OFFCURVE",
"118 -124 OFFCURVE",
"139 -124 CURVE SMOOTH",
"172 -124 OFFCURVE",
"217 -154 OFFCURVE",
"272 -250 CURVE"
);
},
{
closed = 1;
nodes = (
"166 281 OFFCURVE",
"148 299 OFFCURVE",
"148 325 CURVE SMOOTH",
"148 351 OFFCURVE",
"166 369 OFFCURVE",
"192 369 CURVE SMOOTH",
"218 369 OFFCURVE",
"236 351 OFFCURVE",
"236 325 CURVE SMOOTH",
"236 299 OFFCURVE",
"218 281 OFFCURVE",
"192 281 CURVE SMOOTH"
);
},
{
closed = 1;
nodes = (
"495 515 OFFCURVE",
"532 539 OFFCURVE",
"532 588 CURVE SMOOTH",
"532 609 OFFCURVE",
"521 619 OFFCURVE",
"513 624 CURVE",
"493 600 OFFCURVE",
"452 570 OFFCURVE",
"307 519 CURVE",
"348 468 LINE"
);
}
);
width = 540;
}
);
note = uni0E10;
unicode = 0E10;
},
{
glyphname = "thoThan-thai.less";
layers = (
{
anchors = (
{
name = bottom;
position = "{438, 0}";
},
{
name = top;
position = "{448, 510}";
}
);
layerId = "324B27C4-C4D5-407D-B181-631A50D9203C";
paths = (
{
closed = 1;
nodes = (
"407 -8 OFFCURVE",
"458 111 OFFCURVE",
"458 272 CURVE SMOOTH",
"458 349 LINE SMOOTH",
"458 389 OFFCURVE",
"461 406 OFFCURVE",
"476 420 CURVE",
"470 436 LINE",
"452 440 OFFCURVE",
"440 445 OFFCURVE",
"412 462 CURVE SMOOTH",
"298 531 LINE SMOOTH",
"261 554 OFFCURVE",
"239 562 OFFCURVE",
"215 562 CURVE SMOOTH",
"137 562 OFFCURVE",
"20 482 OFFCURVE",
"20 424 CURVE SMOOTH",
"20 410 OFFCURVE",
"27 397 OFFCURVE",
"45 388 CURVE",
"91 439 OFFCURVE",
"152 494 OFFCURVE",
"210 494 CURVE SMOOTH",
"233 494 OFFCURVE",
"248 485 OFFCURVE",
"277 467 CURVE SMOOTH",
"340 428 LINE SMOOTH",
"373 408 OFFCURVE",
"390 398 OFFCURVE",
"414 396 CURVE",
"400 417 LINE",
"380 398 OFFCURVE",
"376 377 OFFCURVE",
"376 345 CURVE SMOOTH",
"376 272 LINE SMOOTH",
"376 113 OFFCURVE",
"356 83 OFFCURVE",
"306 50 CURVE",
"344 50 LINE",
"344 244 OFFCURVE",
"315 417 OFFCURVE",
"195 417 CURVE SMOOTH",
"134 417 OFFCURVE",
"94 379 OFFCURVE",
"94 327 CURVE SMOOTH",
"94 274 OFFCURVE",
"135 237 OFFCURVE",
"188 237 CURVE SMOOTH",
"228 237 OFFCURVE",
"265 258 OFFCURVE",
"276 296 CURVE",
"245 278 LINE",
"270 240 OFFCURVE",
"279 119 OFFCURVE",
"279 -2 CURVE",
"299 -2 OFFCURVE",
"310 -8 OFFCURVE",
"330 -8 CURVE SMOOTH"
);
},
{
closed = 1;
nodes = (
"166 281 OFFCURVE",
"148 299 OFFCURVE",
"148 325 CURVE SMOOTH",
"148 351 OFFCURVE",
"166 369 OFFCURVE",
"192 369 CURVE SMOOTH",
"218 369 OFFCURVE",
"236 351 OFFCURVE",
"236 325 CURVE SMOOTH",
"236 299 OFFCURVE",
"218 281 OFFCURVE",
"192 281 CURVE SMOOTH"
);
},
{
closed = 1;
nodes = (
"495 515 OFFCURVE",
"532 539 OFFCURVE",
"532 588 CURVE SMOOTH",
"532 609 OFFCURVE",
"521 619 OFFCURVE",
"513 624 CURVE",
"493 600 OFFCURVE",
"452 570 OFFCURVE",
"307 519 CURVE",
"348 468 LINE"
);
}
);
width = 540;
}
);
note = "thoThan-thai.less";
},
{
glyphname = "choChing-thai";
layers = (
{
anchors = (
{
name = bottom;
position = "{474, 0}";
},
{
name = top;
position = "{464, 510}";
}
);
layerId = "324B27C4-C4D5-407D-B181-631A50D9203C";
paths = (
{
closed = 1;
nodes = (
"199 -6 OFFCURVE",
"231 16 OFFCURVE",
"320 85 CURVE SMOOTH",
"404 150 OFFCURVE",
"431 168 OFFCURVE",
"458 168 CURVE",
"471 191 OFFCURVE",
"474 210 OFFCURVE",
"474 240 CURVE SMOOTH",
"474 349 LINE SMOOTH",
"474 389 OFFCURVE",
"477 406 OFFCURVE",
"492 420 CURVE",
"486 436 LINE",
"468 440 OFFCURVE",
"456 445 OFFCURVE",
"428 462 CURVE SMOOTH",
"314 531 LINE SMOOTH",
"277 554 OFFCURVE",
"255 562 OFFCURVE",
"231 562 CURVE SMOOTH",
"153 562 OFFCURVE",
"36 482 OFFCURVE",
"36 424 CURVE SMOOTH",
"36 410 OFFCURVE",
"43 397 OFFCURVE",
"61 388 CURVE",
"107 439 OFFCURVE",
"168 494 OFFCURVE",
"226 494 CURVE SMOOTH",
"249 494 OFFCURVE",
"264 485 OFFCURVE",
"293 467 CURVE SMOOTH",
"356 428 LINE SMOOTH",
"389 408 OFFCURVE",
"406 398 OFFCURVE",
"430 396 CURVE",
"416 417 LINE",
"396 398 OFFCURVE",
"392 377 OFFCURVE",
"392 345 CURVE SMOOTH",
"392 182 LINE",
"416 198 LINE",
"372 198 OFFCURVE",
"353 185 OFFCURVE",
"284 133 CURVE SMOOTH",
"225 89 OFFCURVE",
"199 52 OFFCURVE",
"164 42 CURVE",
"209 43 LINE",
"214 59 OFFCURVE",
"214 75 OFFCURVE",
"214 91 CURVE SMOOTH",
"214 179 OFFCURVE",
"221 199 OFFCURVE",
"235 228 CURVE SMOOTH",
"249 257 OFFCURVE",
"256 272 OFFCURVE",
"256 297 CURVE SMOOTH",
"256 359 OFFCURVE",
"215 396 OFFCURVE",
"158 396 CURVE SMOOTH",
"99 396 OFFCURVE",
"56 356 OFFCURVE",
"56 301 CURVE SMOOTH",
"56 250 OFFCURVE",
"93 212 OFFCURVE",
"148 212 CURVE SMOOTH",
"168 212 OFFCURVE",
"184 217 OFFCURVE",
"197 227 CURVE",
"148 227 LINE",
"135 204 OFFCURVE",
"132 184 OFFCURVE",
"132 102 CURVE SMOOTH",
"132 69 OFFCURVE",
"125 44 OFFCURVE",
"100 16 CURVE",
"106 -2 LINE",
"127 -2 OFFCURVE",
"137 -6 OFFCURVE",
"156 -6 CURVE SMOOTH"
);
},
{
closed = 1;
nodes = (
"128 256 OFFCURVE",
"110 275 OFFCURVE",
"110 302 CURVE SMOOTH",
"110 329 OFFCURVE",
"128 348 OFFCURVE",
"154 348 CURVE SMOOTH",
"180 348 OFFCURVE",
"198 329 OFFCURVE",
"198 302 CURVE SMOOTH",
"198 275 OFFCURVE",
"180 256 OFFCURVE",
"154 256 CURVE SMOOTH"
);
},
{
closed = 1;
nodes = (
"489 -8 OFFCURVE",
"534 34 OFFCURVE",
"534 92 CURVE SMOOTH",
"534 150 OFFCURVE",
"489 192 OFFCURVE",
"426 192 CURVE SMOOTH",
"363 192 OFFCURVE",
"318 150 OFFCURVE",
"318 92 CURVE SMOOTH",
"318 34 OFFCURVE",
"363 -8 OFFCURVE",
"426 -8 CURVE SMOOTH"
);
},
{
closed = 1;
nodes = (
"397 40 OFFCURVE",
"376 62 OFFCURVE",
"376 92 CURVE SMOOTH",
"376 122 OFFCURVE",
"397 144 OFFCURVE",
"426 144 CURVE SMOOTH",
"455 144 OFFCURVE",
"476 122 OFFCURVE",
"476 92 CURVE SMOOTH",
"476 62 OFFCURVE",
"455 40 OFFCURVE",
"426 40 CURVE SMOOTH"
);
}
);
width = 570;
}
);
note = uni0E09;
unicode = 0E09;
},
{
glyphname = "loLing-thai";
lastChange = "2018-03-12 19:44:16 +0000";
layers = (
{
anchors = (
{
name = bottom;
position = "{474, 0}";
},
{
name = top;
position = "{464, 510}";
}
);
layerId = "324B27C4-C4D5-407D-B181-631A50D9203C";
paths = (
{
closed = 1;
nodes = (
"226 -8 OFFCURVE",
"268 32 OFFCURVE",
"268 87 CURVE SMOOTH",
"268 138 OFFCURVE",
"231 176 OFFCURVE",
"176 176 CURVE SMOOTH",
"156 176 OFFCURVE",
"131 166 OFFCURVE",
"118 146 CURVE",
"145 146 LINE",
"145 226 OFFCURVE",
"186 375 OFFCURVE",
"213 375 CURVE SMOOTH",
"252 375 OFFCURVE",
"359 89 OFFCURVE",
"391 -8 CURVE",
"450 -8 OFFCURVE",
"474 19 OFFCURVE",
"474 64 CURVE SMOOTH",
"474 349 LINE SMOOTH",
"474 389 OFFCURVE",
"477 406 OFFCURVE",
"492 420 CURVE",
"486 436 LINE",
"468 440 OFFCURVE",
"456 445 OFFCURVE",
"428 462 CURVE SMOOTH",
"314 531 LINE SMOOTH",
"278 553 OFFCURVE",
"257 562 OFFCURVE",
"231 562 CURVE SMOOTH",
"153 562 OFFCURVE",
"36 482 OFFCURVE",
"36 424 CURVE SMOOTH",
"36 410 OFFCURVE",
"43 397 OFFCURVE",
"61 388 CURVE",
"107 439 OFFCURVE",
"168 494 OFFCURVE",
"226 494 CURVE SMOOTH",
"249 494 OFFCURVE",
"264 485 OFFCURVE",
"293 467 CURVE SMOOTH",
"356 428 LINE SMOOTH",
"392 406 OFFCURVE",
"408 398 OFFCURVE",
"430 396 CURVE",
"416 417 LINE",
"396 398 OFFCURVE",
"392 377 OFFCURVE",
"392 345 CURVE SMOOTH",
"392 99 LINE",
"422 99 LINE",
"382 221 OFFCURVE",
"295 443 OFFCURVE",
"210 443 CURVE SMOOTH",
"117 443 OFFCURVE",
"68 200 OFFCURVE",
"68 101 CURVE SMOOTH",
"68 24 OFFCURVE",
"109 -8 OFFCURVE",
"164 -8 CURVE SMOOTH"
);
},
{
closed = 1;
nodes = (
"144 40 OFFCURVE",
"126 59 OFFCURVE",
"126 86 CURVE SMOOTH",
"126 113 OFFCURVE",
"144 132 OFFCURVE",
"170 132 CURVE SMOOTH",
"196 132 OFFCURVE",
"214 113 OFFCURVE",
"214 86 CURVE SMOOTH",
"214 59 OFFCURVE",
"196 40 OFFCURVE",
"170 40 CURVE SMOOTH"
);
}
);
width = 558;
}
);
note = uni0E25;
rightMetricsKey = "koKai-thai";
unicode = 0E25;
},
{
glyphname = "soSua-thai";
layers = (
{
anchors = (
{
name = bottom;
position = "{474, 0}";
},
{
name = top;
position = "{464, 510}";
}
);
layerId = "324B27C4-C4D5-407D-B181-631A50D9203C";
paths = (
{
closed = 1;
nodes = (
"226 -8 OFFCURVE",
"268 32 OFFCURVE",
"268 87 CURVE SMOOTH",
"268 138 OFFCURVE",
"231 176 OFFCURVE",
"176 176 CURVE SMOOTH",
"156 176 OFFCURVE",
"131 166 OFFCURVE",
"118 146 CURVE",
"145 146 LINE",
"145 226 OFFCURVE",
"186 375 OFFCURVE",
"213 375 CURVE SMOOTH",
"252 375 OFFCURVE",
"359 89 OFFCURVE",
"391 -8 CURVE",
"450 -8 OFFCURVE",
"474 19 OFFCURVE",
"474 64 CURVE SMOOTH",
"474 349 LINE SMOOTH",
"474 389 OFFCURVE",
"477 406 OFFCURVE",
"492 420 CURVE",
"486 436 LINE",
"468 440 OFFCURVE",
"456 445 OFFCURVE",
"428 462 CURVE SMOOTH",
"314 531 LINE SMOOTH",
"278 553 OFFCURVE",
"257 562 OFFCURVE",
"231 562 CURVE SMOOTH",
"153 562 OFFCURVE",
"36 482 OFFCURVE",
"36 424 CURVE SMOOTH",
"36 410 OFFCURVE",
"43 397 OFFCURVE",
"61 388 CURVE",
"107 439 OFFCURVE",
"168 494 OFFCURVE",
"226 494 CURVE SMOOTH",
"249 494 OFFCURVE",
"264 485 OFFCURVE",
"293 467 CURVE SMOOTH",
"356 428 LINE SMOOTH",
"392 406 OFFCURVE",
"408 398 OFFCURVE",
"430 396 CURVE",
"416 417 LINE",
"396 398 OFFCURVE",
"392 377 OFFCURVE",
"392 345 CURVE SMOOTH",
"392 99 LINE",
"422 99 LINE",
"382 221 OFFCURVE",
"295 443 OFFCURVE",
"210 443 CURVE SMOOTH",
"117 443 OFFCURVE",
"68 200 OFFCURVE",
"68 101 CURVE SMOOTH",
"68 24 OFFCURVE",
"109 -8 OFFCURVE",
"164 -8 CURVE SMOOTH"
);
},
{
closed = 1;
nodes = (
"144 40 OFFCURVE",
"126 59 OFFCURVE",
"126 86 CURVE SMOOTH",
"126 113 OFFCURVE",
"144 132 OFFCURVE",
"170 132 CURVE SMOOTH",
"196 132 OFFCURVE",
"214 113 OFFCURVE",
"214 86 CURVE SMOOTH",
"214 59 OFFCURVE",
"196 40 OFFCURVE",
"170 40 CURVE SMOOTH"
);
},
{
closed = 1;
nodes = (
"508 514 OFFCURVE",
"548 539 OFFCURVE",
"548 586 CURVE SMOOTH",
"548 610 OFFCURVE",
"537 619 OFFCURVE",
"529 624 CURVE",
"509 600 OFFCURVE",
"456 561 OFFCURVE",
"303 516 CURVE",
"362 470 LINE"
);
}
);
width = 564;
}
);
leftMetricsKey = "loLing-thai";
note = uni0E2A;
unicode = 0E2A;
},
{
glyphname = "boBaimai-thai";
layers = (
{
anchors = (
{
name = bottom;
position = "{466, 0}";
},
{
name = top;
position = "{476, 510}";
}
);
layerId = "324B27C4-C4D5-407D-B181-631A50D9203C";
paths = (
{
closed = 1;
nodes = (
"400 -12 OFFCURVE",
"476 46 OFFCURVE",
"476 160 CURVE SMOOTH",
"476 550 LINE",
"466 553 OFFCURVE",
"456 554 OFFCURVE",
"449 554 CURVE SMOOTH",
"413 554 OFFCURVE",
"394 529 OFFCURVE",
"394 493 CURVE SMOOTH",
"394 160 LINE SMOOTH",
"394 92 OFFCURVE",
"354 54 OFFCURVE",
"272 54 CURVE SMOOTH",
"226 54 OFFCURVE",
"194 66 OFFCURVE",
"148 66 CURVE",
"155 26 LINE",
"180 68 OFFCURVE",
"182 130 OFFCURVE",
"182 180 CURVE SMOOTH",
"182 283 LINE SMOOTH",
"182 339 OFFCURVE",
"189 359 OFFCURVE",
"203 388 CURVE SMOOTH",
"218 419 OFFCURVE",
"224 433 OFFCURVE",
"224 457 CURVE SMOOTH",
"224 519 OFFCURVE",
"183 556 OFFCURVE",
"126 556 CURVE SMOOTH",
"67 556 OFFCURVE",
"24 516 OFFCURVE",
"24 461 CURVE SMOOTH",
"24 410 OFFCURVE",
"61 372 OFFCURVE",
"116 372 CURVE SMOOTH",
"136 372 OFFCURVE",
"152 377 OFFCURVE",
"165 387 CURVE",
"116 387 LINE",
"103 364 OFFCURVE",
"100 345 OFFCURVE",
"100 315 CURVE SMOOTH",
"100 180 LINE SMOOTH",
"100 100 OFFCURVE",
"93 66 OFFCURVE",
"68 28 CURVE",
"74 10 LINE",
"142 10 OFFCURVE",
"191 -12 OFFCURVE",
"271 -12 CURVE SMOOTH"
);
},
{
closed = 1;
nodes = (
"96 416 OFFCURVE",
"78 435 OFFCURVE",
"78 462 CURVE SMOOTH",
"78 489 OFFCURVE",
"96 508 OFFCURVE",
"122 508 CURVE SMOOTH",
"148 508 OFFCURVE",
"166 489 OFFCURVE",
"166 462 CURVE SMOOTH",
"166 435 OFFCURVE",
"148 416 OFFCURVE",
"122 416 CURVE SMOOTH"
);
}
);
width = 554;
}
);
note = uni0E1A;
unicode = 0E1A;
},
{
glyphname = "poPla-thai";
layers = (
{
anchors = (
{
name = bottom;
position = "{466, 0}";
},
{
name = top;
position = "{346, 510}";
}
);
layerId = "324B27C4-C4D5-407D-B181-631A50D9203C";
paths = (
{
closed = 1;
nodes = (
"400 -12 OFFCURVE",
"476 46 OFFCURVE",
"476 160 CURVE SMOOTH",
"476 752 LINE",
"466 755 OFFCURVE",
"456 756 OFFCURVE",
"449 756 CURVE SMOOTH",
"413 756 OFFCURVE",
"394 731 OFFCURVE",
"394 695 CURVE SMOOTH",
"394 160 LINE SMOOTH",
"394 92 OFFCURVE",
"354 54 OFFCURVE",
"272 54 CURVE SMOOTH",
"226 54 OFFCURVE",
"194 66 OFFCURVE",
"148 66 CURVE",
"155 26 LINE",
"180 68 OFFCURVE",
"182 130 OFFCURVE",
"182 180 CURVE SMOOTH",
"182 283 LINE SMOOTH",
"182 339 OFFCURVE",
"189 359 OFFCURVE",
"203 388 CURVE SMOOTH",
"218 419 OFFCURVE",
"224 433 OFFCURVE",
"224 457 CURVE SMOOTH",
"224 519 OFFCURVE",
"183 556 OFFCURVE",
"126 556 CURVE SMOOTH",
"67 556 OFFCURVE",
"24 516 OFFCURVE",
"24 461 CURVE SMOOTH",
"24 410 OFFCURVE",
"61 372 OFFCURVE",
"116 372 CURVE SMOOTH",
"136 372 OFFCURVE",
"152 377 OFFCURVE",
"165 387 CURVE",
"116 387 LINE",
"103 364 OFFCURVE",
"100 345 OFFCURVE",
"100 315 CURVE SMOOTH",
"100 180 LINE SMOOTH",
"100 100 OFFCURVE",
"93 66 OFFCURVE",
"68 28 CURVE",
"74 10 LINE",
"142 10 OFFCURVE",
"191 -12 OFFCURVE",
"271 -12 CURVE SMOOTH"
);
},
{
closed = 1;
nodes = (
"96 416 OFFCURVE",
"78 435 OFFCURVE",
"78 462 CURVE SMOOTH",
"78 489 OFFCURVE",
"96 508 OFFCURVE",
"122 508 CURVE SMOOTH",
"148 508 OFFCURVE",
"166 489 OFFCURVE",
"166 462 CURVE SMOOTH",
"166 435 OFFCURVE",
"148 416 OFFCURVE",
"122 416 CURVE SMOOTH"
);
}
);
width = 554;
}
);
leftMetricsKey = "boBaimai-thai";
note = uni0E1B;
rightMetricsKey = "boBaimai-thai";
unicode = 0E1B;
},
{
glyphname = "soRusi-thai";
layers = (
{
anchors = (
{
name = bottom;
position = "{486, 0}";
},
{
name = top;
position = "{486, 510}";
}
);
layerId = "324B27C4-C4D5-407D-B181-631A50D9203C";
paths = (
{
closed = 1;
nodes = (
"409 -12 OFFCURVE",
"486 46 OFFCURVE",
"486 160 CURVE SMOOTH",
"486 550 LINE",
"476 553 OFFCURVE",
"466 554 OFFCURVE",
"459 554 CURVE SMOOTH",
"423 554 OFFCURVE",
"404 529 OFFCURVE",
"404 493 CURVE SMOOTH",
"404 160 LINE SMOOTH",
"404 92 OFFCURVE",
"363 54 OFFCURVE",
"274 54 CURVE SMOOTH",
"223 54 OFFCURVE",
"195 66 OFFCURVE",
"148 66 CURVE",
"148 32 LINE",
"176 74 OFFCURVE",
"182 130 OFFCURVE",
"182 180 CURVE SMOOTH",
"182 283 LINE SMOOTH",
"182 339 OFFCURVE",
"189 359 OFFCURVE",
"203 388 CURVE SMOOTH",
"218 419 OFFCURVE",
"224 433 OFFCURVE",
"224 457 CURVE SMOOTH",
"224 519 OFFCURVE",
"183 556 OFFCURVE",
"126 556 CURVE SMOOTH",
"67 556 OFFCURVE",
"24 516 OFFCURVE",
"24 461 CURVE SMOOTH",
"24 410 OFFCURVE",
"61 372 OFFCURVE",
"116 372 CURVE SMOOTH",
"136 372 OFFCURVE",
"152 377 OFFCURVE",
"165 387 CURVE",
"116 387 LINE",
"103 364 OFFCURVE",
"100 345 OFFCURVE",
"100 315 CURVE SMOOTH",
"100 180 LINE SMOOTH",
"100 100 OFFCURVE",
"93 66 OFFCURVE",
"68 28 CURVE",
"74 10 LINE",
"143 10 OFFCURVE",
"189 -12 OFFCURVE",
"273 -12 CURVE SMOOTH"
);
},
{
closed = 1;
nodes = (
"96 416 OFFCURVE",
"78 435 OFFCURVE",
"78 462 CURVE SMOOTH",
"78 489 OFFCURVE",
"96 508 OFFCURVE",
"122 508 CURVE SMOOTH",
"148 508 OFFCURVE",
"166 489 OFFCURVE",
"166 462 CURVE SMOOTH",
"166 435 OFFCURVE",
"148 416 OFFCURVE",
"122 416 CURVE SMOOTH"
);
},
{
closed = 1;
nodes = (
"451 198 OFFCURVE",
"584 271 OFFCURVE",
"584 387 CURVE SMOOTH",
"584 427 OFFCURVE",
"570 446 OFFCURVE",
"543 446 CURVE SMOOTH",
"534 446 OFFCURVE",
"526 444 OFFCURVE",
"518 441 CURVE",
"518 331 OFFCURVE",
"469 270 OFFCURVE",
"351 258 CURVE",
"351 242 LINE",
"371 253 OFFCURVE",
"378 267 OFFCURVE",
"378 291 CURVE SMOOTH",
"378 331 OFFCURVE",
"343 364 OFFCURVE",
"295 364 CURVE SMOOTH",
"245 364 OFFCURVE",
"208 330 OFFCURVE",
"208 282 CURVE SMOOTH",
"208 231 OFFCURVE",
"251 198 OFFCURVE",
"333 198 CURVE SMOOTH"
);
},
{
closed = 1;
nodes = (
"276 248 OFFCURVE",
"262 262 OFFCURVE",
"262 282 CURVE SMOOTH",
"262 302 OFFCURVE",
"276 316 OFFCURVE",
"295 316 CURVE SMOOTH",
"314 316 OFFCURVE",
"328 302 OFFCURVE",
"328 282 CURVE SMOOTH",
"328 262 OFFCURVE",
"314 248 OFFCURVE",
"295 248 CURVE SMOOTH"
);
}
);
width = 588;
}
);
leftMetricsKey = "boBaimai-thai";
note = uni0E29;
unicode = 0E29;
},
{
glyphname = "yoYak-thai";
layers = (
{
anchors = (
{
name = bottom;
position = "{468, 0}";
},
{
name = top;
position = "{468, 510}";
}
);
layerId = "324B27C4-C4D5-407D-B181-631A50D9203C";
paths = (
{
closed = 1;
nodes = (
"309 -12 OFFCURVE",
"426 10 OFFCURVE",
"494 10 CURVE",
"500 28 LINE",
"475 66 OFFCURVE",
"468 100 OFFCURVE",
"468 180 CURVE SMOOTH",
"468 550 LINE",
"458 553 OFFCURVE",
"448 554 OFFCURVE",
"441 554 CURVE SMOOTH",
"405 554 OFFCURVE",
"386 529 OFFCURVE",
"386 493 CURVE SMOOTH",
"386 180 LINE SMOOTH",
"386 130 OFFCURVE",
"388 68 OFFCURVE",
"415 26 CURVE",
"423 66 LINE",
"365 66 OFFCURVE",
"291 54 OFFCURVE",
"244 54 CURVE SMOOTH",
"169 54 OFFCURVE",
"137 85 OFFCURVE",
"137 139 CURVE SMOOTH",
"137 202 OFFCURVE",
"179 232 OFFCURVE",
"230 247 CURVE SMOOTH",
"275 260 OFFCURVE",
"308 270 OFFCURVE",
"308 304 CURVE SMOOTH",
"308 319 OFFCURVE",
"302 329 OFFCURVE",
"291 338 CURVE",
"274 324 OFFCURVE",
"249 312 OFFCURVE",
"216 312 CURVE SMOOTH",
"150 312 OFFCURVE",
"129 359 OFFCURVE",
"127 405 CURVE",
"129 407 LINE",
"145 383 OFFCURVE",
"169 372 OFFCURVE",
"197 372 CURVE SMOOTH",
"250 372 OFFCURVE",
"285 411 OFFCURVE",
"285 461 CURVE SMOOTH",
"285 518 OFFCURVE",
"239 556 OFFCURVE",
"178 556 CURVE SMOOTH",
"104 556 OFFCURVE",
"47 501 OFFCURVE",
"47 410 CURVE SMOOTH",
"47 343 OFFCURVE",
"78 298 OFFCURVE",
"140 273 CURVE",
"140 269 LINE",
"87 245 OFFCURVE",
"53 198 OFFCURVE",
"53 129 CURVE SMOOTH",
"53 51 OFFCURVE",
"97 -12 OFFCURVE",
"230 -12 CURVE SMOOTH"
);
},
{
closed = 1;
nodes = (
"158 416 OFFCURVE",
"139 435 OFFCURVE",
"139 462 CURVE SMOOTH",
"139 489 OFFCURVE",
"158 508 OFFCURVE",
"185 508 CURVE SMOOTH",
"212 508 OFFCURVE",
"231 489 OFFCURVE",
"231 462 CURVE SMOOTH",
"231 435 OFFCURVE",
"212 416 OFFCURVE",
"185 416 CURVE SMOOTH"
);
}
);
width = 548;
}
);
note = uni0E22;
unicode = 0E22;
},
{
glyphname = "phoPhung-thai";
layers = (
{
anchors = (
{
name = bottom;
position = "{562, 0}";
},
{
name = top;
position = "{562, 510}";
}
);
layerId = "324B27C4-C4D5-407D-B181-631A50D9203C";
paths = (
{
closed = 1;
nodes = (
"545 -8 OFFCURVE",
"562 19 OFFCURVE",
"562 64 CURVE SMOOTH",
"562 550 LINE",
"552 553 OFFCURVE",
"542 554 OFFCURVE",
"535 554 CURVE SMOOTH",
"499 554 OFFCURVE",
"480 529 OFFCURVE",
"480 493 CURVE SMOOTH",
"480 38 LINE",
"518 44 LINE",
"329 324 LINE",
"305 324 LINE",
"128 63 LINE",
"172 53 LINE",
"152 110 OFFCURVE",
"148 185 OFFCURVE",
"148 261 CURVE SMOOTH",
"148 336 OFFCURVE",
"152 363 OFFCURVE",
"160 405 CURVE",
"164 407 LINE",
"185 383 OFFCURVE",
"209 372 OFFCURVE",
"238 372 CURVE SMOOTH",
"290 372 OFFCURVE",
"330 407 OFFCURVE",
"330 462 CURVE SMOOTH",
"330 522 OFFCURVE",
"283 556 OFFCURVE",
"220 556 CURVE SMOOTH",
"124 556 OFFCURVE",
"64 478 OFFCURVE",
"64 251 CURVE SMOOTH",
"64 82 OFFCURVE",
"97 -6 OFFCURVE",
"156 -6 CURVE SMOOTH",
"172 -6 LINE",
"329 233 LINE",
"305 233 LINE",
"458 -3 LINE",
"467 -6 OFFCURVE",
"477 -8 OFFCURVE",
"491 -8 CURVE SMOOTH"
);
},
{
closed = 1;
nodes = (
"206 416 OFFCURVE",
"188 435 OFFCURVE",
"188 462 CURVE SMOOTH",
"188 489 OFFCURVE",
"206 508 OFFCURVE",
"232 508 CURVE SMOOTH",
"258 508 OFFCURVE",
"276 489 OFFCURVE",
"276 462 CURVE SMOOTH",
"276 435 OFFCURVE",
"258 416 OFFCURVE",
"232 416 CURVE SMOOTH"
);
}
);
width = 646;
}
);
note = uni0E1C;
rightMetricsKey = "moMa-thai";
unicode = 0E1C;
},
{
glyphname = "foFa-thai";
layers = (
{
anchors = (
{
name = bottom;
position = "{562, 0}";
},
{
name = top;
position = "{432, 510}";
}
);
layerId = "324B27C4-C4D5-407D-B181-631A50D9203C";
paths = (
{
closed = 1;
nodes = (
"172 -8 LINE",
"329 233 LINE",
"305 233 LINE",
"458 -3 LINE",
"467 -6 OFFCURVE",
"477 -8 OFFCURVE",
"491 -8 CURVE SMOOTH",
"545 -8 OFFCURVE",
"562 19 OFFCURVE",
"562 64 CURVE SMOOTH",
"562 752 LINE",
"552 755 OFFCURVE",
"542 756 OFFCURVE",
"535 756 CURVE SMOOTH",
"499 756 OFFCURVE",
"480 731 OFFCURVE",
"480 695 CURVE SMOOTH",
"480 38 LINE",
"518 44 LINE",
"329 324 LINE",
"305 324 LINE",
"128 61 LINE",
"172 51 LINE",
"152 108 OFFCURVE",
"148 184 OFFCURVE",
"148 260 CURVE SMOOTH",
"148 336 OFFCURVE",
"152 363 OFFCURVE",
"160 405 CURVE",
"164 407 LINE",
"185 383 OFFCURVE",
"209 372 OFFCURVE",
"238 372 CURVE SMOOTH",
"290 372 OFFCURVE",
"330 407 OFFCURVE",
"330 462 CURVE SMOOTH",
"330 522 OFFCURVE",
"283 556 OFFCURVE",
"220 556 CURVE SMOOTH",
"124 556 OFFCURVE",
"64 479 OFFCURVE",
"64 250 CURVE SMOOTH",
"64 81 OFFCURVE",
"97 -8 OFFCURVE",
"156 -8 CURVE SMOOTH"
);
},
{
closed = 1;
nodes = (
"206 416 OFFCURVE",
"188 435 OFFCURVE",
"188 462 CURVE SMOOTH",
"188 489 OFFCURVE",
"206 508 OFFCURVE",
"232 508 CURVE SMOOTH",
"258 508 OFFCURVE",
"276 489 OFFCURVE",
"276 462 CURVE SMOOTH",
"276 435 OFFCURVE",
"258 416 OFFCURVE",
"232 416 CURVE SMOOTH"
);
}
);
width = 646;
}
);
leftMetricsKey = "phoPhung-thai";
note = uni0E1D;
rightMetricsKey = "moMa-thai";
unicode = 0E1D;
},
{
glyphname = "foFan-thai";
layers = (
{
anchors = (
{
name = bottom;
position = "{558, 0}";
},
{
name = top;
position = "{428, 510}";
}
);
layerId = "324B27C4-C4D5-407D-B181-631A50D9203C";
paths = (
{
closed = 1;
nodes = (
"191 -6 OFFCURVE",
"221 28 OFFCURVE",
"266 162 CURVE SMOOTH",
"349 410 LINE",
"309 410 LINE",
"450 -3 LINE",
"459 -6 OFFCURVE",
"469 -8 OFFCURVE",
"484 -8 CURVE SMOOTH",
"540 -8 OFFCURVE",
"558 19 OFFCURVE",
"558 64 CURVE SMOOTH",
"558 752 LINE",
"548 755 OFFCURVE",
"538 756 OFFCURVE",
"531 756 CURVE SMOOTH",
"495 756 OFFCURVE",
"476 731 OFFCURVE",
"476 695 CURVE SMOOTH",
"476 38 LINE",
"510 38 LINE",
"345 526 LINE",
"313 526 LINE",
"198 186 LINE SMOOTH",
"178 127 OFFCURVE",
"172 120 OFFCURVE",
"155 105 CURVE",
"155 70 LINE",
"180 112 OFFCURVE",
"182 154 OFFCURVE",
"182 204 CURVE SMOOTH",
"182 283 LINE SMOOTH",
"182 339 OFFCURVE",
"189 359 OFFCURVE",
"203 388 CURVE SMOOTH",
"218 419 OFFCURVE",
"224 433 OFFCURVE",
"224 457 CURVE SMOOTH",
"224 519 OFFCURVE",
"183 556 OFFCURVE",
"126 556 CURVE SMOOTH",
"67 556 OFFCURVE",
"24 516 OFFCURVE",
"24 461 CURVE SMOOTH",
"24 410 OFFCURVE",
"61 372 OFFCURVE",
"116 372 CURVE SMOOTH",
"136 372 OFFCURVE",
"152 377 OFFCURVE",
"165 387 CURVE",
"116 387 LINE",
"103 364 OFFCURVE",
"100 345 OFFCURVE",
"100 315 CURVE SMOOTH",
"100 170 LINE SMOOTH",
"100 90 OFFCURVE",
"93 56 OFFCURVE",
"68 18 CURVE",
"74 0 LINE",
"96 0 OFFCURVE",
"124 -6 OFFCURVE",
"144 -6 CURVE SMOOTH"
);
},
{
closed = 1;
nodes = (
"96 416 OFFCURVE",
"78 435 OFFCURVE",
"78 462 CURVE SMOOTH",
"78 489 OFFCURVE",
"96 508 OFFCURVE",
"122 508 CURVE SMOOTH",
"148 508 OFFCURVE",
"166 489 OFFCURVE",
"166 462 CURVE SMOOTH",
"166 435 OFFCURVE",
"148 416 OFFCURVE",
"122 416 CURVE SMOOTH"
);
}
);
width = 642;
}
);
leftMetricsKey = "boBaimai-thai";
note = uni0E1F;
rightMetricsKey = "moMa-thai";
unicode = 0E1F;
},
{
glyphname = "phoPhan-thai";
layers = (
{
anchors = (
{
name = bottom;
position = "{558, 0}";
},
{
name = top;
position = "{558, 510}";
}
);
layerId = "324B27C4-C4D5-407D-B181-631A50D9203C";
paths = (
{
closed = 1;
nodes = (
"191 -6 OFFCURVE",
"221 28 OFFCURVE",
"266 162 CURVE SMOOTH",
"349 410 LINE",
"309 410 LINE",
"450 -3 LINE",
"459 -6 OFFCURVE",
"469 -8 OFFCURVE",
"484 -8 CURVE SMOOTH",
"540 -8 OFFCURVE",
"558 19 OFFCURVE",
"558 64 CURVE SMOOTH",
"558 550 LINE",
"548 553 OFFCURVE",
"538 554 OFFCURVE",
"531 554 CURVE SMOOTH",
"495 554 OFFCURVE",
"476 529 OFFCURVE",
"476 493 CURVE SMOOTH",
"476 38 LINE",
"510 38 LINE",
"345 526 LINE",
"313 526 LINE",
"198 186 LINE SMOOTH",
"178 127 OFFCURVE",
"172 120 OFFCURVE",
"155 105 CURVE",
"155 70 LINE",
"180 112 OFFCURVE",
"182 154 OFFCURVE",
"182 204 CURVE SMOOTH",
"182 283 LINE SMOOTH",
"182 339 OFFCURVE",
"189 359 OFFCURVE",
"203 388 CURVE SMOOTH",
"218 419 OFFCURVE",
"224 433 OFFCURVE",
"224 457 CURVE SMOOTH",
"224 519 OFFCURVE",
"183 556 OFFCURVE",
"126 556 CURVE SMOOTH",
"67 556 OFFCURVE",
"24 516 OFFCURVE",
"24 461 CURVE SMOOTH",
"24 410 OFFCURVE",
"61 372 OFFCURVE",
"116 372 CURVE SMOOTH",
"136 372 OFFCURVE",
"152 377 OFFCURVE",
"165 387 CURVE",
"116 387 LINE",
"103 364 OFFCURVE",
"100 345 OFFCURVE",
"100 315 CURVE SMOOTH",
"100 170 LINE SMOOTH",
"100 90 OFFCURVE",
"93 56 OFFCURVE",
"68 18 CURVE",
"74 0 LINE",
"96 0 OFFCURVE",
"124 -6 OFFCURVE",
"144 -6 CURVE SMOOTH"
);
},
{
closed = 1;
nodes = (
"96 416 OFFCURVE",
"78 435 OFFCURVE",
"78 462 CURVE SMOOTH",
"78 489 OFFCURVE",
"96 508 OFFCURVE",
"122 508 CURVE SMOOTH",
"148 508 OFFCURVE",
"166 489 OFFCURVE",
"166 462 CURVE SMOOTH",
"166 435 OFFCURVE",
"148 416 OFFCURVE",
"122 416 CURVE SMOOTH"
);
}
);
width = 642;
}
);
leftMetricsKey = "boBaimai-thai";
note = uni0E1E;
rightMetricsKey = "moMa-thai";
unicode = 0E1E;
},
{
glyphname = "hoHip-thai";
layers = (
{
anchors = (
{
name = bottom;
position = "{486, 0}";
},
{
name = top;
position = "{486, 510}";
}
);
layerId = "324B27C4-C4D5-407D-B181-631A50D9203C";
paths = (
{
closed = 1;
nodes = (
"234 -6 OFFCURVE",
"273 68 OFFCURVE",
"305 162 CURVE SMOOTH",
"341 268 OFFCURVE",
"365 334 OFFCURVE",
"421 359 CURVE SMOOTH",
"479 385 OFFCURVE",
"516 401 OFFCURVE",
"516 457 CURVE SMOOTH",
"516 517 OFFCURVE",
"474 556 OFFCURVE",
"414 556 CURVE SMOOTH",
"355 556 OFFCURVE",
"312 517 OFFCURVE",
"312 462 CURVE SMOOTH",
"312 410 OFFCURVE",
"349 387 OFFCURVE",
"376 371 CURVE SMOOTH",
"400 357 OFFCURVE",
"418 343 OFFCURVE",
"418 297 CURVE SMOOTH",
"418 -4 LINE",
"428 -7 OFFCURVE",
"438 -8 OFFCURVE",
"445 -8 CURVE SMOOTH",
"481 -8 OFFCURVE",
"500 17 OFFCURVE",
"500 53 CURVE SMOOTH",
"500 297 LINE SMOOTH",
"500 370 OFFCURVE",
"473 393 OFFCURVE",
"426 406 CURVE SMOOTH",
"401 413 OFFCURVE",
"370 422 OFFCURVE",
"370 461 CURVE SMOOTH",
"370 490 OFFCURVE",
"388 508 OFFCURVE",
"414 508 CURVE SMOOTH",
"440 508 OFFCURVE",
"458 490 OFFCURVE",
"458 460 CURVE SMOOTH",
"458 415 OFFCURVE",
"417 407 OFFCURVE",
"388 402 CURVE SMOOTH",
"305 387 OFFCURVE",
"285 319 OFFCURVE",
"234 186 CURVE SMOOTH",
"212 128 OFFCURVE",
"198 95 OFFCURVE",
"155 55 CURVE",
"155 20 LINE",
"180 62 OFFCURVE",
"182 124 OFFCURVE",
"182 174 CURVE SMOOTH",
"182 283 LINE SMOOTH",
"182 339 OFFCURVE",
"189 359 OFFCURVE",
"203 388 CURVE SMOOTH",
"218 419 OFFCURVE",
"224 433 OFFCURVE",
"224 457 CURVE SMOOTH",
"224 519 OFFCURVE",
"183 556 OFFCURVE",
"126 556 CURVE SMOOTH",
"67 556 OFFCURVE",
"24 516 OFFCURVE",
"24 461 CURVE SMOOTH",
"24 410 OFFCURVE",
"61 372 OFFCURVE",
"116 372 CURVE SMOOTH",
"136 372 OFFCURVE",
"152 377 OFFCURVE",
"165 387 CURVE",
"116 387 LINE",
"103 364 OFFCURVE",
"100 345 OFFCURVE",
"100 315 CURVE SMOOTH",
"100 170 LINE SMOOTH",
"100 90 OFFCURVE",
"93 56 OFFCURVE",
"68 18 CURVE",
"74 0 LINE",
"105 0 OFFCURVE",
"133 -6 OFFCURVE",
"155 -6 CURVE SMOOTH"
);
},
{
closed = 1;
nodes = (
"96 416 OFFCURVE",
"78 435 OFFCURVE",
"78 462 CURVE SMOOTH",
"78 489 OFFCURVE",
"96 508 OFFCURVE",
"122 508 CURVE SMOOTH",
"148 508 OFFCURVE",
"166 489 OFFCURVE",
"166 462 CURVE SMOOTH",
"166 435 OFFCURVE",
"148 416 OFFCURVE",
"122 416 CURVE SMOOTH"
);
}
);
width = 578;
}
);
leftMetricsKey = "boBaimai-thai";
note = uni0E2B;
unicode = 0E2B;
},
{
glyphname = "loChula-thai";
layers = (
{
anchors = (
{
name = bottom;
position = "{548, 0}";
}
);
layerId = "324B27C4-C4D5-407D-B181-631A50D9203C";
paths = (
{
closed = 1;
nodes = (
"226 -6 OFFCURVE",
"248 49 OFFCURVE",
"274 126 CURVE SMOOTH",
"349 350 LINE",
"311 350 LINE",
"450 -3 LINE",
"459 -6 OFFCURVE",
"469 -8 OFFCURVE",
"484 -8 CURVE SMOOTH",
"540 -8 OFFCURVE",
"558 19 OFFCURVE",
"558 64 CURVE SMOOTH",
"558 591 LINE SMOOTH",
"558 676 OFFCURVE",
"501 730 OFFCURVE",
"413 730 CURVE SMOOTH",
"338 730 OFFCURVE",
"287 690 OFFCURVE",
"287 627 CURVE SMOOTH",
"287 567 OFFCURVE",
"333 534 OFFCURVE",
"398 534 CURVE SMOOTH",
"496 534 OFFCURVE",
"574 607 OFFCURVE",
"587 693 CURVE SMOOTH",
"594 739 OFFCURVE",
"580 770 OFFCURVE",
"538 766 CURVE",
"519 629 OFFCURVE",
"479 582 OFFCURVE",
"413 582 CURVE SMOOTH",
"376 582 OFFCURVE",
"359 597 OFFCURVE",
"359 629 CURVE SMOOTH",
"359 658 OFFCURVE",
"373 676 OFFCURVE",
"409 676 CURVE SMOOTH",
"449 676 OFFCURVE",
"476 654 OFFCURVE",
"476 615 CURVE SMOOTH",
"476 38 LINE",
"508 38 LINE",
"345 466 LINE",
"313 466 LINE",
"215 177 LINE SMOOTH",
"196 123 OFFCURVE",
"182 88 OFFCURVE",
"155 60 CURVE",
"155 25 LINE",
"180 67 OFFCURVE",
"182 109 OFFCURVE",
"182 159 CURVE SMOOTH",
"182 283 LINE SMOOTH",
"182 339 OFFCURVE",
"189 359 OFFCURVE",
"203 388 CURVE SMOOTH",
"218 419 OFFCURVE",
"224 433 OFFCURVE",
"224 457 CURVE SMOOTH",
"224 519 OFFCURVE",
"183 556 OFFCURVE",
"126 556 CURVE SMOOTH",
"67 556 OFFCURVE",
"24 516 OFFCURVE",
"24 461 CURVE SMOOTH",
"24 410 OFFCURVE",
"61 372 OFFCURVE",
"116 372 CURVE SMOOTH",
"136 372 OFFCURVE",
"152 377 OFFCURVE",
"165 387 CURVE",
"116 387 LINE",
"103 364 OFFCURVE",
"100 345 OFFCURVE",
"100 315 CURVE SMOOTH",
"100 170 LINE SMOOTH",
"100 90 OFFCURVE",
"93 56 OFFCURVE",
"68 18 CURVE",
"74 0 LINE",
"97 0 OFFCURVE",
"121 -6 OFFCURVE",
"147 -6 CURVE SMOOTH"
);
},
{
closed = 1;
nodes = (
"96 416 OFFCURVE",
"78 435 OFFCURVE",
"78 462 CURVE SMOOTH",
"78 489 OFFCURVE",
"96 508 OFFCURVE",
"122 508 CURVE SMOOTH",
"148 508 OFFCURVE",
"166 489 OFFCURVE",
"166 462 CURVE SMOOTH",
"166 435 OFFCURVE",
"148 416 OFFCURVE",
"122 416 CURVE SMOOTH"
);
}
);
width = 649;
}
);
leftMetricsKey = "boBaimai-thai";
note = uni0E2C;
unicode = 0E2C;
},
{
glyphname = "loChula-thai.short";
layers = (
{
anchors = (
{
name = bottom;
position = "{558, 0}";
},
{
name = top;
position = "{498, 510}";
}
);
layerId = "324B27C4-C4D5-407D-B181-631A50D9203C";
paths = (
{
closed = 1;
nodes = (
"197 -6 OFFCURVE",
"224 15 OFFCURVE",
"268 105 CURVE SMOOTH",
"334 240 LINE",
"324 240 LINE",
"450 -3 LINE",
"459 -6 OFFCURVE",
"469 -8 OFFCURVE",
"484 -8 CURVE SMOOTH",
"540 -8 OFFCURVE",
"558 19 OFFCURVE",
"558 64 CURVE SMOOTH",
"558 443 LINE SMOOTH",
"558 528 OFFCURVE",
"501 582 OFFCURVE",
"413 582 CURVE SMOOTH",
"338 582 OFFCURVE",
"287 542 OFFCURVE",
"287 479 CURVE SMOOTH",
"287 419 OFFCURVE",
"333 386 OFFCURVE",
"398 386 CURVE SMOOTH",
"495 386 OFFCURVE",
"574 458 OFFCURVE",
"587 545 CURVE SMOOTH",
"594 591 OFFCURVE",
"580 622 OFFCURVE",
"538 618 CURVE",
"519 481 OFFCURVE",
"479 434 OFFCURVE",
"413 434 CURVE SMOOTH",
"376 434 OFFCURVE",
"359 449 OFFCURVE",
"359 481 CURVE SMOOTH",
"359 510 OFFCURVE",
"373 528 OFFCURVE",
"409 528 CURVE SMOOTH",
"449 528 OFFCURVE",
"476 506 OFFCURVE",
"476 467 CURVE SMOOTH",
"476 38 LINE",
"506 38 LINE",
"345 346 LINE",
"313 346 LINE",
"214 157 LINE SMOOTH",
"188 106 OFFCURVE",
"172 81 OFFCURVE",
"155 60 CURVE",
"155 25 LINE",
"180 67 OFFCURVE",
"182 109 OFFCURVE",
"182 159 CURVE SMOOTH",
"182 283 LINE SMOOTH",
"182 339 OFFCURVE",
"189 359 OFFCURVE",
"203 388 CURVE SMOOTH",
"217 416 OFFCURVE",
"224 433 OFFCURVE",
"224 458 CURVE SMOOTH",
"224 519 OFFCURVE",
"183 556 OFFCURVE",
"126 556 CURVE SMOOTH",
"67 556 OFFCURVE",
"24 516 OFFCURVE",
"24 461 CURVE SMOOTH",
"24 410 OFFCURVE",
"61 372 OFFCURVE",
"116 372 CURVE SMOOTH",
"136 372 OFFCURVE",
"152 377 OFFCURVE",
"165 387 CURVE",
"116 387 LINE",
"103 364 OFFCURVE",
"100 345 OFFCURVE",
"100 315 CURVE SMOOTH",
"100 170 LINE SMOOTH",
"100 90 OFFCURVE",
"93 56 OFFCURVE",
"68 18 CURVE",
"74 0 LINE",
"97 0 OFFCURVE",
"121 -6 OFFCURVE",
"147 -6 CURVE SMOOTH"
);
},
{
closed = 1;
nodes = (
"96 416 OFFCURVE",
"78 435 OFFCURVE",
"78 462 CURVE SMOOTH",
"78 489 OFFCURVE",
"96 508 OFFCURVE",
"122 508 CURVE SMOOTH",
"148 508 OFFCURVE",
"166 489 OFFCURVE",
"166 462 CURVE SMOOTH",
"166 435 OFFCURVE",
"148 416 OFFCURVE",
"122 416 CURVE SMOOTH"
);
}
);
width = 642;
}
);
leftMetricsKey = "boBaimai-thai";
note = "loChula-thai.short";
},
